$MeshFormat
2.2 0 8
$EndMeshFormat
$PhysicalNames
9
1 3 "Specimen_Top_Edge"
1 4 "Specimen_Left_Edge"
1 5 "Specimen_Bottom_Edge"
1 6 "Indenter_Top_Edge"
1 7 "Indenter_Left_Edge"
1 8 "Indenter_Bottom_Edge"
1 9 "Indenter_Right_Edge"
2 1 "Specimen_Body"
2 2 "Indenter_Body"
$EndPhysicalNames
$Nodes
324
1 0.2 0.8 0
2 0.5 0 0
3 0 0 0
4 0 0.8 0
5 0.250439662878749 0.9681322095959701 0
6 0 1 0
7 1 0 0
8 0 1 0
9 2.25 1 0
10 2.25 1.5 0
11 0 1.5 0
12 0.0333333333333334 0.8 0
13 0.06666666666666679 0.8 0
14 0.1000000000000001 0.8 0
15 0.1333333333333334 0.8 0
16 0.1666666666666667 0.8 0
17 0.215 0.76 0
18 0.23 0.72 0
19 0.2450000000000001 0.6799999999999999 0
20 0.2600000000000001 0.6399999999999998 0
21 0.2750000000000001 0.5999999999999998 0
22 0.2900000000000001 0.5599999999999997 0
23 0.3050000000000002 0.5199999999999996 0
24 0.3200000000000002 0.4799999999999996 0
25 0.3350000000000002 0.4399999999999996 0
26 0.3500000000000002 0.3999999999999995 0
27 0.3650000000000002 0.3599999999999995 0
28 0.3800000000000002 0.3199999999999995 0
29 0.3950000000000002 0.2799999999999996 0
30 0.4100000000000002 0.2399999999999995 0
31 0.4250000000000002 0.1999999999999997 0
32 0.4400000000000001 0.1599999999999998 0
33 0.4550000000000001 0.1199999999999999 0
34 0.47 0.07999999999999996 0
35 0.485 0.03999999999999992 0
36 0.4166666666666666 0 0
37 0.3333333333333334 0 0
38 0.25 0 0
39 0.1666666666666667 0 0
40 0.08333333333333337 0 0
41 0 0.04000000000000006 0
42 0 0.08000000000000014 0
43 0 0.1200000000000002 0
44 0 0.1600000000000003 0
45 0 0.2000000000000004 0
46 0 0.2400000000000005 0
47 0 0.2800000000000004 0
48 0 0.3200000000000004 0
49 0 0.3600000000000004 0
50 0 0.4000000000000003 0
51 0 0.4400000000000003 0
52 0 0.4800000000000004 0
53 0 0.5200000000000005 0
54 0 0.5600000000000003 0
55 0 0.6000000000000003 0
56 0 0.6400000000000003 0
57 0 0.6800000000000002 0
58 0 0.7200000000000002 0
59 0 0.7600000000000001 0
60 0.2084066104797979 0.8280220349326598 0
61 0.2168132209595959 0.8560440698653196 0
62 0.2252198314393938 0.8840661047979794 0
63 0.2336264419191918 0.9120881397306392 0
64 0.2420330523989897 0.9401101746632989 0
65 0.04217654621865725 0.999110173579003 0
66 0.08427803282697204 0.9964422778981309 0
67 0.1262295337946477 0.9920010608855143 0
68 0.1679563900137622 0.9857944263656317 0
69 0.2093843421660585 0.9778334199932456 0
70 0 0.8333333333333334 0
71 0 0.8666666666666667 0
72 0 0.9 0
73 0 0.9333333333333333 0
74 0 0.9666666666666667 0
75 0.9166666666666666 0 0
76 0.8333333333333334 0 0
77 0.75 0 0
78 0.6666666666666667 0 0
79 0.5833333333333334 0 0
80 0.3136337488743117 0.9495440335061062 0
81 0.375466974020514 0.9268357737052874 0
82 0.4356710431622811 0.9001059616233468 0
83 0.4939847300732845 0.8694705782569209 0
84 0.5501550109198851 0.8350625509264208 0
85 0.6039381621347822 0.7970311765026896 0
86 0.655100817936689 0.7555414736059703 0
87 0.703420982907447 0.7107734665879989 0
88 0.7486889952329846 0.6629214044040395 0
89 0.7907084364286082 0.6121929177641845 0
90 0.8292969836013253 0.5588081182210429 0
91 0.8642872005512071 0.5029986431028989 0
92 0.8955272642792016 0.4450066504363828 0
93 0.9228816237490719 0.3850837682196908 0
94 0.9462315880450746 0.3234900026054843 0
95 0.9654758413733632 0.2604926097308645 0
96 0.9805308826725122 0.1963649360895782 0
97 0.9913313879256933 0.1313852324780779 0
98 0.9978304936024188 0.06583544666175892 0
99 0.5625 1 0
100 1.125 1 0
101 1.6875 1 0
102 2.25 1.25 0
103 1.6875 1.5 0
104 1.125 1.5 0
105 0.5625 1.5 0
106 0 1.25 0
107 0.4041666666666667 0.04000000000000004 0
108 0.3916666666666667 0.08000000000000002 0
109 0.3791666666666668 0.1199999999999999 0
110 0.3666666666666668 0.1599999999999999 0
111 0.3541666666666668 0.1999999999999997 0
112 0.3416666666666668 0.2399999999999998 0
113 0.3291666666666668 0.2799999999999998 0
114 0.3166666666666669 0.3199999999999996 0
115 0.3041666666666669 0.3599999999999997 0
116 0.2916666666666669 0.3999999999999997 0
117 0.2791666666666668 0.4399999999999997 0
118 0.2666666666666668 0.4799999999999998 0
119 0.2541666666666669 0.5199999999999998 0
120 0.2416666666666668 0.5599999999999998 0
121 0.2291666666666668 0.5999999999999999 0
122 0.2166666666666668 0.6399999999999999 0
123 0.2041666666666667 0.6799999999999999 0
124 0.1916666666666668 0.7200000000000001 0
125 0.1791666666666667 0.76 0
126 0.3233333333333334 0.04000000000000004 0
127 0.3133333333333335 0.08000000000000007 0
128 0.3033333333333335 0.12 0
129 0.2933333333333334 0.1600000000000001 0
130 0.2833333333333335 0.1999999999999999 0
131 0.2733333333333335 0.2399999999999998 0
132 0.2633333333333336 0.2799999999999999 0
133 0.2533333333333336 0.3199999999999997 0
134 0.2433333333333336 0.3599999999999998 0
135 0.2333333333333336 0.3999999999999998 0
136 0.2233333333333336 0.4399999999999998 0
137 0.2133333333333335 0.4799999999999999 0
138 0.2033333333333336 0.5199999999999999 0
139 0.1933333333333335 0.5599999999999999 0
140 0.1833333333333335 0.5999999999999999 0
141 0.1733333333333335 0.6399999999999999 0
142 0.1633333333333335 0.6799999999999999 0
143 0.1533333333333335 0.72 0
144 0.1433333333333335 0.76 0
145 0.2425 0.03999999999999998 0
146 0.235 0.08000000000000007 0
147 0.2275000000000001 0.1200000000000001 0
148 0.2200000000000001 0.1600000000000001 0
149 0.2125000000000001 0.2 0
150 0.2050000000000001 0.24 0
151 0.1975000000000001 0.28 0
152 0.1900000000000001 0.3199999999999999 0
153 0.1825000000000001 0.3599999999999999 0
154 0.1750000000000002 0.3999999999999999 0
155 0.1675000000000001 0.4399999999999999 0
156 0.1600000000000001 0.48 0
157 0.1525000000000002 0.52 0
158 0.1450000000000001 0.5600000000000001 0
159 0.1375000000000001 0.6 0
160 0.1300000000000001 0.6400000000000001 0
161 0.1225000000000001 0.6799999999999999 0
162 0.1150000000000001 0.72 0
163 0.1075000000000002 0.7600000000000001 0
164 0.1616666666666668 0.03999999999999998 0
165 0.1566666666666668 0.08000000000000002 0
166 0.1516666666666669 0.1200000000000002 0
167 0.1466666666666668 0.1600000000000002 0
168 0.1416666666666668 0.2000000000000001 0
169 0.1366666666666668 0.2400000000000001 0
170 0.1316666666666669 0.2800000000000002 0
171 0.1266666666666669 0.3200000000000001 0
172 0.1216666666666669 0.3600000000000001 0
173 0.1166666666666669 0.4 0
174 0.1116666666666669 0.4400000000000001 0
175 0.1066666666666669 0.4800000000000001 0
176 0.1016666666666669 0.5200000000000002 0
177 0.0966666666666669 0.5600000000000001 0
178 0.0916666666666669 0.6000000000000001 0
179 0.08666666666666689 0.6400000000000002 0
180 0.08166666666666694 0.6799999999999999 0
181 0.07666666666666677 0.72 0
182 0.07166666666666688 0.76 0
183 0.08083333333333337 0.04000000000000015 0
184 0.07833333333333337 0.07999999999999996 0
185 0.07583333333333331 0.1200000000000001 0
186 0.07333333333333336 0.1600000000000003 0
187 0.07083333333333341 0.2000000000000003 0
188 0.06833333333333336 0.2400000000000004 0
189 0.06583333333333347 0.2800000000000004 0
190 0.06333333333333341 0.3200000000000002 0
191 0.06083333333333335 0.3600000000000002 0
192 0.05833333333333346 0.4000000000000001 0
193 0.05583333333333335 0.4400000000000002 0
194 0.05333333333333334 0.4800000000000003 0
195 0.05083333333333345 0.5200000000000004 0
196 0.04833333333333339 0.5600000000000002 0
197 0.04583333333333345 0.6000000000000001 0
198 0.04333333333333339 0.6400000000000002 0
199 0.04083333333333339 0.68 0
200 0.03833333333333339 0.7200000000000002 0
201 0.03583333333333338 0.7600000000000001 0
202 0.03480720214755417 0.8331850289298338 0
203 0.03628107096177474 0.8663700578596677 0
204 0.03775493977599548 0.8995550867895015 0
205 0.03922880859021621 0.9327401157193352 0
206 0.04070267740443667 0.9659251446491691 0
207 0.06960189436005115 0.8327403796496886 0
208 0.07253712205343527 0.8654807592993771 0
209 0.07547234974681954 0.8982211389490655 0
210 0.07840757744020377 0.930961518598754 0
211 0.08134280513358788 0.9637018982484425 0
212 0.1043715889657748 0.8320001768142524 0
213 0.1087431779315494 0.8640003536285048 0
214 0.1131147668973241 0.8960005304427572 0
215 0.1174863558630986 0.9280007072570097 0
216 0.1218579448288732 0.9600008840712621 0
217 0.1391038427800717 0.8309657377276053 0
218 0.1448743522268098 0.8619314754552106 0
219 0.1506448616735478 0.8928972131828159 0
220 0.156415371120286 0.9238629509104213 0
221 0.1621858805670242 0.9548286886380266 0
222 0.1737862792498988 0.8296389033322076 0
223 0.1809058918331307 0.8592778066644153 0
224 0.1880255044163626 0.8889167099966229 0
225 0.1951451169995947 0.9185556133288305 0
226 0.2022647295828266 0.9481945166610383 0
227 0.9123587446686823 0.06152953888479912 0
228 0.904442823271411 0.122821027065065 0
229 0.8929424022270935 0.1836374467413151 0
230 0.8778965344778027 0.2437438414423871 0
231 0.8593596567042288 0.3029083355045702 0
232 0.8374013531242265 0.3609031401830756 0
233 0.8121060535660014 0.4175055420303189 0
234 0.7835726671260059 0.4724988692524157 0
235 0.7519141530011044 0.5256734318508691 0
236 0.7172570303571737 0.5768274314701538 0
237 0.6797408293608205 0.6257678370033662 0
238 0.6395174857562059 0.6723112221566658 0
239 0.5967506816139075 0.7162845613383086 0
240 0.5516151351123186 0.7575259804189081 0
241 0.5042958424332376 0.7958854591053507 0
242 0.4549872750610705 0.8312254818807674 0
243 0.4038925359685676 0.8634216346861225 0
244 0.3512224783504284 0.8923631447544063 0
245 0.2971947907285931 0.9179533612550886 0
246 0.826886995734946 0.05722363110783929 0
247 0.8175542586171289 0.114256821652052 0
248 0.8053539217816748 0.1709099573930522 0
249 0.7903172275822422 0.2269950731539097 0
250 0.7724877253633831 0.2823266684036562 0
251 0.7519210824993814 0.3367225121464604 0
252 0.7286848428528012 0.3900044336242552 0
253 0.7028581337008049 0.4419990954019325 0
254 0.6745313224008838 0.4925387454806952 0
255 0.6438056242857388 0.5414619451761229 0
256 0.6107926634886566 0.5886142696026929 0
257 0.5756139886049648 0.6338489777253326 0
258 0.5384005452911261 0.6770276490706468 0
259 0.4992921080898549 0.7180207843351264 0
260 0.4584366739465902 0.7567083672842807 0
261 0.4159898200488564 0.792980385504614 0
262 0.3721140287748541 0.826737307748898 0
263 0.3269779826803427 0.857890515803525 0
264 0.2807558325828746 0.886362689004071 0
265 0.7414152468012094 0.05291772333087941 0
266 0.7306656939628466 0.1056926162390389 0
267 0.7177654413362562 0.1581824680447891 0
268 0.7027379206866817 0.2102463048654322 0
269 0.6856157940225374 0.261745001302742 0
270 0.666440811874536 0.3125418841098453 0
271 0.6452636321396009 0.3625033252181913 0
272 0.6221436002756038 0.4114993215514492 0
273 0.5971484918006629 0.4594040591105213 0
274 0.5703542182143042 0.5060964588820921 0
275 0.5418444976164924 0.5514607022020196 0
276 0.5117104914537236 0.5953867332939993 0
277 0.4800504089683446 0.637770736802985 0
278 0.4469690810673912 0.6785155882513447 0
279 0.4125775054599427 0.7175312754632104 0
280 0.3769923650366424 0.7547352891284604 0
281 0.3403355215811406 0.7900529808116735 0
282 0.3027334870102571 0.8234178868526437 0
283 0.264316874437156 0.8547720167530533 0
284 0.655943497867473 0.04861181555391952 0
285 0.6437771293085646 0.09712841082602608 0
286 0.6301769608908375 0.145454978696526 0
287 0.6151586137911211 0.1934975365769547 0
288 0.5987438626816917 0.2411633342018279 0
289 0.5809605412496908 0.2883612560732299 0
290 0.5618424214264006 0.3350022168121274 0
291 0.5414290668504025 0.3809995477009659 0
292 0.519765661200442 0.4262693727403474 0
293 0.4969028121428696 0.4707309725880612 0
294 0.4728963317443284 0.5143071348013462 0
295 0.4478069943024825 0.5569244888626661 0
296 0.4217002726455631 0.5985138245353233 0
297 0.3946460540449275 0.6390103921675631 0
298 0.3667183369732951 0.6783541836421402 0
299 0.3379949100244282 0.7164901927523069 0
300 0.3085570143874271 0.7533686538744488 0
301 0.2784889913401714 0.7889452579017624 0
302 0.2478779162914373 0.8231813445020354 0
303 0.5704717489337365 0.0443059077769597 0
304 0.5568885646542823 0.08856420541301308 0
305 0.5425884804454189 0.132727489348263 0
306 0.5275793068955607 0.1767487682884772 0
307 0.511871931340846 0.2205816671009138 0
308 0.4954802706248456 0.2641806280366147 0
309 0.4784212107132005 0.3075011084060635 0
310 0.4607145334252014 0.3504997738504827 0
311 0.4423828306002211 0.3931346863701735 0
312 0.4234514060714349 0.4353654862940304 0
313 0.4039481658721643 0.4771535674006729 0
314 0.3839034971512413 0.5184622444313328 0
315 0.3633501363227816 0.5592569122676615 0
316 0.3423230270224639 0.5995051960837814 0
317 0.3208591684866476 0.63917709182107 0
318 0.2989974550122142 0.6782450963761533 0
319 0.2767785071937136 0.7166843269372244 0
320 0.2542444956700857 0.7544726289508812 0
321 0.2314389581457186 0.7915906722510176 0
322 0.5625 1.25 0
323 1.125 1.25 0
324 1.6875 1.25 0
$EndNodes
$Elements
360
1 1 2 5 7 2 36
2 1 2 5 7 36 37
3 1 2 5 7 37 38
4 1 2 5 7 38 39
5 1 2 5 7 39 40
6 1 2 5 7 40 3
7 1 2 4 8 3 41
8 1 2 4 8 41 42
9 1 2 4 8 42 43
10 1 2 4 8 43 44
11 1 2 4 8 44 45
12 1 2 4 8 45 46
13 1 2 4 8 46 47
14 1 2 4 8 47 48
15 1 2 4 8 48 49
16 1 2 4 8 49 50
17 1 2 4 8 50 51
18 1 2 4 8 51 52
19 1 2 4 8 52 53
20 1 2 4 8 53 54
21 1 2 4 8 54 55
22 1 2 4 8 55 56
23 1 2 4 8 56 57
24 1 2 4 8 57 58
25 1 2 4 8 58 59
26 1 2 4 8 59 4
27 1 2 3 10 6 65
28 1 2 3 10 65 66
29 1 2 3 10 66 67
30 1 2 3 10 67 68
31 1 2 3 10 68 69
32 1 2 3 10 69 5
33 1 2 4 11 4 70
34 1 2 4 11 70 71
35 1 2 4 11 71 72
36 1 2 4 11 72 73
37 1 2 4 11 73 74
38 1 2 4 11 74 6
39 1 2 5 12 7 75
40 1 2 5 12 75 76
41 1 2 5 12 76 77
42 1 2 5 12 77 78
43 1 2 5 12 78 79
44 1 2 5 12 79 2
45 1 2 3 13 5 80
46 1 2 3 13 80 81
47 1 2 3 13 81 82
48 1 2 3 13 82 83
49 1 2 3 13 83 84
50 1 2 3 13 84 85
51 1 2 3 13 85 86
52 1 2 3 13 86 87
53 1 2 3 13 87 88
54 1 2 3 13 88 89
55 1 2 3 13 89 90
56 1 2 3 13 90 91
57 1 2 3 13 91 92
58 1 2 3 13 92 93
59 1 2 3 13 93 94
60 1 2 3 13 94 95
61 1 2 3 13 95 96
62 1 2 3 13 96 97
63 1 2 3 13 97 98
64 1 2 3 13 98 7
65 1 2 8 15 8 99
66 1 2 8 15 99 100
67 1 2 8 15 100 101
68 1 2 8 15 101 9
69 1 2 9 16 9 102
70 1 2 9 16 102 10
71 1 2 6 17 10 103
72 1 2 6 17 103 104
73 1 2 6 17 104 105
74 1 2 6 17 105 11
75 1 2 7 18 11 106
76 1 2 7 18 106 8
77 3 2 1 1 2 36 107 35
78 3 2 1 1 35 107 108 34
79 3 2 1 1 34 108 109 33
80 3 2 1 1 33 109 110 32
81 3 2 1 1 32 110 111 31
82 3 2 1 1 31 111 112 30
83 3 2 1 1 30 112 113 29
84 3 2 1 1 29 113 114 28
85 3 2 1 1 28 114 115 27
86 3 2 1 1 27 115 116 26
87 3 2 1 1 26 116 117 25
88 3 2 1 1 25 117 118 24
89 3 2 1 1 24 118 119 23
90 3 2 1 1 23 119 120 22
91 3 2 1 1 22 120 121 21
92 3 2 1 1 21 121 122 20
93 3 2 1 1 20 122 123 19
94 3 2 1 1 19 123 124 18
95 3 2 1 1 18 124 125 17
96 3 2 1 1 17 125 16 1
97 3 2 1 1 36 37 126 107
98 3 2 1 1 107 126 127 108
99 3 2 1 1 108 127 128 109
100 3 2 1 1 109 128 129 110
101 3 2 1 1 110 129 130 111
102 3 2 1 1 111 130 131 112
103 3 2 1 1 112 131 132 113
104 3 2 1 1 113 132 133 114
105 3 2 1 1 114 133 134 115
106 3 2 1 1 115 134 135 116
107 3 2 1 1 116 135 136 117
108 3 2 1 1 117 136 137 118
109 3 2 1 1 118 137 138 119
110 3 2 1 1 119 138 139 120
111 3 2 1 1 120 139 140 121
112 3 2 1 1 121 140 141 122
113 3 2 1 1 122 141 142 123
114 3 2 1 1 123 142 143 124
115 3 2 1 1 124 143 144 125
116 3 2 1 1 125 144 15 16
117 3 2 1 1 37 38 145 126
118 3 2 1 1 126 145 146 127
119 3 2 1 1 127 146 147 128
120 3 2 1 1 128 147 148 129
121 3 2 1 1 129 148 149 130
122 3 2 1 1 130 149 150 131
123 3 2 1 1 131 150 151 132
124 3 2 1 1 132 151 152 133
125 3 2 1 1 133 152 153 134
126 3 2 1 1 134 153 154 135
127 3 2 1 1 135 154 155 136
128 3 2 1 1 136 155 156 137
129 3 2 1 1 137 156 157 138
130 3 2 1 1 138 157 158 139
131 3 2 1 1 139 158 159 140
132 3 2 1 1 140 159 160 141
133 3 2 1 1 141 160 161 142
134 3 2 1 1 142 161 162 143
135 3 2 1 1 143 162 163 144
136 3 2 1 1 144 163 14 15
137 3 2 1 1 38 39 164 145
138 3 2 1 1 145 164 165 146
139 3 2 1 1 146 165 166 147
140 3 2 1 1 147 166 167 148
141 3 2 1 1 148 167 168 149
142 3 2 1 1 149 168 169 150
143 3 2 1 1 150 169 170 151
144 3 2 1 1 151 170 171 152
145 3 2 1 1 152 171 172 153
146 3 2 1 1 153 172 173 154
147 3 2 1 1 154 173 174 155
148 3 2 1 1 155 174 175 156
149 3 2 1 1 156 175 176 157
150 3 2 1 1 157 176 177 158
151 3 2 1 1 158 177 178 159
152 3 2 1 1 159 178 179 160
153 3 2 1 1 160 179 180 161
154 3 2 1 1 161 180 181 162
155 3 2 1 1 162 181 182 163
156 3 2 1 1 163 182 13 14
157 3 2 1 1 39 40 183 164
158 3 2 1 1 164 183 184 165
159 3 2 1 1 165 184 185 166
160 3 2 1 1 166 185 186 167
161 3 2 1 1 167 186 187 168
162 3 2 1 1 168 187 188 169
163 3 2 1 1 169 188 189 170
164 3 2 1 1 170 189 190 171
165 3 2 1 1 171 190 191 172
166 3 2 1 1 172 191 192 173
167 3 2 1 1 173 192 193 174
168 3 2 1 1 174 193 194 175
169 3 2 1 1 175 194 195 176
170 3 2 1 1 176 195 196 177
171 3 2 1 1 177 196 197 178
172 3 2 1 1 178 197 198 179
173 3 2 1 1 179 198 199 180
174 3 2 1 1 180 199 200 181
175 3 2 1 1 181 200 201 182
176 3 2 1 1 182 201 12 13
177 3 2 1 1 40 3 41 183
178 3 2 1 1 183 41 42 184
179 3 2 1 1 184 42 43 185
180 3 2 1 1 185 43 44 186
181 3 2 1 1 186 44 45 187
182 3 2 1 1 187 45 46 188
183 3 2 1 1 188 46 47 189
184 3 2 1 1 189 47 48 190
185 3 2 1 1 190 48 49 191
186 3 2 1 1 191 49 50 192
187 3 2 1 1 192 50 51 193
188 3 2 1 1 193 51 52 194
189 3 2 1 1 194 52 53 195
190 3 2 1 1 195 53 54 196
191 3 2 1 1 196 54 55 197
192 3 2 1 1 197 55 56 198
193 3 2 1 1 198 56 57 199
194 3 2 1 1 199 57 58 200
195 3 2 1 1 200 58 59 201
196 3 2 1 1 201 59 4 12
197 3 2 1 2 4 70 202 12
198 3 2 1 2 70 71 203 202
199 3 2 1 2 71 72 204 203
200 3 2 1 2 72 73 205 204
201 3 2 1 2 73 74 206 205
202 3 2 1 2 74 6 65 206
203 3 2 1 2 12 202 207 13
204 3 2 1 2 202 203 208 207
205 3 2 1 2 203 204 209 208
206 3 2 1 2 204 205 210 209
207 3 2 1 2 205 206 211 210
208 3 2 1 2 206 65 66 211
209 3 2 1 2 13 207 212 14
210 3 2 1 2 207 208 213 212
211 3 2 1 2 208 209 214 213
212 3 2 1 2 209 210 215 214
213 3 2 1 2 210 211 216 215
214 3 2 1 2 211 66 67 216
215 3 2 1 2 14 212 217 15
216 3 2 1 2 212 213 218 217
217 3 2 1 2 213 214 219 218
218 3 2 1 2 214 215 220 219
219 3 2 1 2 215 216 221 220
220 3 2 1 2 216 67 68 221
221 3 2 1 2 15 217 222 16
222 3 2 1 2 217 218 223 222
223 3 2 1 2 218 219 224 223
224 3 2 1 2 219 220 225 224
225 3 2 1 2 220 221 226 225
226 3 2 1 2 221 68 69 226
227 3 2 1 2 16 222 60 1
228 3 2 1 2 222 223 61 60
229 3 2 1 2 223 224 62 61
230 3 2 1 2 224 225 63 62
231 3 2 1 2 225 226 64 63
232 3 2 1 2 226 69 5 64
233 3 2 1 3 7 75 227 98
234 3 2 1 3 98 227 228 97
235 3 2 1 3 97 228 229 96
236 3 2 1 3 96 229 230 95
237 3 2 1 3 95 230 231 94
238 3 2 1 3 94 231 232 93
239 3 2 1 3 93 232 233 92
240 3 2 1 3 92 233 234 91
241 3 2 1 3 91 234 235 90
242 3 2 1 3 90 235 236 89
243 3 2 1 3 89 236 237 88
244 3 2 1 3 88 237 238 87
245 3 2 1 3 87 238 239 86
246 3 2 1 3 86 239 240 85
247 3 2 1 3 85 240 241 84
248 3 2 1 3 84 241 242 83
249 3 2 1 3 83 242 243 82
250 3 2 1 3 82 243 244 81
251 3 2 1 3 81 244 245 80
252 3 2 1 3 80 245 64 5
253 3 2 1 3 75 76 246 227
254 3 2 1 3 227 246 247 228
255 3 2 1 3 228 247 248 229
256 3 2 1 3 229 248 249 230
257 3 2 1 3 230 249 250 231
258 3 2 1 3 231 250 251 232
259 3 2 1 3 232 251 252 233
260 3 2 1 3 233 252 253 234
261 3 2 1 3 234 253 254 235
262 3 2 1 3 235 254 255 236
263 3 2 1 3 236 255 256 237
264 3 2 1 3 237 256 257 238
265 3 2 1 3 238 257 258 239
266 3 2 1 3 239 258 259 240
267 3 2 1 3 240 259 260 241
268 3 2 1 3 241 260 261 242
269 3 2 1 3 242 261 262 243
270 3 2 1 3 243 262 263 244
271 3 2 1 3 244 263 264 245
272 3 2 1 3 245 264 63 64
273 3 2 1 3 76 77 265 246
274 3 2 1 3 246 265 266 247
275 3 2 1 3 247 266 267 248
276 3 2 1 3 248 267 268 249
277 3 2 1 3 249 268 269 250
278 3 2 1 3 250 269 270 251
279 3 2 1 3 251 270 271 252
280 3 2 1 3 252 271 272 253
281 3 2 1 3 253 272 273 254
282 3 2 1 3 254 273 274 255
283 3 2 1 3 255 274 275 256
284 3 2 1 3 256 275 276 257
285 3 2 1 3 257 276 277 258
286 3 2 1 3 258 277 278 259
287 3 2 1 3 259 278 279 260
288 3 2 1 3 260 279 280 261
289 3 2 1 3 261 280 281 262
290 3 2 1 3 262 281 282 263
291 3 2 1 3 263 282 283 264
292 3 2 1 3 264 283 62 63
293 3 2 1 3 77 78 284 265
294 3 2 1 3 265 284 285 266
295 3 2 1 3 266 285 286 267
296 3 2 1 3 267 286 287 268
297 3 2 1 3 268 287 288 269
298 3 2 1 3 269 288 289 270
299 3 2 1 3 270 289 290 271
300 3 2 1 3 271 290 291 272
301 3 2 1 3 272 291 292 273
302 3 2 1 3 273 292 293 274
303 3 2 1 3 274 293 294 275
304 3 2 1 3 275 294 295 276
305 3 2 1 3 276 295 296 277
306 3 2 1 3 277 296 297 278
307 3 2 1 3 278 297 298 279
308 3 2 1 3 279 298 299 280
309 3 2 1 3 280 299 300 281
310 3 2 1 3 281 300 301 282
311 3 2 1 3 282 301 302 283
312 3 2 1 3 283 302 61 62
313 3 2 1 3 78 79 303 284
314 3 2 1 3 284 303 304 285
315 3 2 1 3 285 304 305 286
316 3 2 1 3 286 305 306 287
317 3 2 1 3 287 306 307 288
318 3 2 1 3 288 307 308 289
319 3 2 1 3 289 308 309 290
320 3 2 1 3 290 309 310 291
321 3 2 1 3 291 310 311 292
322 3 2 1 3 292 311 312 293
323 3 2 1 3 293 312 313 294
324 3 2 1 3 294 313 314 295
325 3 2 1 3 295 314 315 296
326 3 2 1 3 296 315 316 297
327 3 2 1 3 297 316 317 298
328 3 2 1 3 298 317 318 299
329 3 2 1 3 299 318 319 300
330 3 2 1 3 300 319 320 301
331 3 2 1 3 301 320 321 302
332 3 2 1 3 302 321 60 61
333 3 2 1 3 79 2 35 303
334 3 2 1 3 303 35 34 304
335 3 2 1 3 304 34 33 305
336 3 2 1 3 305 33 32 306
337 3 2 1 3 306 32 31 307
338 3 2 1 3 307 31 30 308
339 3 2 1 3 308 30 29 309
340 3 2 1 3 309 29 28 310
341 3 2 1 3 310 28 27 311
342 3 2 1 3 311 27 26 312
343 3 2 1 3 312 26 25 313
344 3 2 1 3 313 25 24 314
345 3 2 1 3 314 24 23 315
346 3 2 1 3 315 23 22 316
347 3 2 1 3 316 22 21 317
348 3 2 1 3 317 21 20 318
349 3 2 1 3 318 20 19 319
350 3 2 1 3 319 19 18 320
351 3 2 1 3 320 18 17 321
352 3 2 1 3 321 17 1 60
353 3 2 2 4 8 99 322 106
354 3 2 2 4 106 322 105 11
355 3 2 2 4 99 100 323 322
356 3 2 2 4 322 323 104 105
357 3 2 2 4 100 101 324 323
358 3 2 2 4 323 324 103 104
359 3 2 2 4 101 9 102 324
360 3 2 2 4 324 102 10 103
$EndElements
