$MeshFormat
2.2 0 8
$EndMeshFormat
$PhysicalNames
9
1 3 "Specimen_Top_Edge"
1 4 "Specimen_Left_Edge"
1 5 "Specimen_Bottom_Edge"
1 6 "Indenter_Top_Edge"
1 7 "Indenter_Left_Edge"
1 8 "Indenter_Bottom_Edge"
1 9 "Indenter_Right_Edge"
2 1 "Specimen_Body"
2 2 "Indenter_Body"
$EndPhysicalNames
$Nodes
184
1 0.2 0.8 0
2 0.5 0 0
3 0 0 0
4 0 0.8 0
5 0.250439662878749 0.9681322095959701 0
6 0 1 0
7 1 0 0
8 0 1 0
9 1.5 1 0
10 1.5 1.5 0
11 0 1.5 0
12 0.0500000000000001 0.8 0
13 0.1000000000000001 0.8 0
14 0.1500000000000001 0.8 0
15 0.21875 0.75 0
16 0.2375 0.7 0
17 0.2562500000000001 0.6499999999999998 0
18 0.2750000000000001 0.5999999999999998 0
19 0.2937500000000002 0.5499999999999996 0
20 0.3125000000000002 0.4999999999999996 0
21 0.3312500000000002 0.4499999999999996 0
22 0.3500000000000002 0.3999999999999995 0
23 0.3687500000000002 0.3499999999999994 0
24 0.3875000000000002 0.2999999999999994 0
25 0.4062500000000002 0.2499999999999996 0
26 0.4250000000000002 0.1999999999999997 0
27 0.4437500000000001 0.1499999999999997 0
28 0.4625 0.09999999999999987 0
29 0.48125 0.05000000000000004 0
30 0.375 0 0
31 0.25 0 0
32 0.125 0 0
33 0 0.05000000000000008 0
34 0 0.1000000000000002 0
35 0 0.1500000000000003 0
36 0 0.2000000000000004 0
37 0 0.2500000000000005 0
38 0 0.3000000000000004 0
39 0 0.3500000000000004 0
40 0 0.4000000000000003 0
41 0 0.4500000000000003 0
42 0 0.5000000000000004 0
43 0 0.5500000000000004 0
44 0 0.6000000000000003 0
45 0 0.6500000000000002 0
46 0 0.7000000000000002 0
47 0 0.7500000000000001 0
48 0.2126099157196969 0.8420330523989897 0
49 0.2252198314393938 0.8840661047979794 0
50 0.2378297471590907 0.926099157196969 0
51 0.06324135954612954 0.9979982617433545 0
52 0.1262295337946477 0.9920010608855143 0
53 0.1887123510693354 0.9820324070792592 0
54 0 0.85 0
55 0 0.9 0
56 0 0.95 0
57 0.875 0 0
58 0.75 0 0
59 0.625 0 0
60 0.3292302261083437 0.9442496800193521 0
61 0.4057891588538232 0.9139667163287221 0
62 0.4795975195521179 0.8774885863870002 0
63 0.5501550109198851 0.8350625509264208 0
64 0.6169833711326241 0.7869761875341735 0
65 0.6796296156402315 0.7335554413571691 0
66 0.7376691076448925 0.6751624157389006 0
67 0.7907084364286082 0.6121929177641845 0
68 0.8383880840201102 0.5450737753488866 0
69 0.8803848621256176 0.4742599440602772 0
70 0.9164141028051213 0.4002314232789382 0
71 0.9462315880450746 0.3234900026054843 0
72 0.9696352051482086 0.2445558605660299 0
73 0.986466316719703 0.1639640386714805 0
74 0.9966108359634925 0.08226081473063923 0
75 0.375 1 0
76 0.75 1 0
77 1.125 1 0
78 1.5 1.25 0
79 1.125 1.5 0
80 0.75 1.5 0
81 0.375 1.5 0
82 0 1.25 0
83 0.3609375 0.0500000000000001 0
84 0.346875 0.1 0
85 0.3328125000000002 0.1499999999999999 0
86 0.3187500000000001 0.2 0
87 0.3046875000000002 0.2499999999999999 0
88 0.2906250000000002 0.2999999999999997 0
89 0.2765625000000002 0.3499999999999996 0
90 0.2625000000000002 0.3999999999999997 0
91 0.2484375000000002 0.4499999999999998 0
92 0.2343750000000002 0.4999999999999999 0
93 0.2203125000000001 0.5499999999999998 0
94 0.2062500000000001 0.6 0
95 0.1921875000000001 0.6499999999999999 0
96 0.1781250000000001 0.7 0
97 0.1640625 0.75 0
98 0.240625 0.05000000000000004 0
99 0.23125 0.1000000000000002 0
100 0.2218750000000001 0.1500000000000001 0
101 0.2125000000000001 0.2 0
102 0.2031250000000001 0.2500000000000001 0
103 0.1937500000000001 0.2999999999999999 0
104 0.1843750000000001 0.3499999999999999 0
105 0.1750000000000002 0.3999999999999999 0
106 0.1656250000000002 0.45 0
107 0.1562500000000001 0.5 0
108 0.1468750000000001 0.55 0
109 0.1375000000000002 0.6000000000000001 0
110 0.1281250000000002 0.65 0
111 0.1187500000000001 0.7 0
112 0.1093750000000001 0.75 0
113 0.1203125 0.0500000000000001 0
114 0.1156250000000001 0.1000000000000002 0
115 0.1109375 0.1500000000000001 0
116 0.1062500000000001 0.2000000000000002 0
117 0.1015625000000001 0.2500000000000002 0
118 0.0968750000000001 0.3000000000000002 0
119 0.09218750000000014 0.3500000000000001 0
120 0.08750000000000008 0.4 0
121 0.08281250000000007 0.4500000000000002 0
122 0.07812500000000006 0.5000000000000002 0
123 0.07343750000000016 0.5500000000000003 0
124 0.06875000000000003 0.6000000000000002 0
125 0.06406250000000008 0.6500000000000001 0
126 0.05937499999999996 0.7000000000000001 0
127 0.05468750000000011 0.75 0
128 0.05331033988653261 0.8494995654358386 0
129 0.0566206797730649 0.8989991308716772 0
130 0.0599310196595973 0.948498696307516 0
131 0.1065573834486621 0.8480002652213786 0
132 0.113114766897324 0.8960005304427572 0
133 0.1196721503459859 0.9440007956641358 0
134 0.1596780877673339 0.8455081017698148 0
135 0.1693561755346678 0.8910162035396296 0
136 0.1790342633020017 0.9365243053094444 0
137 0.8677706269726193 0.07419561104797934 0
138 0.8554747375397773 0.1479730290036103 0
139 0.8381639038611565 0.2209168954245223 0
140 0.8159236910338059 0.2926175019541131 0
141 0.788873077103841 0.3626735674592036 0
142 0.7571636465942133 0.4306949580452077 0
143 0.7209785630150827 0.4963053315116648 0
144 0.6805313273214564 0.5591446883231382 0
145 0.6360643307336694 0.6188718118041753 0
146 0.5878472117301737 0.6751665810178769 0
147 0.5361750283494682 0.7277321406506301 0
148 0.4813662581899139 0.7762969131948156 0
149 0.4237606396640885 0.8206164397902502 0
150 0.3637168691403674 0.8604750372465415 0
151 0.3016101695812579 0.8956872600145142 0
152 0.7389304179817462 0.06613040736531961 0
153 0.7244831583598516 0.1319820193357401 0
154 0.7066926025741045 0.1972779302830149 0
155 0.6856157940225374 0.2617450013027421 0
156 0.6613320514025608 0.325115711639469 0
157 0.633942431062809 0.3871299720301384 0
158 0.6035690420100553 0.4475368876744431 0
159 0.5703542182143042 0.5060964588820921 0
160 0.5344595538224464 0.5625812078694502 0
161 0.4960648078201159 0.6167777206785844 0
162 0.4553666855663122 0.6684880937670867 0
163 0.4125775054599427 0.7175312754632104 0
164 0.3679237597760591 0.7637442931935001 0
165 0.3216445794269117 0.8069833581643612 0
166 0.2739901130541719 0.8471248400096761 0
167 0.6100902089908731 0.05806520368265988 0
168 0.5934915791799258 0.1159910096678701 0
169 0.5752213012870523 0.1736389651415072 0
170 0.5553078970112687 0.2308725006513709 0
171 0.5337910257012805 0.2875578558197343 0
172 0.5107212155314047 0.343564986015069 0
173 0.4861595210050278 0.3987684438372212 0
174 0.4601771091071522 0.4530482294410458 0
175 0.4328547769112233 0.5062906039347248 0
176 0.404282403910058 0.5583888603392919 0
177 0.3745583427831561 0.6092440468835432 0
178 0.3437887527299713 0.658765637731605 0
179 0.3120868798880295 0.7068721465967499 0
180 0.2795722897134559 0.7534916790821804 0
181 0.2463700565270859 0.798562420004838 0
182 0.375 1.25 0
183 0.75 1.25 0
184 1.125 1.25 0
$EndNodes
$Elements
212
1 1 2 5 7 2 30
2 1 2 5 7 30 31
3 1 2 5 7 31 32
4 1 2 5 7 32 3
5 1 2 4 8 3 33
6 1 2 4 8 33 34
7 1 2 4 8 34 35
8 1 2 4 8 35 36
9 1 2 4 8 36 37
10 1 2 4 8 37 38
11 1 2 4 8 38 39
12 1 2 4 8 39 40
13 1 2 4 8 40 41
14 1 2 4 8 41 42
15 1 2 4 8 42 43
16 1 2 4 8 43 44
17 1 2 4 8 44 45
18 1 2 4 8 45 46
19 1 2 4 8 46 47
20 1 2 4 8 47 4
21 1 2 3 10 6 51
22 1 2 3 10 51 52
23 1 2 3 10 52 53
24 1 2 3 10 53 5
25 1 2 4 11 4 54
26 1 2 4 11 54 55
27 1 2 4 11 55 56
28 1 2 4 11 56 6
29 1 2 5 12 7 57
30 1 2 5 12 57 58
31 1 2 5 12 58 59
32 1 2 5 12 59 2
33 1 2 3 13 5 60
34 1 2 3 13 60 61
35 1 2 3 13 61 62
36 1 2 3 13 62 63
37 1 2 3 13 63 64
38 1 2 3 13 64 65
39 1 2 3 13 65 66
40 1 2 3 13 66 67
41 1 2 3 13 67 68
42 1 2 3 13 68 69
43 1 2 3 13 69 70
44 1 2 3 13 70 71
45 1 2 3 13 71 72
46 1 2 3 13 72 73
47 1 2 3 13 73 74
48 1 2 3 13 74 7
49 1 2 8 15 8 75
50 1 2 8 15 75 76
51 1 2 8 15 76 77
52 1 2 8 15 77 9
53 1 2 9 16 9 78
54 1 2 9 16 78 10
55 1 2 6 17 10 79
56 1 2 6 17 79 80
57 1 2 6 17 80 81
58 1 2 6 17 81 11
59 1 2 7 18 11 82
60 1 2 7 18 82 8
61 3 2 1 1 2 30 83 29
62 3 2 1 1 29 83 84 28
63 3 2 1 1 28 84 85 27
64 3 2 1 1 27 85 86 26
65 3 2 1 1 26 86 87 25
66 3 2 1 1 25 87 88 24
67 3 2 1 1 24 88 89 23
68 3 2 1 1 23 89 90 22
69 3 2 1 1 22 90 91 21
70 3 2 1 1 21 91 92 20
71 3 2 1 1 20 92 93 19
72 3 2 1 1 19 93 94 18
73 3 2 1 1 18 94 95 17
74 3 2 1 1 17 95 96 16
75 3 2 1 1 16 96 97 15
76 3 2 1 1 15 97 14 1
77 3 2 1 1 30 31 98 83
78 3 2 1 1 83 98 99 84
79 3 2 1 1 84 99 100 85
80 3 2 1 1 85 100 101 86
81 3 2 1 1 86 101 102 87
82 3 2 1 1 87 102 103 88
83 3 2 1 1 88 103 104 89
84 3 2 1 1 89 104 105 90
85 3 2 1 1 90 105 106 91
86 3 2 1 1 91 106 107 92
87 3 2 1 1 92 107 108 93
88 3 2 1 1 93 108 109 94
89 3 2 1 1 94 109 110 95
90 3 2 1 1 95 110 111 96
91 3 2 1 1 96 111 112 97
92 3 2 1 1 97 112 13 14
93 3 2 1 1 31 32 113 98
94 3 2 1 1 98 113 114 99
95 3 2 1 1 99 114 115 100
96 3 2 1 1 100 115 116 101
97 3 2 1 1 101 116 117 102
98 3 2 1 1 102 117 118 103
99 3 2 1 1 103 118 119 104
100 3 2 1 1 104 119 120 105
101 3 2 1 1 105 120 121 106
102 3 2 1 1 106 121 122 107
103 3 2 1 1 107 122 123 108
104 3 2 1 1 108 123 124 109
105 3 2 1 1 109 124 125 110
106 3 2 1 1 110 125 126 111
107 3 2 1 1 111 126 127 112
108 3 2 1 1 112 127 12 13
109 3 2 1 1 32 3 33 113
110 3 2 1 1 113 33 34 114
111 3 2 1 1 114 34 35 115
112 3 2 1 1 115 35 36 116
113 3 2 1 1 116 36 37 117
114 3 2 1 1 117 37 38 118
115 3 2 1 1 118 38 39 119
116 3 2 1 1 119 39 40 120
117 3 2 1 1 120 40 41 121
118 3 2 1 1 121 41 42 122
119 3 2 1 1 122 42 43 123
120 3 2 1 1 123 43 44 124
121 3 2 1 1 124 44 45 125
122 3 2 1 1 125 45 46 126
123 3 2 1 1 126 46 47 127
124 3 2 1 1 127 47 4 12
125 3 2 1 2 4 54 128 12
126 3 2 1 2 54 55 129 128
127 3 2 1 2 55 56 130 129
128 3 2 1 2 56 6 51 130
129 3 2 1 2 12 128 131 13
130 3 2 1 2 128 129 132 131
131 3 2 1 2 129 130 133 132
132 3 2 1 2 130 51 52 133
133 3 2 1 2 13 131 134 14
134 3 2 1 2 131 132 135 134
135 3 2 1 2 132 133 136 135
136 3 2 1 2 133 52 53 136
137 3 2 1 2 14 134 48 1
138 3 2 1 2 134 135 49 48
139 3 2 1 2 135 136 50 49
140 3 2 1 2 136 53 5 50
141 3 2 1 3 7 57 137 74
142 3 2 1 3 74 137 138 73
143 3 2 1 3 73 138 139 72
144 3 2 1 3 72 139 140 71
145 3 2 1 3 71 140 141 70
146 3 2 1 3 70 141 142 69
147 3 2 1 3 69 142 143 68
148 3 2 1 3 68 143 144 67
149 3 2 1 3 67 144 145 66
150 3 2 1 3 66 145 146 65
151 3 2 1 3 65 146 147 64
152 3 2 1 3 64 147 148 63
153 3 2 1 3 63 148 149 62
154 3 2 1 3 62 149 150 61
155 3 2 1 3 61 150 151 60
156 3 2 1 3 60 151 50 5
157 3 2 1 3 57 58 152 137
158 3 2 1 3 137 152 153 138
159 3 2 1 3 138 153 154 139
160 3 2 1 3 139 154 155 140
161 3 2 1 3 140 155 156 141
162 3 2 1 3 141 156 157 142
163 3 2 1 3 142 157 158 143
164 3 2 1 3 143 158 159 144
165 3 2 1 3 144 159 160 145
166 3 2 1 3 145 160 161 146
167 3 2 1 3 146 161 162 147
168 3 2 1 3 147 162 163 148
169 3 2 1 3 148 163 164 149
170 3 2 1 3 149 164 165 150
171 3 2 1 3 150 165 166 151
172 3 2 1 3 151 166 49 50
173 3 2 1 3 58 59 167 152
174 3 2 1 3 152 167 168 153
175 3 2 1 3 153 168 169 154
176 3 2 1 3 154 169 170 155
177 3 2 1 3 155 170 171 156
178 3 2 1 3 156 171 172 157
179 3 2 1 3 157 172 173 158
180 3 2 1 3 158 173 174 159
181 3 2 1 3 159 174 175 160
182 3 2 1 3 160 175 176 161
183 3 2 1 3 161 176 177 162
184 3 2 1 3 162 177 178 163
185 3 2 1 3 163 178 179 164
186 3 2 1 3 164 179 180 165
187 3 2 1 3 165 180 181 166
188 3 2 1 3 166 181 48 49
189 3 2 1 3 59 2 29 167
190 3 2 1 3 167 29 28 168
191 3 2 1 3 168 28 27 169
192 3 2 1 3 169 27 26 170
193 3 2 1 3 170 26 25 171
194 3 2 1 3 171 25 24 172
195 3 2 1 3 172 24 23 173
196 3 2 1 3 173 23 22 174
197 3 2 1 3 174 22 21 175
198 3 2 1 3 175 21 20 176
199 3 2 1 3 176 20 19 177
200 3 2 1 3 177 19 18 178
201 3 2 1 3 178 18 17 179
202 3 2 1 3 179 17 16 180
203 3 2 1 3 180 16 15 181
204 3 2 1 3 181 15 1 48
205 3 2 2 4 8 75 182 82
206 3 2 2 4 82 182 81 11
207 3 2 2 4 75 76 183 182
208 3 2 2 4 182 183 80 81
209 3 2 2 4 76 77 184 183
210 3 2 2 4 183 184 79 80
211 3 2 2 4 77 9 78 184
212 3 2 2 4 184 78 10 79
$EndElements
