$MeshFormat
2.2 0 8
$EndMeshFormat
$PhysicalNames
9
1 3 "Specimen_Top_Edge"
1 4 "Specimen_Left_Edge"
1 5 "Specimen_Bottom_Edge"
1 6 "Indenter_Top_Edge"
1 7 "Indenter_Left_Edge"
1 8 "Indenter_Bottom_Edge"
1 9 "Indenter_Right_Edge"
2 1 "Specimen_Body"
2 2 "Indenter_Body"
$EndPhysicalNames
$Nodes
1214
1 0.0027485 0.010994 0
2 0.00687125 0 0
3 0 0 0
4 0 0.010994 0
5 0.003441667067111746 0.0133045568903725 0
6 0 0.0137425 0
7 0.0137425 0 0
8 0 0.0137425 0
9 0.02061375 0.0137425 0
10 0.02061375 0.02061375 0
11 0 0.02061375 0
12 0.0002290416666666668 0.010994 0
13 0.0004580833333333338 0.010994 0
14 0.0006871250000000007 0.010994 0
15 0.0009161666666666676 0.010994 0
16 0.001145208333333334 0.010994 0
17 0.001374250000000001 0.010994 0
18 0.001603291666666668 0.010994 0
19 0.001832333333333335 0.010994 0
20 0.002061375000000002 0.010994 0
21 0.002290416666666668 0.010994 0
22 0.002519458333333334 0.010994 0
23 0.00285156875 0.01071915 0
24 0.0029546375 0.0104443 0
25 0.00305770625 0.01016945 0
26 0.003160775 0.009894600000000002 0
27 0.00326384375 0.00961975 0
28 0.0033669125 0.009344900000000001 0
29 0.003469981249999999 0.009070050000000001 0
30 0.003573049999999999 0.008795200000000001 0
31 0.00367611875 0.008520350000000001 0
32 0.0037791875 0.008245500000000001 0
33 0.00388225625 0.007970650000000003 0
34 0.003985325 0.007695800000000003 0
35 0.00408839375 0.007420950000000001 0
36 0.0041914625 0.007146100000000001 0
37 0.00429453125 0.006871250000000001 0
38 0.0043976 0.006596400000000001 0
39 0.00450066875 0.006321550000000001 0
40 0.0046037375 0.006046700000000001 0
41 0.004706806249999999 0.005771850000000001 0
42 0.004809875 0.005497000000000001 0
43 0.004912943749999999 0.005222150000000003 0
44 0.005016012499999999 0.004947300000000002 0
45 0.005119081249999999 0.004672450000000002 0
46 0.005222149999999999 0.004397600000000002 0
47 0.005325218749999999 0.004122750000000001 0
48 0.0054282875 0.0038479 0
49 0.005531356249999999 0.003573050000000001 0
50 0.005634425 0.0032982 0
51 0.005737493749999999 0.003023350000000001 0
52 0.0058405625 0.002748500000000001 0
53 0.005943631249999999 0.002473650000000001 0
54 0.0060467 0.002198800000000001 0
55 0.00614976875 0.001923949999999999 0
56 0.0062528375 0.001649100000000001 0
57 0.00635590625 0.00137425 0
58 0.006458975 0.001099399999999999 0
59 0.00656204375 0.0008245500000000003 0
60 0.0066651125 0.0005497000000000002 0
61 0.00676818125 0.0002748500000000001 0
62 0.006298645833333333 0 0
63 0.005726041666666666 0 0
64 0.005153437499999998 0 0
65 0.004580833333333333 0 0
66 0.004008229166666665 0 0
67 0.003435624999999999 0 0
68 0.002863020833333334 0 0
69 0.002290416666666666 0 0
70 0.001717812500000001 0 0
71 0.001145208333333333 0 0
72 0.0005726041666666674 0 0
73 0 0.0002748500000000002 0
74 0 0.0005497000000000003 0
75 0 0.0008245500000000005 0
76 0 0.001099400000000001 0
77 0 0.001374250000000001 0
78 0 0.001649100000000001 0
79 0 0.001923950000000002 0
80 0 0.002198800000000002 0
81 0 0.002473650000000003 0
82 0 0.002748500000000003 0
83 0 0.003023350000000003 0
84 0 0.003298200000000003 0
85 0 0.003573050000000003 0
86 0 0.003847900000000003 0
87 0 0.004122750000000004 0
88 0 0.004397600000000004 0
89 0 0.004672450000000004 0
90 0 0.004947300000000005 0
91 0 0.005222150000000005 0
92 0 0.005497000000000005 0
93 0 0.005771850000000007 0
94 0 0.006046700000000007 0
95 0 0.006321550000000007 0
96 0 0.006596400000000006 0
97 0 0.006871250000000006 0
98 0 0.007146100000000006 0
99 0 0.007420950000000006 0
100 0 0.007695800000000006 0
101 0 0.007970650000000006 0
102 0 0.008245500000000006 0
103 0 0.008520350000000005 0
104 0 0.008795200000000005 0
105 0 0.009070050000000003 0
106 0 0.009344900000000003 0
107 0 0.009619750000000002 0
108 0 0.009894600000000002 0
109 0 0.01016945 0
110 0 0.0104443 0
111 0 0.01071915 0
112 0.002806263922259313 0.01118654640753104 0
113 0.002864027844518625 0.01137909281506208 0
114 0.002921791766777938 0.01157163922259313 0
115 0.00297955568903725 0.01176418563012417 0
116 0.003037319611296563 0.01195673203765521 0
117 0.003095083533555875 0.01214927844518625 0
118 0.003152847455815188 0.01234182485271729 0
119 0.0032106113780745 0.01253437126024833 0
120 0.003268375300333813 0.01272691766777938 0
121 0.003326139222593125 0.01291946407531042 0
122 0.003383903144852438 0.01311201048284146 0
123 0.0002898700838938043 0.01373944254998955 0
124 0.0005796111864099947 0.01373027156040944 0
125 0.0008690943835628193 0.01371499111200804 0
126 0.001158190866124846 0.01369360800401505 0
127 0.001446771996942165 0.01366613175111611 0
128 0.001734709368173225 0.01363257457921914 0
129 0.002021874858425434 0.01359295142001424 0
130 0.002308140689764488 0.01354727990432963 0
131 0.002593379484570749 0.01349558035428664 0
132 0.002877464322217501 0.01343787577425708 0
133 0.003160268795545978 0.01337419184062717 0
134 0 0.01122304166666667 0
135 0 0.01145208333333333 0
136 0 0.011681125 0
137 0 0.01191016666666667 0
138 0 0.01213920833333333 0
139 0 0.01236825 0
140 0 0.01259729166666666 0
141 0 0.01282633333333333 0
142 0 0.013055375 0
143 0 0.01328441666666667 0
144 0 0.01351345833333333 0
145 0.01316989583333333 0 0
146 0.01259729166666667 0 0
147 0.0120246875 0 0
148 0.01145208333333333 0 0
149 0.01087947916666667 0 0
150 0.010306875 0 0
151 0.009734270833333333 0 0
152 0.009161666666666667 0 0
153 0.008589062500000001 0 0
154 0.008016458333333334 0 0
155 0.007443854166666667 0 0
156 0.003877993334054572 0.01318398551087752 0
157 0.004310111793905727 0.0130491088804575 0
158 0.004737553577597317 0.01290007334666725 0
159 0.005159854890477377 0.01273704062014472 0
160 0.0055765575155491 0.01256018759914727 0
161 0.005987209310658066 0.01236970617760864 0
162 0.006391364699087958 0.01216580303692495 0
163 0.006788585153032494 0.01194869942169552 0
164 0.007178439669418926 0.01171863089966199 0
165 0.007560505237566867 0.01147584710610611 0
166 0.007934367298174984 0.01122061147298361 0
167 0.008299620193137545 0.01095320094308798 0
168 0.008655867605702746 0.01067390566955441 0
169 0.009002722990495215 0.01038302870102981 0
170 0.009339809992936134 0.01008088565285066 0
171 0.009666762857605826 0.009767804364585343 0
172 0.009983226825105785 0.00944412454431263 0
173 0.01028885851698948 0.009110197400022292 0
174 0.0105833263083443 0.008766385258537719 0
175 0.01086631068762031 0.008413061172374094 0
176 0.01113750460331553 0.008050608514958691 0
177 0.01139661379714135 0.00767942056465248 0
178 0.0116433571233068 0.007299900078024416 0
179 0.01187746685357507 0.006912458852841409 0
180 0.01209868896776139 0.006517517281248187 0
181 0.01230678342935701 0.006115503893621826 0
182 0.01250152444598019 0.005706854893595932 0
183 0.01268270071437168 0.005292013684758944 0
184 0.01285011564966884 0.004871430389540218 0
185 0.01300358759870948 0.004445561360805729 0
186 0.01314295003713426 0.004014868686693559 0
187 0.01326805175007347 0.003579819689226299 0
188 0.01337875699622238 0.003140886417244441 0
189 0.01347494565512702 0.002698545134210944 0
190 0.01355651335752053 0.002253275801442748 0
191 0.01362337159856885 0.001805561557329924 0
192 0.01367544783390261 0.001355888193107565 0
193 0.01371268555833124 0.0009047436257491976 0
194 0.01373504436715381 0.0004526173685536796 0
195 0.002576718750000003 0.0137425 0
196 0.005153437500000004 0.0137425 0
197 0.007730156250000006 0.0137425 0
198 0.01030687500000001 0.0137425 0
199 0.01288359375000001 0.0137425 0
200 0.01546031250000001 0.0137425 0
201 0.01803703125000001 0.0137425 0
202 0.02061375 0.0154603125 0
203 0.02061375 0.017178125 0
204 0.02061375 0.0188959375 0
205 0.01803703125 0.02061375 0
206 0.0154603125 0.02061375 0
207 0.01288359374999999 0.02061375 0
208 0.01030687499999999 0.02061375 0
209 0.007730156249999993 0.02061375 0
210 0.005153437499999988 0.02061375 0
211 0.002576718749999995 0.02061375 0
212 0 0.0188959375 0
213 0 0.017178125 0
214 0 0.0154603125 0
215 0.006204166145833333 0.0002748499999999975 0
216 0.006109686458333333 0.0005496999999999993 0
217 0.006015206770833333 0.0008245500000000003 0
218 0.005920727083333334 0.001099399999999996 0
219 0.005826247395833334 0.00137425 0
220 0.005731767708333333 0.0016491 0
221 0.005637288020833334 0.001923949999999999 0
222 0.005542808333333333 0.002198799999999997 0
223 0.005448328645833333 0.002473650000000001 0
224 0.005353848958333333 0.0027485 0
225 0.005259369270833333 0.003023350000000001 0
226 0.005164889583333333 0.0032982 0
227 0.005070409895833333 0.003573050000000002 0
228 0.004975930208333333 0.003847900000000001 0
229 0.004881450520833333 0.004122750000000001 0
230 0.004786970833333333 0.004397600000000002 0
231 0.004692491145833333 0.004672450000000003 0
232 0.004598011458333332 0.004947300000000002 0
233 0.004503531770833333 0.005222150000000002 0
234 0.004409052083333333 0.005497000000000001 0
235 0.004314572395833333 0.005771850000000001 0
236 0.004220092708333333 0.0060467 0
237 0.004125613020833334 0.00632155 0
238 0.004031133333333333 0.006596400000000001 0
239 0.003936653645833333 0.006871250000000001 0
240 0.003842173958333333 0.007146100000000002 0
241 0.003747694270833333 0.007420950000000001 0
242 0.003653214583333333 0.007695800000000003 0
243 0.003558734895833333 0.007970650000000003 0
244 0.003464255208333333 0.008245500000000003 0
245 0.003369775520833333 0.008520350000000001 0
246 0.003275295833333333 0.008795200000000001 0
247 0.003180816145833333 0.009070050000000001 0
248 0.003086336458333334 0.009344900000000003 0
249 0.002991856770833333 0.00961975 0
250 0.002897377083333333 0.009894600000000002 0
251 0.002802897395833333 0.01016945 0
252 0.002708417708333334 0.0104443 0
253 0.002613938020833334 0.01071915 0
254 0.005640151041666666 0.0002748499999999984 0
255 0.005554260416666666 0.0005496999999999993 0
256 0.005468369791666666 0.0008245500000000003 0
257 0.005382479166666666 0.001099399999999996 0
258 0.005296588541666666 0.00137425 0
259 0.005210697916666666 0.001649100000000001 0
260 0.005124807291666666 0.001923949999999998 0
261 0.005038916666666666 0.0021988 0
262 0.004953026041666666 0.002473650000000001 0
263 0.004867135416666666 0.002748500000000001 0
264 0.004781244791666666 0.003023350000000002 0
265 0.004695354166666666 0.003298199999999999 0
266 0.004609463541666666 0.003573050000000002 0
267 0.004523572916666666 0.0038479 0
268 0.004437682291666667 0.004122750000000001 0
269 0.004351791666666665 0.004397600000000002 0
270 0.004265901041666666 0.004672450000000002 0
271 0.004180010416666666 0.004947300000000002 0
272 0.004094119791666666 0.005222150000000002 0
273 0.004008229166666667 0.005497000000000002 0
274 0.003922338541666666 0.005771850000000002 0
275 0.003836447916666667 0.006046700000000001 0
276 0.003750557291666667 0.006321550000000002 0
277 0.003664666666666667 0.006596400000000001 0
278 0.003578776041666667 0.006871250000000002 0
279 0.003492885416666667 0.007146100000000002 0
280 0.003406994791666667 0.007420950000000002 0
281 0.003321104166666667 0.007695800000000003 0
282 0.003235213541666667 0.007970650000000003 0
283 0.003149322916666667 0.008245500000000001 0
284 0.003063432291666668 0.008520350000000001 0
285 0.002977541666666667 0.008795200000000001 0
286 0.002891651041666667 0.009070050000000001 0
287 0.002805760416666667 0.009344900000000001 0
288 0.002719869791666667 0.00961975 0
289 0.002633979166666666 0.009894600000000002 0
290 0.002548088541666667 0.01016945 0
291 0.002462197916666667 0.0104443 0
292 0.002376307291666668 0.01071915 0
293 0.005076135937499998 0.0002748499999999984 0
294 0.004998834374999999 0.0005496999999999993 0
295 0.004921532812499999 0.0008245499999999994 0
296 0.004844231249999999 0.001099399999999995 0
297 0.004766929687499999 0.00137425 0
298 0.004689628124999998 0.0016491 0
299 0.004612326562499999 0.00192395 0
300 0.004535024999999998 0.0021988 0
301 0.004457723437499998 0.002473650000000001 0
302 0.004380421874999998 0.002748500000000001 0
303 0.004303120312499999 0.003023350000000002 0
304 0.004225818749999999 0.003298199999999999 0
305 0.004148517187499999 0.003573050000000001 0
306 0.004071215624999999 0.003847900000000001 0
307 0.003993914062499999 0.004122750000000001 0
308 0.0039166125 0.004397600000000002 0
309 0.003839310937499999 0.004672450000000002 0
310 0.003762009374999999 0.004947300000000002 0
311 0.003684707812499999 0.005222150000000003 0
312 0.003607406249999999 0.005497000000000002 0
313 0.0035301046875 0.005771850000000002 0
314 0.003452803124999999 0.006046700000000002 0
315 0.003375501562499999 0.006321550000000002 0
316 0.0032982 0.006596400000000002 0
317 0.0032208984375 0.006871250000000002 0
318 0.003143596875 0.007146100000000002 0
319 0.003066295312500001 0.007420950000000002 0
320 0.00298899375 0.007695800000000003 0
321 0.002911692187499999 0.007970650000000003 0
322 0.002834390625 0.008245500000000003 0
323 0.0027570890625 0.008520350000000001 0
324 0.0026797875 0.008795200000000003 0
325 0.002602485937500001 0.009070050000000001 0
326 0.002525184375000001 0.009344900000000003 0
327 0.002447882812500001 0.00961975 0
328 0.002370581250000001 0.009894600000000003 0
329 0.002293279687500001 0.01016945 0
330 0.002215978125000002 0.0104443 0
331 0.002138676562500001 0.01071915 0
332 0.004512120833333333 0.0002748499999999966 0
333 0.004443408333333333 0.0005496999999999993 0
334 0.004374695833333333 0.0008245500000000003 0
335 0.004305983333333333 0.001099399999999999 0
336 0.004237270833333332 0.00137425 0
337 0.004168558333333332 0.0016491 0
338 0.004099845833333332 0.001923950000000001 0
339 0.004031133333333333 0.002198799999999999 0
340 0.003962420833333332 0.002473650000000002 0
341 0.003893708333333333 0.002748500000000001 0
342 0.003824995833333333 0.003023350000000002 0
343 0.003756283333333333 0.003298200000000001 0
344 0.003687570833333332 0.003573050000000003 0
345 0.003618858333333332 0.003847900000000002 0
346 0.003550145833333332 0.004122750000000001 0
347 0.003481433333333332 0.004397600000000002 0
348 0.003412720833333333 0.004672450000000002 0
349 0.003344008333333333 0.004947300000000003 0
350 0.003275295833333333 0.005222150000000004 0
351 0.003206583333333333 0.005497000000000002 0
352 0.003137870833333333 0.005771850000000003 0
353 0.003069158333333333 0.006046700000000003 0
354 0.003000445833333333 0.006321550000000003 0
355 0.002931733333333333 0.006596400000000002 0
356 0.002863020833333334 0.006871250000000002 0
357 0.002794308333333333 0.007146100000000002 0
358 0.002725595833333333 0.007420950000000003 0
359 0.002656883333333334 0.007695800000000003 0
360 0.002588170833333334 0.007970650000000003 0
361 0.002519458333333334 0.008245500000000003 0
362 0.002450745833333334 0.008520350000000003 0
363 0.002382033333333334 0.008795200000000003 0
364 0.002313320833333334 0.009070050000000001 0
365 0.002244608333333334 0.009344900000000003 0
366 0.002175895833333333 0.00961975 0
367 0.002107183333333333 0.0098946 0
368 0.002038470833333334 0.01016945 0
369 0.001969758333333335 0.0104443 0
370 0.001901045833333334 0.01071915 0
371 0.003948105729166665 0.0002748499999999984 0
372 0.003887982291666665 0.0005497000000000002 0
373 0.003827858854166666 0.0008245500000000003 0
374 0.003767735416666666 0.001099399999999999 0
375 0.003707611979166666 0.00137425 0
376 0.003647488541666665 0.0016491 0
377 0.003587365104166666 0.001923950000000001 0
378 0.003527241666666666 0.002198799999999999 0
379 0.003467118229166666 0.002473650000000002 0
380 0.003406994791666667 0.002748500000000001 0
381 0.003346871354166666 0.003023350000000002 0
382 0.003286747916666667 0.003298200000000001 0
383 0.003226624479166666 0.003573050000000002 0
384 0.003166501041666667 0.003847900000000002 0
385 0.003106377604166666 0.004122750000000001 0
386 0.003046254166666666 0.004397600000000002 0
387 0.002986130729166665 0.004672450000000003 0
388 0.002926007291666667 0.004947300000000003 0
389 0.002865883854166667 0.005222150000000004 0
390 0.002805760416666667 0.005497000000000003 0
391 0.002745636979166667 0.005771850000000003 0
392 0.002685513541666667 0.006046700000000003 0
393 0.002625390104166667 0.006321550000000004 0
394 0.002565266666666667 0.006596400000000002 0
395 0.002505143229166667 0.006871250000000003 0
396 0.002445019791666667 0.007146100000000003 0
397 0.002384896354166667 0.007420950000000003 0
398 0.002324772916666668 0.007695800000000004 0
399 0.002264649479166668 0.007970650000000004 0
400 0.002204526041666668 0.008245500000000003 0
401 0.002144402604166668 0.008520350000000003 0
402 0.002084279166666668 0.008795200000000003 0
403 0.002024155729166668 0.009070050000000003 0
404 0.001964032291666668 0.009344900000000003 0
405 0.001903908854166669 0.00961975 0
406 0.001843785416666669 0.0098946 0
407 0.001783661979166669 0.01016945 0
408 0.001723538541666669 0.0104443 0
409 0.001663415104166669 0.01071915 0
410 0.003384090624999999 0.0002748499999999992 0
411 0.003332556249999999 0.0005496999999999993 0
412 0.003281021875 0.0008245500000000003 0
413 0.0032294875 0.0010994 0
414 0.003177953125 0.00137425 0
415 0.003126418749999999 0.0016491 0
416 0.003074884375 0.001923950000000002 0
417 0.003023349999999999 0.0021988 0
418 0.002971815625 0.002473650000000001 0
419 0.002920281249999999 0.002748500000000002 0
420 0.002868746874999999 0.003023350000000002 0
421 0.002817212499999999 0.003298200000000002 0
422 0.002765678125 0.003573050000000003 0
423 0.002714143749999999 0.003847900000000002 0
424 0.002662609375 0.004122750000000002 0
425 0.002611075 0.004397600000000002 0
426 0.002559540624999999 0.004672450000000003 0
427 0.00250800625 0.004947300000000003 0
428 0.002456471875000001 0.005222150000000004 0
429 0.002404937500000001 0.005497000000000004 0
430 0.002353403125 0.005771850000000004 0
431 0.002301868750000001 0.006046700000000004 0
432 0.002250334375 0.006321550000000004 0
433 0.002198799999999999 0.006596400000000003 0
434 0.002147265625000001 0.006871250000000003 0
435 0.002095731250000002 0.007146100000000003 0
436 0.002044196875 0.007420950000000003 0
437 0.001992662500000001 0.007695800000000004 0
438 0.001941128125 0.007970650000000003 0
439 0.001889593750000001 0.008245500000000003 0
440 0.001838059375 0.008520350000000003 0
441 0.001786525000000001 0.008795200000000003 0
442 0.001734990625000001 0.009070050000000003 0
443 0.001683456250000001 0.009344900000000001 0
444 0.001631921875000002 0.00961975 0
445 0.001580387500000001 0.009894600000000002 0
446 0.001528853125000002 0.01016945 0
447 0.001477318750000002 0.0104443 0
448 0.001425784375000001 0.01071915 0
449 0.002820075520833334 0.0002748499999999966 0
450 0.002777130208333334 0.0005497000000000002 0
451 0.002734184895833334 0.0008245499999999994 0
452 0.002691239583333334 0.0010994 0
453 0.002648294270833334 0.00137425 0
454 0.002605348958333334 0.0016491 0
455 0.002562403645833334 0.001923950000000001 0
456 0.002519458333333334 0.002198800000000002 0
457 0.002476513020833333 0.002473650000000002 0
458 0.002433567708333334 0.002748500000000002 0
459 0.002390622395833333 0.003023350000000002 0
460 0.002347677083333334 0.003298200000000001 0
461 0.002304731770833335 0.003573050000000003 0
462 0.002261786458333334 0.003847900000000002 0
463 0.002218841145833335 0.004122750000000003 0
464 0.002175895833333335 0.004397600000000003 0
465 0.002132950520833334 0.004672450000000003 0
466 0.002090005208333335 0.004947300000000003 0
467 0.002047059895833334 0.005222150000000004 0
468 0.002004114583333334 0.005497000000000004 0
469 0.001961169270833333 0.005771850000000004 0
470 0.001918223958333334 0.006046700000000004 0
471 0.001875278645833334 0.006321550000000004 0
472 0.001832333333333335 0.006596400000000004 0
473 0.001789388020833334 0.006871250000000004 0
474 0.001746442708333333 0.007146100000000004 0
475 0.001703497395833336 0.007420950000000003 0
476 0.001660552083333334 0.007695800000000004 0
477 0.001617606770833334 0.007970650000000004 0
478 0.001574661458333335 0.008245500000000003 0
479 0.001531716145833334 0.008520350000000003 0
480 0.001488770833333334 0.008795200000000003 0
481 0.001445825520833334 0.009070050000000003 0
482 0.001402880208333335 0.009344900000000003 0
483 0.001359934895833334 0.00961975 0
484 0.001316989583333334 0.009894600000000002 0
485 0.001274044270833337 0.01016945 0
486 0.001231098958333334 0.0104443 0
487 0.001188153645833335 0.01071915 0
488 0.002256060416666666 0.0002748499999999975 0
489 0.002221704166666666 0.0005497000000000002 0
490 0.002187347916666666 0.0008245500000000003 0
491 0.002152991666666666 0.001099399999999999 0
492 0.002118635416666666 0.00137425 0
493 0.002084279166666666 0.0016491 0
494 0.002049922916666666 0.00192395 0
495 0.002015566666666667 0.002198800000000002 0
496 0.001981210416666666 0.002473650000000001 0
497 0.001946854166666666 0.002748500000000002 0
498 0.001912497916666666 0.003023350000000002 0
499 0.001878141666666667 0.003298200000000002 0
500 0.001843785416666667 0.003573050000000003 0
501 0.001809429166666666 0.003847900000000002 0
502 0.001775072916666667 0.004122750000000003 0
503 0.001740716666666669 0.004397600000000003 0
504 0.001706360416666667 0.004672450000000004 0
505 0.001672004166666667 0.004947300000000003 0
506 0.001637647916666667 0.005222150000000004 0
507 0.001603291666666669 0.005497000000000004 0
508 0.001568935416666667 0.005771850000000005 0
509 0.001534579166666669 0.006046700000000005 0
510 0.001500222916666667 0.006321550000000006 0
511 0.001465866666666667 0.006596400000000004 0
512 0.001431510416666667 0.006871250000000004 0
513 0.001397154166666667 0.007146100000000004 0
514 0.001362797916666667 0.007420950000000004 0
515 0.001328441666666669 0.007695800000000004 0
516 0.001294085416666667 0.007970650000000004 0
517 0.001259729166666667 0.008245500000000005 0
518 0.001225372916666667 0.008520350000000003 0
519 0.001191016666666669 0.008795200000000003 0
520 0.001156660416666667 0.009070050000000001 0
521 0.001122304166666668 0.009344900000000003 0
522 0.001087947916666668 0.009619750000000002 0
523 0.001053591666666668 0.009894600000000002 0
524 0.001019235416666667 0.01016945 0
525 0.0009848791666666676 0.0104443 0
526 0.0009505229166666684 0.01071915 0
527 0.001692045312499999 0.0002748500000000001 0
528 0.001666278125 0.0005497000000000011 0
529 0.001640510937499999 0.0008245500000000003 0
530 0.001614743750000001 0.001099399999999999 0
531 0.001588976562500001 0.00137425 0
532 0.001563209375000001 0.0016491 0
533 0.0015374421875 0.001923950000000002 0
534 0.001511675 0.002198800000000002 0
535 0.001485907812500001 0.002473650000000002 0
536 0.001460140625 0.002748500000000003 0
537 0.001434373437500001 0.003023350000000002 0
538 0.00140860625 0.003298200000000003 0
539 0.001382839062499999 0.003573050000000003 0
540 0.001357071875 0.003847900000000003 0
541 0.0013313046875 0.004122750000000003 0
542 0.0013055375 0.004397600000000003 0
543 0.001279770312499999 0.004672450000000005 0
544 0.001254003124999999 0.004947300000000004 0
545 0.001228235937500001 0.005222150000000004 0
546 0.00120246875 0.005497000000000004 0
547 0.001176701562499999 0.005771850000000005 0
548 0.001150934375000001 0.006046700000000006 0
549 0.001125167187500001 0.006321550000000006 0
550 0.0010994 0.006596400000000004 0
551 0.001073632812499999 0.006871250000000004 0
552 0.001047865625000001 0.007146100000000005 0
553 0.001022098437500001 0.007420950000000004 0
554 0.0009963312499999977 0.007695800000000005 0
555 0.0009705640625000001 0.007970650000000006 0
556 0.0009447968750000008 0.008245500000000005 0
557 0.0009190296875000005 0.008520350000000003 0
558 0.0008932625000000003 0.008795200000000003 0
559 0.0008674953124999992 0.009070050000000003 0
560 0.000841728124999999 0.009344900000000003 0
561 0.0008159609375000005 0.00961975 0
562 0.0007901937500000003 0.009894600000000002 0
563 0.0007644265625 0.01016945 0
564 0.0007386593750000007 0.0104443 0
565 0.0007128921875000005 0.01071915 0
566 0.001128030208333333 0.0002748500000000001 0
567 0.001110852083333334 0.0005496999999999993 0
568 0.001093673958333334 0.0008245500000000003 0
569 0.001076495833333332 0.0010994 0
570 0.001059317708333334 0.00137425 0
571 0.001042139583333334 0.001649100000000001 0
572 0.001024961458333333 0.001923950000000001 0
573 0.001007783333333332 0.002198800000000002 0
574 0.0009906052083333335 0.002473650000000002 0
575 0.000973427083333334 0.002748500000000002 0
576 0.0009562489583333335 0.003023350000000003 0
577 0.0009390708333333322 0.003298200000000002 0
578 0.0009218927083333335 0.003573050000000003 0
579 0.0009047145833333348 0.003847900000000003 0
580 0.0008875364583333326 0.004122750000000003 0
581 0.0008703583333333331 0.004397600000000004 0
582 0.0008531802083333335 0.004672450000000004 0
583 0.0008360020833333348 0.004947300000000004 0
584 0.0008188239583333317 0.005222150000000005 0
585 0.0008016458333333322 0.005497000000000005 0
586 0.0007844677083333335 0.005771850000000005 0
587 0.0007672895833333339 0.006046700000000006 0
588 0.0007501114583333334 0.006321550000000007 0
589 0.0007329333333333347 0.006596400000000005 0
590 0.0007157552083333334 0.006871250000000006 0
591 0.0006985770833333339 0.007146100000000005 0
592 0.0006813989583333334 0.007420950000000005 0
593 0.0006642208333333321 0.007695800000000005 0
594 0.0006470427083333334 0.007970650000000006 0
595 0.0006298645833333338 0.008245500000000006 0
596 0.0006126864583333334 0.008520350000000003 0
597 0.000595508333333333 0.008795200000000003 0
598 0.0005783302083333325 0.009070050000000003 0
599 0.0005611520833333347 0.009344900000000003 0
600 0.0005439739583333325 0.009619750000000002 0
601 0.0005267958333333338 0.009894600000000002 0
602 0.0005096177083333334 0.01016945 0
603 0.0004924395833333338 0.0104443 0
604 0.0004752614583333334 0.01071915 0
605 0.0005640151041666677 0.0002748499999999992 0
606 0.0005554260416666661 0.0005497000000000002 0
607 0.0005468369791666655 0.0008245499999999994 0
608 0.0005382479166666657 0.0010994 0
609 0.0005296588541666676 0.00137425 0
610 0.0005210697916666661 0.001649100000000001 0
611 0.0005124807291666672 0.001923950000000002 0
612 0.0005038916666666683 0.002198800000000002 0
613 0.0004953026041666676 0.002473650000000001 0
614 0.0004867135416666678 0.002748500000000003 0
615 0.0004781244791666672 0.003023350000000003 0
616 0.0004695354166666674 0.003298200000000003 0
617 0.0004609463541666659 0.003573050000000003 0
618 0.0004523572916666661 0.003847900000000003 0
619 0.0004437682291666663 0.004122750000000004 0
620 0.0004351791666666665 0.004397600000000004 0
621 0.0004265901041666641 0.004672450000000004 0
622 0.000418001041666667 0.004947300000000005 0
623 0.0004094119791666654 0.005222150000000004 0
624 0.0004008229166666656 0.005497000000000005 0
625 0.0003922338541666667 0.005771850000000007 0
626 0.0003836447916666669 0.006046700000000007 0
627 0.0003750557291666672 0.006321550000000007 0
628 0.0003664666666666674 0.006596400000000006 0
629 0.0003578776041666658 0.006871250000000006 0
630 0.0003492885416666669 0.007146100000000006 0
631 0.0003406994791666671 0.007420950000000004 0
632 0.0003321104166666656 0.007695800000000006 0
633 0.0003235213541666667 0.007970650000000006 0
634 0.0003149322916666678 0.008245500000000005 0
635 0.0003063432291666671 0.008520350000000005 0
636 0.0002977541666666656 0.008795200000000003 0
637 0.0002891651041666641 0.009070050000000003 0
638 0.0002805760416666652 0.009344900000000003 0
639 0.0002719869791666654 0.009619750000000003 0
640 0.0002633979166666656 0.009894600000000002 0
641 0.0002548088541666658 0.01016945 0
642 0.000246219791666666 0.0104443 0
643 0.000237630729166668 0.01071915 0
644 0.0002341107014355954 0.0112227868791658 0
645 0.0002391797362045226 0.01145157375833159 0
646 0.0002442487709734516 0.01168036063749739 0
647 0.0002493178057423797 0.01190914751666319 0
648 0.0002543868405113087 0.01213793439582898 0
649 0.0002594558752802385 0.01236672127499477 0
650 0.0002645249100491666 0.01259550815416057 0
651 0.0002695939448180938 0.01282429503332637 0
652 0.0002746629795870228 0.01305308191249216 0
653 0.00027973201435595 0.01328186879165796 0
654 0.0002848010491248781 0.01351065567082376 0
655 0.0004682106544230558 0.01122202263003412 0
656 0.0004783379755127787 0.01145004526006824 0
657 0.0004884652966025008 0.01167806789010236 0
658 0.0004985926176922211 0.01190609052013648 0
659 0.000508719938781944 0.0121341131501706 0
660 0.0005188472598716652 0.01236213578020472 0
661 0.0005289745809613881 0.01259015841023884 0
662 0.0005391019020511111 0.01281818104027296 0
663 0.0005492292231408314 0.01304620367030708 0
664 0.0005593565442305543 0.0132742263003412 0
665 0.0005694838653202772 0.01350224893037532 0
666 0.0007022891152969023 0.011220749259334 0
667 0.0007174532305938026 0.011447498518668 0
668 0.0007326173458907055 0.01167424777800201 0
669 0.0007477814611876066 0.01190099703733602 0
670 0.0007629455764845069 0.01212774629667002 0
671 0.0007781096917814125 0.01235449555600402 0
672 0.0007932738070783128 0.01258124481533802 0
673 0.0008084379223752148 0.01280799407467203 0
674 0.0008236020376721177 0.01303474333400603 0
675 0.0008387661529690171 0.01326149259334004 0
676 0.0008539302682659183 0.01348824185267404 0
677 0.0009363353499548498 0.01121896733366792 0
678 0.0009565040332430302 0.01144393466733584 0
679 0.0009766727165312116 0.01166890200100376 0
680 0.0009968413998193947 0.01189386933467168 0
681 0.001017010083107577 0.0121188366683396 0
682 0.001037178766395757 0.01234380400200753 0
683 0.00105734744968394 0.01256877133567544 0
684 0.00107751613297212 0.01279373866934336 0
685 0.001097684816260301 0.01301870600301129 0
686 0.001117853499548484 0.01324367333667921 0
687 0.001138022182836666 0.01346864067034713 0
688 0.00117033863863407 0.01121667764592634 0
689 0.001195468943934807 0.01143935529185269 0
690 0.001220599249235544 0.01166203293777903 0
691 0.001245729554536279 0.01188471058370537 0
692 0.001270859859837015 0.01210738822963171 0
693 0.001295990165137751 0.01233006587555806 0
694 0.001321120470438487 0.0125527435214844 0
695 0.001346250775739223 0.01277542116741074 0
696 0.001371381081039958 0.01299809881333709 0
697 0.001396511386340696 0.01322077645926343 0
698 0.001421641691641431 0.01344345410518977 0
699 0.001404288280681103 0.01121388121493493 0
700 0.001434326561362205 0.01143376242986986 0
701 0.001464364842043308 0.01165364364480479 0
702 0.001494403122724409 0.01187352485973971 0
703 0.001524441403405512 0.01209340607467464 0
704 0.001554479684086616 0.01231328728960957 0
705 0.001584517964767718 0.0125331685045445 0
706 0.001614556245448819 0.01275304971947943 0
707 0.00164459452612992 0.01297293093441436 0
708 0.001674632806811021 0.01319281214934929 0
709 0.001704671087492125 0.01341269336428421 0
710 0.001638173599313232 0.01121057928500119 0
711 0.001673055531959797 0.01142715857000237 0
712 0.00170793746460636 0.01164373785500356 0
713 0.001742819397252925 0.01186031714000475 0
714 0.001777701329899488 0.01207689642500593 0
715 0.001812583262546052 0.01229347571000712 0
716 0.001847465195192616 0.0125100549950083 0
717 0.001882347127839181 0.01272663428000949 0
718 0.001917229060485744 0.01294321356501068 0
719 0.001952110993132308 0.01315979285001187 0
720 0.001986992925778872 0.01337637213501305 0
721 0.001871983946369262 0.0112067733253608 0
722 0.001911634559405194 0.01141954665072161 0
723 0.001951285172441123 0.01163231997608241 0
724 0.001990935785477054 0.01184509330144321 0
725 0.002030586398512983 0.01205786662680402 0
726 0.002070237011548913 0.01227063995216482 0
727 0.002109887624584842 0.01248341327752562 0
728 0.002149538237620771 0.01269618660288642 0
729 0.0021891888506567 0.01290895992824722 0
730 0.002228839463692631 0.01312173325360803 0
731 0.002268490076728559 0.01333450657896883 0
732 0.002105708707047562 0.01120246502952389 0
733 0.002150042414095127 0.01141093005904777 0
734 0.002194376121142689 0.01161939508857166 0
735 0.002238709828190252 0.01182786011809555 0
736 0.002283043535237813 0.01203632514761943 0
737 0.002327377242285376 0.01224479017714332 0
738 0.002371710949332938 0.01245325520666721 0
739 0.0024160446563805 0.0126617202361911 0
740 0.002460378363428064 0.01287018526571498 0
741 0.002504712070475626 0.01307865029523887 0
742 0.002549045777523188 0.01328711532476276 0
743 0.002339337304629237 0.01119765631452143 0
744 0.002388257942591806 0.01140131262904285 0
745 0.002437178580554377 0.01160496894356427 0
746 0.002486099218516945 0.01180862525808569 0
747 0.002535019856479516 0.01201228157260712 0
748 0.002583940494442084 0.01221593788712854 0
749 0.002632861132404654 0.01241959420164996 0
750 0.002681781770367224 0.01262325051617139 0
751 0.002730702408329793 0.01282690683069281 0
752 0.002779623046292362 0.01303056314521423 0
753 0.002828543684254932 0.01323421945973566 0
754 0.002572859205184388 0.01119234932005226 0
755 0.002626260077035441 0.01139069864010453 0
756 0.002679660948886495 0.01158904796015679 0
757 0.002733061820737549 0.01178739728020906 0
758 0.002786462692588602 0.01198574660026132 0
759 0.002839863564439655 0.01218409592031358 0
760 0.00289326443629071 0.01238244524036585 0
761 0.002946665308141764 0.01258079456041811 0
762 0.003000066179992817 0.01277914388047038 0
763 0.00305346705184387 0.01297749320052264 0
764 0.003106867923694924 0.01317584252057491 0
765 0.01315447244072432 0.0004378034211742054 0
766 0.0131253878034703 0.0008751566569367647 0
767 0.01308266416024405 0.0013116100103486 0
768 0.01302633854868811 0.001746714760885763 0
769 0.01295646276522715 0.002180023651322518 0
770 0.01287310330886643 0.002611091373026699 0
771 0.01277634130903718 0.003039475049140739 0
772 0.01266627243756735 0.003464734715124106 0
773 0.01254300680487307 0.003886433796135761 0
774 0.01240666884048369 0.004304139580738584 0
775 0.01225739715802977 0.004717423690411867 0
776 0.01209534440484071 0.005125862544362365 0
777 0.01192067709631517 0.005529037819129603 0
778 0.01173357543524393 0.005926536902486674 0
779 0.01153423311628128 0.006317953341144171 0
780 0.01132285711577714 0.006702887281771291 0
781 0.0110996674671979 0.007080945904855714 0
782 0.01086489702237957 0.00745174385093144 0
783 0.01061879119887257 0.007814903638712133 0
784 0.01036160771365196 0.008170056074676253 0
785 0.01009361630348227 0.008516840653659576 0
786 0.009815098432240359 0.008854905950020432 0
787 0.009526346985513637 0.009183909998953244 0
788 0.009227665952805339 0.009503520667536566 0
789 0.008919370097691455 0.009813416015113107 0
790 0.008601784616287279 0.01011328464261066 0
791 0.008275244784394183 0.01040282603042488 0
792 0.007940095593709416 0.01068175086449732 0
793 0.007596691377493735 0.01094978135023497 0
794 0.007245395426102961 0.0112066515139306 0
795 0.006886579592800682 0.01145210749135682 0
796 0.006520623890279785 0.01168590780322089 0
797 0.006147916078330628 0.0119078236171812 0
798 0.005768851243103227 0.01211763899614125 0
799 0.005383831368420008 0.01231515113255166 0
800 0.004993264899604262 0.012500170568466 0
801 0.00459756630029754 0.01267252140111165 0
802 0.004197155602746917 0.01283204147375271 0
803 0.003792457952050025 0.01297858255163772 0
804 0.01257390051429484 0.000422989473794733 0
805 0.01253809004860937 0.0008455696881243301 0
806 0.01248988048658551 0.001267331827589637 0
807 0.01242930549880737 0.001687867964441604 0
808 0.01235641217293378 0.00210677150120229 0
809 0.01227126096260585 0.002523637611842453 0
810 0.01217392562185199 0.002938063681037034 0
811 0.01206449312506123 0.003349649741021916 0
812 0.01194306357261189 0.003757998905577967 0
813 0.0118097500822579 0.00416271780067144 0
814 0.0116646786663907 0.004563416991283515 0
815 0.01150798809530974 0.004959711403965786 0
816 0.01133982974665015 0.005351220744663277 0
817 0.01116036744113084 0.005737569911351522 0
818 0.01096977726480116 0.006118389401040156 0
819 0.01076824737797922 0.006493315710701175 0
820 0.010555977811089 0.006861991731687014 0
821 0.01033318024761779 0.007224067137210401 0
822 0.01010007779442961 0.007579198762465576 0
823 0.009856904739683597 0.007927050976978413 0
824 0.009603906298620249 0.008267296048781434 0
825 0.009341338347491238 0.008599614500018577 0
826 0.00906946714592149 0.008923695453593859 0
827 0.008788569048004857 0.009239236970487785 0
828 0.00849893020244678 0.009545946377375554 0
829 0.008200846242079346 0.009843540584191512 0
830 0.007894621963085621 0.01013174639129534 0
831 0.007580570994281288 0.01041030078590665 0
832 0.007259015456812488 0.01067895122748634 0
833 0.006930285614639056 0.01093745592175509 0
834 0.006594719516182439 0.01118558408305165 0
835 0.006252662627527079 0.01142311618474627 0
836 0.005904467457573299 0.01164984419743746 0
837 0.005550493175548388 0.01186557181467387 0
838 0.005191105221290918 0.01207011466595606 0
839 0.004826674908731148 0.01226330051678727 0
840 0.004457579022997765 0.01244496945555604 0
841 0.004084199411588106 0.01261497406704792 0
842 0.003706922570045477 0.01277317959239793 0
843 0.01199332858786535 0.0004081755264152579 0
844 0.01195079229374843 0.0008159827193118981 0
845 0.01189709681292695 0.001223053644830672 0
846 0.01183227244892664 0.001629021167997443 0
847 0.0117563615806404 0.002033519351082059 0
848 0.01166941861634526 0.002436183850658207 0
849 0.01157150993466679 0.002836652312933331 0
850 0.0114627138125551 0.003234564766919724 0
851 0.0113431203403507 0.00362956401502017 0
852 0.01121283132403211 0.004021296020604297 0
853 0.01107196017475163 0.004409410292155164 0
854 0.01092063178577877 0.004793560263569208 0
855 0.01075898239698514 0.005173403670196948 0
856 0.01058715944701775 0.00554860292021637 0
857 0.01040532141332104 0.005918825460936141 0
858 0.0102136376401813 0.006283744139631058 0
859 0.0100122881549801 0.006643037558518312 0
860 0.009801463472856011 0.006996390423489361 0
861 0.009581364389986647 0.00734349388621902 0
862 0.009352201765715235 0.007684045879280571 0
863 0.009114196293758224 0.008017751443903289 0
864 0.008867578262742114 0.008344323050016719 0
865 0.008612587306329338 0.008663480908234473 0
866 0.008349472143204369 0.008974953273439007 0
867 0.008078490307202101 0.009278476739637997 0
868 0.007799907867871411 0.00957379652577236 0
869 0.007513999141777059 0.009860666752165809 0
870 0.007221046394853159 0.01013885070731599 0
871 0.006921339536131238 0.01040812110473771 0
872 0.006615175803175151 0.01066826032957958 0
873 0.006302859439564194 0.01091906067474649 0
874 0.00598470136477437 0.01116032456627164 0
875 0.005661018836815968 0.01139186477769371 0
876 0.00533213510799355 0.01161350463320648 0
877 0.004998379074161826 0.01182507819936045 0
878 0.004660084917858033 0.01202643046510854 0
879 0.004317591745697988 0.01221741751000044 0
880 0.003971243220429296 0.01239790666034312 0
881 0.003621387188040929 0.01256777663315814 0
882 0.01141275666143587 0.0003933615790357847 0
883 0.01136349453888749 0.0007863957504994643 0
884 0.0113043131392684 0.001178775462071709 0
885 0.0112352393990459 0.001570174371553279 0
886 0.01115631098834702 0.001960267200961831 0
887 0.01106757627008468 0.002348730089473962 0
888 0.01096909424748159 0.002735240944829628 0
889 0.01086093450004898 0.003119479792817534 0
890 0.01074317710808951 0.003501129124462374 0
891 0.01061591256580632 0.003879874240537153 0
892 0.01047924168311256 0.004255403593026813 0
893 0.01033327547624779 0.004627409123172629 0
894 0.01017813504732012 0.004995586595730622 0
895 0.01001395145290467 0.005359635929081218 0
896 0.009840865561840929 0.005719261520832125 0
897 0.009659027902383379 0.006074172568560941 0
898 0.009468598498871198 0.006424083385349612 0
899 0.009269746698094232 0.006768713709768321 0
900 0.009062650985543687 0.007107789009972462 0
901 0.008847498791746875 0.00744104078158273 0
902 0.008624486288896199 0.007768206839025146 0
903 0.008393818177992989 0.008089031600014861 0
904 0.00815570746673719 0.008403266362875087 0
905 0.007910375238403884 0.008710669576390228 0
906 0.007658050411957423 0.009011007101900443 0
907 0.007398969493663476 0.00930405246735321 0
908 0.007133376320468498 0.009589587113036275 0
909 0.006861521795425029 0.00986740062872532 0
910 0.006583663615449989 0.01013729098198907 0
911 0.006300065991711244 0.01039906473740407 0
912 0.006010999362945951 0.01065253726644133 0
913 0.005716740102021662 0.01089753294779701 0
914 0.005417570216058639 0.01113388535794996 0
915 0.00511377704043871 0.01136143745173909 0
916 0.004805652927032734 0.01158004173276485 0
917 0.004493494926984918 0.01178956041342982 0
918 0.004177604468398211 0.01198986556444484 0
919 0.003858287029270485 0.01218083925363833 0
920 0.003535851806036383 0.01236237367391834 0
921 0.01083218473500639 0.0003785476316563114 0
922 0.01077619678402656 0.0007568087816870323 0
923 0.01071152946560985 0.001134497279312744 0
924 0.01063820634916516 0.001511327575109122 0
925 0.01055626039605364 0.001887015050841604 0
926 0.01046573392382409 0.002261276328289717 0
927 0.01036667856029639 0.002633829576725924 0
928 0.01025915518754286 0.00300439481871534 0
929 0.01014323387582832 0.003372694233904576 0
930 0.01001899380758053 0.003738452460470008 0
931 0.009886523191473489 0.004101396893898462 0
932 0.009745919166716814 0.004461257982776051 0
933 0.009597287697655107 0.004817769521264294 0
934 0.009440743458791589 0.005170668937946066 0
935 0.009276409710360811 0.00551969758072811 0
936 0.009104418164585456 0.005864600997490824 0
937 0.008924908842762298 0.00620512921218091 0
938 0.008738029923332453 0.006541036996047281 0
939 0.008543937581100726 0.006872084133725904 0
940 0.008342795817778515 0.007198035683884888 0
941 0.008134776284034174 0.007518662234147004 0
942 0.007920058093243865 0.007833740150013004 0
943 0.007698827627145041 0.008143051817515701 0
944 0.007471278333603397 0.008446385879341451 0
945 0.007237610516712744 0.008743537464162888 0
946 0.006998031119455541 0.009034308408934058 0
947 0.006752753499159935 0.00931850747390674 0
948 0.006501997195996901 0.009595950550134659 0
949 0.006245987694768741 0.00986646085924044 0
950 0.005984956180247339 0.01012986914522856 0
951 0.005719139286327706 0.01038601385813616 0
952 0.005448778839268955 0.01063474132932238 0
953 0.005174121595301309 0.01087590593820622 0
954 0.004895418972883871 0.01110937027027171 0
955 0.004612926779903641 0.01133500526616924 0
956 0.004326904936111803 0.01155269036175109 0
957 0.004037617191098434 0.01176231361888923 0
958 0.003745330838111675 0.01196377184693354 0
959 0.003450316424031834 0.01215697071467855 0
960 0.0102516128085769 0.0003637336842768389 0
961 0.01018889902916562 0.0007272218128745993 0
962 0.0101187457919513 0.001090219096553781 0
963 0.01004117329928442 0.00145248077866496 0
964 0.009956209803760266 0.001813762900721373 0
965 0.009863891577563509 0.002173822567105472 0
966 0.009764262873111192 0.00253241820862222 0
967 0.009657375875036737 0.002889309844613149 0
968 0.009543290643567133 0.00324425934334678 0
969 0.009422075049354741 0.003597030680402864 0
970 0.009293804699834421 0.00394739019477011 0
971 0.009158562857185843 0.004295106842379473 0
972 0.009016440347990092 0.004639952446797967 0
973 0.008867535464678507 0.004981701946810913 0
974 0.008711953858880697 0.005320133640624095 0
975 0.008549808426787535 0.005655029426420705 0
976 0.0083812191866534 0.005986175039012209 0
977 0.008206313148570675 0.006313360282326241 0
978 0.008025224176657766 0.006636379257479346 0
979 0.007838092843810157 0.006955030586187049 0
980 0.00764506627917215 0.00726911762926886 0
981 0.007446298008494743 0.007578448700011147 0
982 0.007241947787552894 0.007882837272156315 0
983 0.007032181428802914 0.008182102182292672 0
984 0.006817170621468067 0.008476067826425333 0
985 0.006597092745247608 0.008764564350514908 0
986 0.006372130677851373 0.009047427834777206 0
987 0.006142472596568773 0.009324500471543991 0
988 0.005908311774087493 0.009595630736491806 0
989 0.005669846368783434 0.009860673553053055 0
990 0.005427279209709463 0.01011949044983099 0
991 0.005180817576516247 0.01037194971084776 0
992 0.00493067297454398 0.01061792651846248 0
993 0.004677060905329033 0.01085730308880432 0
994 0.004420200632774551 0.01108996879957364 0
995 0.004160314945238689 0.01131582031007236 0
996 0.003897629913798658 0.01153476167333363 0
997 0.003632374646952864 0.01174670444022875 0
998 0.003364781042027286 0.01195156775543876 0
999 0.009671040882147422 0.0003489197368973639 0
1000 0.009601601274304684 0.0006976348440621638 0
1001 0.009525962118292755 0.001045940913794819 0
1002 0.009444140249403685 0.001393633982220801 0
1003 0.009356159211466888 0.001740510750601144 0
1004 0.009262049231302924 0.002086368805921226 0
1005 0.009161847185925994 0.002431006840518515 0
1006 0.009055596562530613 0.002774224870510958 0
1007 0.008943347411305943 0.003115824452788985 0
1008 0.008825156291128951 0.00345560890033572 0
1009 0.00870108620819535 0.003793383495641759 0
1010 0.008571206547654869 0.004128955701982893 0
1011 0.008435592998325078 0.004462135372331638 0
1012 0.008294327470565422 0.004792734955675761 0
1013 0.008147498007400581 0.005120569700520079 0
1014 0.00799519868898961 0.005445457855350589 0
1015 0.0078375295305445 0.005767220865843508 0
1016 0.007674596373808896 0.006085683568605202 0
1017 0.007506510772214805 0.006400674381232789 0
1018 0.007333389869841798 0.006712025488489206 0
1019 0.007155356274310125 0.007019573024390716 0
1020 0.006972537923745619 0.007323157250009289 0
1021 0.006785067947960744 0.007622622726796929 0
1022 0.006593084524002427 0.007917818485243894 0
1023 0.006396730726223389 0.008208598188687778 0
1024 0.006196154371039674 0.008494820292095757 0
1025 0.005991507856542812 0.008776348195647671 0
1026 0.005782947997140644 0.009053050392953326 0
1027 0.005570635853406243 0.009324800613743172 0
1028 0.005354736557319528 0.009591477960877545 0
1029 0.005135419133091219 0.009852967041525829 0
1030 0.004912856313763539 0.01010915809237313 0
1031 0.00468722435378665 0.01035994709871873 0
1032 0.004458702837774194 0.01060523590733694 0
1033 0.004227474485645459 0.01084493233297803 0
1034 0.003993724954365573 0.01107895025839364 0
1035 0.003757642636498882 0.01130720972777802 0
1036 0.003519418455794053 0.01152963703352396 0
1037 0.00327924566002274 0.01174616479619897 0
1038 0.009090468955717936 0.0003341057895178915 0
1039 0.009014303519443746 0.0006680478752497344 0
1040 0.008933178444634203 0.001001662731035854 0
1041 0.00884710719952295 0.00133478718577664 0
1042 0.008756108619173511 0.001667258600480915 0
1043 0.008660206885042338 0.001998915044736981 0
1044 0.008559431498740794 0.002329595472414812 0
1045 0.008453817250024491 0.002659139896408766 0
1046 0.008343404179044755 0.002987389562231187 0
1047 0.008228237532903162 0.003314187120268576 0
1048 0.00810836771655628 0.003639376796513407 0
1049 0.007983850238123896 0.003962804561586314 0
1050 0.007854745648660063 0.004284318297865311 0
1051 0.007721119476452336 0.004603767964540609 0
1052 0.007583042155920464 0.004921005760416063 0
1053 0.007440588951191689 0.005235886284280472 0
1054 0.0072938398744356 0.005548266692674807 0
1055 0.007142879599047117 0.005858006854884162 0
1056 0.006987797367771844 0.006164969504986233 0
1057 0.006828686895873438 0.006469020390791366 0
1058 0.0066656462694481 0.006770028419512574 0
1059 0.006498777838996495 0.007067865800007431 0
1060 0.006328188108368596 0.007362408181437545 0
1061 0.006153987619201943 0.007653534788195115 0
1062 0.005976290830978712 0.007941128550950222 0
1063 0.005795215996831739 0.008225076233676605 0
1064 0.005610885035234249 0.008505268556518137 0
1065 0.005423423397712516 0.008781600314362663 0
1066 0.005232959932724995 0.009053970490994538 0
1067 0.005039626745855622 0.009322282368702039 0
1068 0.004843559056472975 0.009586443633220663 0
1069 0.004644895051010831 0.009846366473898506 0
1070 0.00444377573302932 0.01010196767897498 0
1071 0.004240344770219355 0.01035316872586955 0
1072 0.004034748338516367 0.01059989586638243 0
1073 0.00382713496349246 0.01084208020671491 0
1074 0.003617655359199106 0.01107965778222242 0
1075 0.003406462264635243 0.01131256962681917 0
1076 0.003193710278018192 0.01154076183695917 0
1077 0.008509897029288453 0.0003192918421384174 0
1078 0.00842700576458281 0.0006384609064372998 0
1079 0.008340394770975652 0.0009573845482768913 0
1080 0.008250074149642213 0.001275940389332477 0
1081 0.008156058026880134 0.001594006450360688 0
1082 0.008058364538781755 0.001911461283552737 0
1083 0.007957015811555595 0.00222818410431111 0
1084 0.007852037937518368 0.002544054922306575 0
1085 0.007743460946783566 0.002858954671673391 0
1086 0.007631318774677372 0.003172765340201431 0
1087 0.007515649224917211 0.003485370097385056 0
1088 0.007396493928592922 0.003796653421189737 0
1089 0.007273898298995047 0.004106501223398984 0
1090 0.007147911482339253 0.004414800973405457 0
1091 0.00701858630444035 0.004721441820312048 0
1092 0.006885979213393767 0.005026314713210354 0
1093 0.0067501502183267 0.005329312519506107 0
1094 0.006611162824285337 0.005630330141163121 0
1095 0.006469083963328883 0.005929264628739675 0
1096 0.006323983921905078 0.006226015293093525 0
1097 0.006175936264586075 0.006520483814634431 0
1098 0.006025017754247372 0.006812574350005574 0
1099 0.005871308268776448 0.007102193636078159 0
1100 0.005714890714401458 0.007389251091146337 0
1101 0.005555850935734034 0.007673658913212667 0
1102 0.005394277622623804 0.007955332175257453 0
1103 0.005230262213925687 0.008234188917388604 0
1104 0.005063898798284386 0.008510150235771998 0
1105 0.004895284012043746 0.008783140368245903 0
1106 0.004724516934391717 0.009053086776526529 0
1107 0.004551698979854732 0.009319920224915498 0
1108 0.004376933788258124 0.009583574855423882 0
1109 0.00420032711227199 0.009843988259231242 0
1110 0.004021986702664517 0.01010110154440216 0
1111 0.003842022191387275 0.01035485939978682 0
1112 0.003660544972619345 0.01060521015503618 0
1113 0.003477668081899329 0.01085210583666681 0
1114 0.003293506073476432 0.01109550222011438 0
1115 0.003108174896013643 0.01133535887771938 0
1116 0.007929325102858969 0.0003044778947589449 0
1117 0.007839708009721873 0.0006088739376248677 0
1118 0.007747611097317102 0.0009131063655179288 0
1119 0.007653041099761476 0.001217093592888318 0
1120 0.007556007434586755 0.001520754300240455 0
1121 0.007456522192521169 0.00182400752236849 0
1122 0.007354600124370398 0.002126772736207406 0
1123 0.007250258625012246 0.002428969948204382 0
1124 0.007143517714522377 0.002730519781115593 0
1125 0.007034400016451581 0.003031343560134288 0
1126 0.00692293073327814 0.003331363398256704 0
1127 0.006809137619061947 0.003630502280793157 0
1128 0.006693050949330031 0.003928684148932656 0
1129 0.006574703488226168 0.004225833982270304 0
1130 0.006454130452960232 0.004521877880208032 0
1131 0.006331369475595845 0.004816743142140236 0
1132 0.006206460562217799 0.005110358346337405 0
1133 0.006079446049523558 0.005402653427442082 0
1134 0.005950370558885922 0.005693559752493117 0
1135 0.005819280947936719 0.005983010195395684 0
1136 0.00568622625972405 0.006270939209756287 0
1137 0.005551257669498247 0.006557282900003715 0
1138 0.005414428429184298 0.006841979090718773 0
1139 0.005275793809600971 0.007124967394097558 0
1140 0.005135411040489356 0.007406189275475112 0
1141 0.00499333924841587 0.007685588116838303 0
1142 0.004849639392617124 0.007963109278259068 0
1143 0.004704374198856257 0.008238700157181332 0
1144 0.004557608091362497 0.00851231024549727 0
1145 0.004409407122927811 0.008783891184351019 0
1146 0.004259838903236488 0.009053396816610333 0
1147 0.004108972525505416 0.009320783236949255 0
1148 0.003956878491514659 0.009586008839487493 0
1149 0.003803628635109677 0.009849034362934774 0
1150 0.003649296044258184 0.01010982293319121 0
1151 0.00349395498174623 0.01036834010335745 0
1152 0.003337680804599552 0.01062455389111121 0
1153 0.003180549882317621 0.01087843481340959 0
1154 0.003022639514009095 0.01112995591847958 0
1155 0.007348753176429485 0.0002896639473794708 0
1156 0.007252410254860937 0.0005792869688124331 0
1157 0.007154827423658552 0.0008688281827589619 0
1158 0.007056008049880738 0.001158246796444158 0
1159 0.006955956842293378 0.001447502150120228 0
1160 0.006854679846260586 0.001736553761184245 0
1161 0.006752184437185199 0.002025361368103704 0
1162 0.006648479312506123 0.002313884974102191 0
1163 0.006543574482261189 0.002602084890557797 0
1164 0.006437481258225791 0.002889921780067144 0
1165 0.006330212241639071 0.003177356699128353 0
1166 0.006221781309530975 0.003464351140396579 0
1167 0.006112203599665016 0.003750867074466328 0
1168 0.006001495494113085 0.004036866991135152 0
1169 0.005889674601480117 0.004322313940104017 0
1170 0.005776759737797922 0.004607171571070119 0
1171 0.0056627709061089 0.004891404173168703 0
1172 0.005547729274761779 0.005174976713721041 0
1173 0.00543165715444296 0.00545785487624656 0
1174 0.00531457797396836 0.005740005097697843 0
1175 0.005196516254862025 0.006021394604878143 0
1176 0.005077497584749124 0.006301991450001858 0
1177 0.004957548589592149 0.006581764545359386 0
1178 0.004836696904800486 0.006860683697048779 0
1179 0.004714971145244678 0.007138719637737557 0
1180 0.004592400874207935 0.007415844058419153 0
1181 0.004469016571308563 0.007692029639129535 0
1182 0.004344849599428129 0.007967250078590667 0
1183 0.004219932170681249 0.008241480122748637 0
1184 0.004094297311463905 0.008514695592175509 0
1185 0.003967978826618244 0.008786873408305166 0
1186 0.003841011262752708 0.009057991618474627 0
1187 0.00371342987075733 0.009328029419743747 0
1188 0.003585270567554838 0.009596967181467388 0
1189 0.003456569897129092 0.009864786466595606 0
1190 0.003327364990873114 0.01013147005167873 0
1191 0.003197693527299776 0.01039700194555561 0
1192 0.003067593691158811 0.01066136740670479 0
1193 0.002937104132004547 0.01092455295923979 0
1194 0.002576718750000002 0.0154603125 0
1195 0.002576718750000001 0.017178125 0
1196 0.002576718749999997 0.0188959375 0
1197 0.005153437499999999 0.0154603125 0
1198 0.005153437499999997 0.017178125 0
1199 0.005153437499999992 0.0188959375 0
1200 0.007730156250000004 0.0154603125 0
1201 0.00773015625 0.017178125 0
1202 0.007730156249999997 0.0188959375 0
1203 0.010306875 0.0154603125 0
1204 0.010306875 0.017178125 0
1205 0.010306875 0.0188959375 0
1206 0.01288359375 0.0154603125 0
1207 0.01288359375 0.017178125 0
1208 0.01288359375 0.0188959375 0
1209 0.01546031250000001 0.0154603125 0
1210 0.0154603125 0.017178125 0
1211 0.0154603125 0.0188959375 0
1212 0.01803703125 0.0154603125 0
1213 0.01803703125 0.017178125 0
1214 0.01803703124999999 0.0188959375 0
$EndNodes
$Elements
1288
1 1 2 5 7 2 62
2 1 2 5 7 62 63
3 1 2 5 7 63 64
4 1 2 5 7 64 65
5 1 2 5 7 65 66
6 1 2 5 7 66 67
7 1 2 5 7 67 68
8 1 2 5 7 68 69
9 1 2 5 7 69 70
10 1 2 5 7 70 71
11 1 2 5 7 71 72
12 1 2 5 7 72 3
13 1 2 4 8 3 73
14 1 2 4 8 73 74
15 1 2 4 8 74 75
16 1 2 4 8 75 76
17 1 2 4 8 76 77
18 1 2 4 8 77 78
19 1 2 4 8 78 79
20 1 2 4 8 79 80
21 1 2 4 8 80 81
22 1 2 4 8 81 82
23 1 2 4 8 82 83
24 1 2 4 8 83 84
25 1 2 4 8 84 85
26 1 2 4 8 85 86
27 1 2 4 8 86 87
28 1 2 4 8 87 88
29 1 2 4 8 88 89
30 1 2 4 8 89 90
31 1 2 4 8 90 91
32 1 2 4 8 91 92
33 1 2 4 8 92 93
34 1 2 4 8 93 94
35 1 2 4 8 94 95
36 1 2 4 8 95 96
37 1 2 4 8 96 97
38 1 2 4 8 97 98
39 1 2 4 8 98 99
40 1 2 4 8 99 100
41 1 2 4 8 100 101
42 1 2 4 8 101 102
43 1 2 4 8 102 103
44 1 2 4 8 103 104
45 1 2 4 8 104 105
46 1 2 4 8 105 106
47 1 2 4 8 106 107
48 1 2 4 8 107 108
49 1 2 4 8 108 109
50 1 2 4 8 109 110
51 1 2 4 8 110 111
52 1 2 4 8 111 4
53 1 2 3 10 6 123
54 1 2 3 10 123 124
55 1 2 3 10 124 125
56 1 2 3 10 125 126
57 1 2 3 10 126 127
58 1 2 3 10 127 128
59 1 2 3 10 128 129
60 1 2 3 10 129 130
61 1 2 3 10 130 131
62 1 2 3 10 131 132
63 1 2 3 10 132 133
64 1 2 3 10 133 5
65 1 2 4 11 4 134
66 1 2 4 11 134 135
67 1 2 4 11 135 136
68 1 2 4 11 136 137
69 1 2 4 11 137 138
70 1 2 4 11 138 139
71 1 2 4 11 139 140
72 1 2 4 11 140 141
73 1 2 4 11 141 142
74 1 2 4 11 142 143
75 1 2 4 11 143 144
76 1 2 4 11 144 6
77 1 2 5 12 7 145
78 1 2 5 12 145 146
79 1 2 5 12 146 147
80 1 2 5 12 147 148
81 1 2 5 12 148 149
82 1 2 5 12 149 150
83 1 2 5 12 150 151
84 1 2 5 12 151 152
85 1 2 5 12 152 153
86 1 2 5 12 153 154
87 1 2 5 12 154 155
88 1 2 5 12 155 2
89 1 2 3 13 5 156
90 1 2 3 13 156 157
91 1 2 3 13 157 158
92 1 2 3 13 158 159
93 1 2 3 13 159 160
94 1 2 3 13 160 161
95 1 2 3 13 161 162
96 1 2 3 13 162 163
97 1 2 3 13 163 164
98 1 2 3 13 164 165
99 1 2 3 13 165 166
100 1 2 3 13 166 167
101 1 2 3 13 167 168
102 1 2 3 13 168 169
103 1 2 3 13 169 170
104 1 2 3 13 170 171
105 1 2 3 13 171 172
106 1 2 3 13 172 173
107 1 2 3 13 173 174
108 1 2 3 13 174 175
109 1 2 3 13 175 176
110 1 2 3 13 176 177
111 1 2 3 13 177 178
112 1 2 3 13 178 179
113 1 2 3 13 179 180
114 1 2 3 13 180 181
115 1 2 3 13 181 182
116 1 2 3 13 182 183
117 1 2 3 13 183 184
118 1 2 3 13 184 185
119 1 2 3 13 185 186
120 1 2 3 13 186 187
121 1 2 3 13 187 188
122 1 2 3 13 188 189
123 1 2 3 13 189 190
124 1 2 3 13 190 191
125 1 2 3 13 191 192
126 1 2 3 13 192 193
127 1 2 3 13 193 194
128 1 2 3 13 194 7
129 1 2 8 15 8 195
130 1 2 8 15 195 196
131 1 2 8 15 196 197
132 1 2 8 15 197 198
133 1 2 8 15 198 199
134 1 2 8 15 199 200
135 1 2 8 15 200 201
136 1 2 8 15 201 9
137 1 2 9 16 9 202
138 1 2 9 16 202 203
139 1 2 9 16 203 204
140 1 2 9 16 204 10
141 1 2 6 17 10 205
142 1 2 6 17 205 206
143 1 2 6 17 206 207
144 1 2 6 17 207 208
145 1 2 6 17 208 209
146 1 2 6 17 209 210
147 1 2 6 17 210 211
148 1 2 6 17 211 11
149 1 2 7 18 11 212
150 1 2 7 18 212 213
151 1 2 7 18 213 214
152 1 2 7 18 214 8
153 3 2 1 1 2 62 215 61
154 3 2 1 1 61 215 216 60
155 3 2 1 1 60 216 217 59
156 3 2 1 1 59 217 218 58
157 3 2 1 1 58 218 219 57
158 3 2 1 1 57 219 220 56
159 3 2 1 1 56 220 221 55
160 3 2 1 1 55 221 222 54
161 3 2 1 1 54 222 223 53
162 3 2 1 1 53 223 224 52
163 3 2 1 1 52 224 225 51
164 3 2 1 1 51 225 226 50
165 3 2 1 1 50 226 227 49
166 3 2 1 1 49 227 228 48
167 3 2 1 1 48 228 229 47
168 3 2 1 1 47 229 230 46
169 3 2 1 1 46 230 231 45
170 3 2 1 1 45 231 232 44
171 3 2 1 1 44 232 233 43
172 3 2 1 1 43 233 234 42
173 3 2 1 1 42 234 235 41
174 3 2 1 1 41 235 236 40
175 3 2 1 1 40 236 237 39
176 3 2 1 1 39 237 238 38
177 3 2 1 1 38 238 239 37
178 3 2 1 1 37 239 240 36
179 3 2 1 1 36 240 241 35
180 3 2 1 1 35 241 242 34
181 3 2 1 1 34 242 243 33
182 3 2 1 1 33 243 244 32
183 3 2 1 1 32 244 245 31
184 3 2 1 1 31 245 246 30
185 3 2 1 1 30 246 247 29
186 3 2 1 1 29 247 248 28
187 3 2 1 1 28 248 249 27
188 3 2 1 1 27 249 250 26
189 3 2 1 1 26 250 251 25
190 3 2 1 1 25 251 252 24
191 3 2 1 1 24 252 253 23
192 3 2 1 1 23 253 22 1
193 3 2 1 1 62 63 254 215
194 3 2 1 1 215 254 255 216
195 3 2 1 1 216 255 256 217
196 3 2 1 1 217 256 257 218
197 3 2 1 1 218 257 258 219
198 3 2 1 1 219 258 259 220
199 3 2 1 1 220 259 260 221
200 3 2 1 1 221 260 261 222
201 3 2 1 1 222 261 262 223
202 3 2 1 1 223 262 263 224
203 3 2 1 1 224 263 264 225
204 3 2 1 1 225 264 265 226
205 3 2 1 1 226 265 266 227
206 3 2 1 1 227 266 267 228
207 3 2 1 1 228 267 268 229
208 3 2 1 1 229 268 269 230
209 3 2 1 1 230 269 270 231
210 3 2 1 1 231 270 271 232
211 3 2 1 1 232 271 272 233
212 3 2 1 1 233 272 273 234
213 3 2 1 1 234 273 274 235
214 3 2 1 1 235 274 275 236
215 3 2 1 1 236 275 276 237
216 3 2 1 1 237 276 277 238
217 3 2 1 1 238 277 278 239
218 3 2 1 1 239 278 279 240
219 3 2 1 1 240 279 280 241
220 3 2 1 1 241 280 281 242
221 3 2 1 1 242 281 282 243
222 3 2 1 1 243 282 283 244
223 3 2 1 1 244 283 284 245
224 3 2 1 1 245 284 285 246
225 3 2 1 1 246 285 286 247
226 3 2 1 1 247 286 287 248
227 3 2 1 1 248 287 288 249
228 3 2 1 1 249 288 289 250
229 3 2 1 1 250 289 290 251
230 3 2 1 1 251 290 291 252
231 3 2 1 1 252 291 292 253
232 3 2 1 1 253 292 21 22
233 3 2 1 1 63 64 293 254
234 3 2 1 1 254 293 294 255
235 3 2 1 1 255 294 295 256
236 3 2 1 1 256 295 296 257
237 3 2 1 1 257 296 297 258
238 3 2 1 1 258 297 298 259
239 3 2 1 1 259 298 299 260
240 3 2 1 1 260 299 300 261
241 3 2 1 1 261 300 301 262
242 3 2 1 1 262 301 302 263
243 3 2 1 1 263 302 303 264
244 3 2 1 1 264 303 304 265
245 3 2 1 1 265 304 305 266
246 3 2 1 1 266 305 306 267
247 3 2 1 1 267 306 307 268
248 3 2 1 1 268 307 308 269
249 3 2 1 1 269 308 309 270
250 3 2 1 1 270 309 310 271
251 3 2 1 1 271 310 311 272
252 3 2 1 1 272 311 312 273
253 3 2 1 1 273 312 313 274
254 3 2 1 1 274 313 314 275
255 3 2 1 1 275 314 315 276
256 3 2 1 1 276 315 316 277
257 3 2 1 1 277 316 317 278
258 3 2 1 1 278 317 318 279
259 3 2 1 1 279 318 319 280
260 3 2 1 1 280 319 320 281
261 3 2 1 1 281 320 321 282
262 3 2 1 1 282 321 322 283
263 3 2 1 1 283 322 323 284
264 3 2 1 1 284 323 324 285
265 3 2 1 1 285 324 325 286
266 3 2 1 1 286 325 326 287
267 3 2 1 1 287 326 327 288
268 3 2 1 1 288 327 328 289
269 3 2 1 1 289 328 329 290
270 3 2 1 1 290 329 330 291
271 3 2 1 1 291 330 331 292
272 3 2 1 1 292 331 20 21
273 3 2 1 1 64 65 332 293
274 3 2 1 1 293 332 333 294
275 3 2 1 1 294 333 334 295
276 3 2 1 1 295 334 335 296
277 3 2 1 1 296 335 336 297
278 3 2 1 1 297 336 337 298
279 3 2 1 1 298 337 338 299
280 3 2 1 1 299 338 339 300
281 3 2 1 1 300 339 340 301
282 3 2 1 1 301 340 341 302
283 3 2 1 1 302 341 342 303
284 3 2 1 1 303 342 343 304
285 3 2 1 1 304 343 344 305
286 3 2 1 1 305 344 345 306
287 3 2 1 1 306 345 346 307
288 3 2 1 1 307 346 347 308
289 3 2 1 1 308 347 348 309
290 3 2 1 1 309 348 349 310
291 3 2 1 1 310 349 350 311
292 3 2 1 1 311 350 351 312
293 3 2 1 1 312 351 352 313
294 3 2 1 1 313 352 353 314
295 3 2 1 1 314 353 354 315
296 3 2 1 1 315 354 355 316
297 3 2 1 1 316 355 356 317
298 3 2 1 1 317 356 357 318
299 3 2 1 1 318 357 358 319
300 3 2 1 1 319 358 359 320
301 3 2 1 1 320 359 360 321
302 3 2 1 1 321 360 361 322
303 3 2 1 1 322 361 362 323
304 3 2 1 1 323 362 363 324
305 3 2 1 1 324 363 364 325
306 3 2 1 1 325 364 365 326
307 3 2 1 1 326 365 366 327
308 3 2 1 1 327 366 367 328
309 3 2 1 1 328 367 368 329
310 3 2 1 1 329 368 369 330
311 3 2 1 1 330 369 370 331
312 3 2 1 1 331 370 19 20
313 3 2 1 1 65 66 371 332
314 3 2 1 1 332 371 372 333
315 3 2 1 1 333 372 373 334
316 3 2 1 1 334 373 374 335
317 3 2 1 1 335 374 375 336
318 3 2 1 1 336 375 376 337
319 3 2 1 1 337 376 377 338
320 3 2 1 1 338 377 378 339
321 3 2 1 1 339 378 379 340
322 3 2 1 1 340 379 380 341
323 3 2 1 1 341 380 381 342
324 3 2 1 1 342 381 382 343
325 3 2 1 1 343 382 383 344
326 3 2 1 1 344 383 384 345
327 3 2 1 1 345 384 385 346
328 3 2 1 1 346 385 386 347
329 3 2 1 1 347 386 387 348
330 3 2 1 1 348 387 388 349
331 3 2 1 1 349 388 389 350
332 3 2 1 1 350 389 390 351
333 3 2 1 1 351 390 391 352
334 3 2 1 1 352 391 392 353
335 3 2 1 1 353 392 393 354
336 3 2 1 1 354 393 394 355
337 3 2 1 1 355 394 395 356
338 3 2 1 1 356 395 396 357
339 3 2 1 1 357 396 397 358
340 3 2 1 1 358 397 398 359
341 3 2 1 1 359 398 399 360
342 3 2 1 1 360 399 400 361
343 3 2 1 1 361 400 401 362
344 3 2 1 1 362 401 402 363
345 3 2 1 1 363 402 403 364
346 3 2 1 1 364 403 404 365
347 3 2 1 1 365 404 405 366
348 3 2 1 1 366 405 406 367
349 3 2 1 1 367 406 407 368
350 3 2 1 1 368 407 408 369
351 3 2 1 1 369 408 409 370
352 3 2 1 1 370 409 18 19
353 3 2 1 1 66 67 410 371
354 3 2 1 1 371 410 411 372
355 3 2 1 1 372 411 412 373
356 3 2 1 1 373 412 413 374
357 3 2 1 1 374 413 414 375
358 3 2 1 1 375 414 415 376
359 3 2 1 1 376 415 416 377
360 3 2 1 1 377 416 417 378
361 3 2 1 1 378 417 418 379
362 3 2 1 1 379 418 419 380
363 3 2 1 1 380 419 420 381
364 3 2 1 1 381 420 421 382
365 3 2 1 1 382 421 422 383
366 3 2 1 1 383 422 423 384
367 3 2 1 1 384 423 424 385
368 3 2 1 1 385 424 425 386
369 3 2 1 1 386 425 426 387
370 3 2 1 1 387 426 427 388
371 3 2 1 1 388 427 428 389
372 3 2 1 1 389 428 429 390
373 3 2 1 1 390 429 430 391
374 3 2 1 1 391 430 431 392
375 3 2 1 1 392 431 432 393
376 3 2 1 1 393 432 433 394
377 3 2 1 1 394 433 434 395
378 3 2 1 1 395 434 435 396
379 3 2 1 1 396 435 436 397
380 3 2 1 1 397 436 437 398
381 3 2 1 1 398 437 438 399
382 3 2 1 1 399 438 439 400
383 3 2 1 1 400 439 440 401
384 3 2 1 1 401 440 441 402
385 3 2 1 1 402 441 442 403
386 3 2 1 1 403 442 443 404
387 3 2 1 1 404 443 444 405
388 3 2 1 1 405 444 445 406
389 3 2 1 1 406 445 446 407
390 3 2 1 1 407 446 447 408
391 3 2 1 1 408 447 448 409
392 3 2 1 1 409 448 17 18
393 3 2 1 1 67 68 449 410
394 3 2 1 1 410 449 450 411
395 3 2 1 1 411 450 451 412
396 3 2 1 1 412 451 452 413
397 3 2 1 1 413 452 453 414
398 3 2 1 1 414 453 454 415
399 3 2 1 1 415 454 455 416
400 3 2 1 1 416 455 456 417
401 3 2 1 1 417 456 457 418
402 3 2 1 1 418 457 458 419
403 3 2 1 1 419 458 459 420
404 3 2 1 1 420 459 460 421
405 3 2 1 1 421 460 461 422
406 3 2 1 1 422 461 462 423
407 3 2 1 1 423 462 463 424
408 3 2 1 1 424 463 464 425
409 3 2 1 1 425 464 465 426
410 3 2 1 1 426 465 466 427
411 3 2 1 1 427 466 467 428
412 3 2 1 1 428 467 468 429
413 3 2 1 1 429 468 469 430
414 3 2 1 1 430 469 470 431
415 3 2 1 1 431 470 471 432
416 3 2 1 1 432 471 472 433
417 3 2 1 1 433 472 473 434
418 3 2 1 1 434 473 474 435
419 3 2 1 1 435 474 475 436
420 3 2 1 1 436 475 476 437
421 3 2 1 1 437 476 477 438
422 3 2 1 1 438 477 478 439
423 3 2 1 1 439 478 479 440
424 3 2 1 1 440 479 480 441
425 3 2 1 1 441 480 481 442
426 3 2 1 1 442 481 482 443
427 3 2 1 1 443 482 483 444
428 3 2 1 1 444 483 484 445
429 3 2 1 1 445 484 485 446
430 3 2 1 1 446 485 486 447
431 3 2 1 1 447 486 487 448
432 3 2 1 1 448 487 16 17
433 3 2 1 1 68 69 488 449
434 3 2 1 1 449 488 489 450
435 3 2 1 1 450 489 490 451
436 3 2 1 1 451 490 491 452
437 3 2 1 1 452 491 492 453
438 3 2 1 1 453 492 493 454
439 3 2 1 1 454 493 494 455
440 3 2 1 1 455 494 495 456
441 3 2 1 1 456 495 496 457
442 3 2 1 1 457 496 497 458
443 3 2 1 1 458 497 498 459
444 3 2 1 1 459 498 499 460
445 3 2 1 1 460 499 500 461
446 3 2 1 1 461 500 501 462
447 3 2 1 1 462 501 502 463
448 3 2 1 1 463 502 503 464
449 3 2 1 1 464 503 504 465
450 3 2 1 1 465 504 505 466
451 3 2 1 1 466 505 506 467
452 3 2 1 1 467 506 507 468
453 3 2 1 1 468 507 508 469
454 3 2 1 1 469 508 509 470
455 3 2 1 1 470 509 510 471
456 3 2 1 1 471 510 511 472
457 3 2 1 1 472 511 512 473
458 3 2 1 1 473 512 513 474
459 3 2 1 1 474 513 514 475
460 3 2 1 1 475 514 515 476
461 3 2 1 1 476 515 516 477
462 3 2 1 1 477 516 517 478
463 3 2 1 1 478 517 518 479
464 3 2 1 1 479 518 519 480
465 3 2 1 1 480 519 520 481
466 3 2 1 1 481 520 521 482
467 3 2 1 1 482 521 522 483
468 3 2 1 1 483 522 523 484
469 3 2 1 1 484 523 524 485
470 3 2 1 1 485 524 525 486
471 3 2 1 1 486 525 526 487
472 3 2 1 1 487 526 15 16
473 3 2 1 1 69 70 527 488
474 3 2 1 1 488 527 528 489
475 3 2 1 1 489 528 529 490
476 3 2 1 1 490 529 530 491
477 3 2 1 1 491 530 531 492
478 3 2 1 1 492 531 532 493
479 3 2 1 1 493 532 533 494
480 3 2 1 1 494 533 534 495
481 3 2 1 1 495 534 535 496
482 3 2 1 1 496 535 536 497
483 3 2 1 1 497 536 537 498
484 3 2 1 1 498 537 538 499
485 3 2 1 1 499 538 539 500
486 3 2 1 1 500 539 540 501
487 3 2 1 1 501 540 541 502
488 3 2 1 1 502 541 542 503
489 3 2 1 1 503 542 543 504
490 3 2 1 1 504 543 544 505
491 3 2 1 1 505 544 545 506
492 3 2 1 1 506 545 546 507
493 3 2 1 1 507 546 547 508
494 3 2 1 1 508 547 548 509
495 3 2 1 1 509 548 549 510
496 3 2 1 1 510 549 550 511
497 3 2 1 1 511 550 551 512
498 3 2 1 1 512 551 552 513
499 3 2 1 1 513 552 553 514
500 3 2 1 1 514 553 554 515
501 3 2 1 1 515 554 555 516
502 3 2 1 1 516 555 556 517
503 3 2 1 1 517 556 557 518
504 3 2 1 1 518 557 558 519
505 3 2 1 1 519 558 559 520
506 3 2 1 1 520 559 560 521
507 3 2 1 1 521 560 561 522
508 3 2 1 1 522 561 562 523
509 3 2 1 1 523 562 563 524
510 3 2 1 1 524 563 564 525
511 3 2 1 1 525 564 565 526
512 3 2 1 1 526 565 14 15
513 3 2 1 1 70 71 566 527
514 3 2 1 1 527 566 567 528
515 3 2 1 1 528 567 568 529
516 3 2 1 1 529 568 569 530
517 3 2 1 1 530 569 570 531
518 3 2 1 1 531 570 571 532
519 3 2 1 1 532 571 572 533
520 3 2 1 1 533 572 573 534
521 3 2 1 1 534 573 574 535
522 3 2 1 1 535 574 575 536
523 3 2 1 1 536 575 576 537
524 3 2 1 1 537 576 577 538
525 3 2 1 1 538 577 578 539
526 3 2 1 1 539 578 579 540
527 3 2 1 1 540 579 580 541
528 3 2 1 1 541 580 581 542
529 3 2 1 1 542 581 582 543
530 3 2 1 1 543 582 583 544
531 3 2 1 1 544 583 584 545
532 3 2 1 1 545 584 585 546
533 3 2 1 1 546 585 586 547
534 3 2 1 1 547 586 587 548
535 3 2 1 1 548 587 588 549
536 3 2 1 1 549 588 589 550
537 3 2 1 1 550 589 590 551
538 3 2 1 1 551 590 591 552
539 3 2 1 1 552 591 592 553
540 3 2 1 1 553 592 593 554
541 3 2 1 1 554 593 594 555
542 3 2 1 1 555 594 595 556
543 3 2 1 1 556 595 596 557
544 3 2 1 1 557 596 597 558
545 3 2 1 1 558 597 598 559
546 3 2 1 1 559 598 599 560
547 3 2 1 1 560 599 600 561
548 3 2 1 1 561 600 601 562
549 3 2 1 1 562 601 602 563
550 3 2 1 1 563 602 603 564
551 3 2 1 1 564 603 604 565
552 3 2 1 1 565 604 13 14
553 3 2 1 1 71 72 605 566
554 3 2 1 1 566 605 606 567
555 3 2 1 1 567 606 607 568
556 3 2 1 1 568 607 608 569
557 3 2 1 1 569 608 609 570
558 3 2 1 1 570 609 610 571
559 3 2 1 1 571 610 611 572
560 3 2 1 1 572 611 612 573
561 3 2 1 1 573 612 613 574
562 3 2 1 1 574 613 614 575
563 3 2 1 1 575 614 615 576
564 3 2 1 1 576 615 616 577
565 3 2 1 1 577 616 617 578
566 3 2 1 1 578 617 618 579
567 3 2 1 1 579 618 619 580
568 3 2 1 1 580 619 620 581
569 3 2 1 1 581 620 621 582
570 3 2 1 1 582 621 622 583
571 3 2 1 1 583 622 623 584
572 3 2 1 1 584 623 624 585
573 3 2 1 1 585 624 625 586
574 3 2 1 1 586 625 626 587
575 3 2 1 1 587 626 627 588
576 3 2 1 1 588 627 628 589
577 3 2 1 1 589 628 629 590
578 3 2 1 1 590 629 630 591
579 3 2 1 1 591 630 631 592
580 3 2 1 1 592 631 632 593
581 3 2 1 1 593 632 633 594
582 3 2 1 1 594 633 634 595
583 3 2 1 1 595 634 635 596
584 3 2 1 1 596 635 636 597
585 3 2 1 1 597 636 637 598
586 3 2 1 1 598 637 638 599
587 3 2 1 1 599 638 639 600
588 3 2 1 1 600 639 640 601
589 3 2 1 1 601 640 641 602
590 3 2 1 1 602 641 642 603
591 3 2 1 1 603 642 643 604
592 3 2 1 1 604 643 12 13
593 3 2 1 1 72 3 73 605
594 3 2 1 1 605 73 74 606
595 3 2 1 1 606 74 75 607
596 3 2 1 1 607 75 76 608
597 3 2 1 1 608 76 77 609
598 3 2 1 1 609 77 78 610
599 3 2 1 1 610 78 79 611
600 3 2 1 1 611 79 80 612
601 3 2 1 1 612 80 81 613
602 3 2 1 1 613 81 82 614
603 3 2 1 1 614 82 83 615
604 3 2 1 1 615 83 84 616
605 3 2 1 1 616 84 85 617
606 3 2 1 1 617 85 86 618
607 3 2 1 1 618 86 87 619
608 3 2 1 1 619 87 88 620
609 3 2 1 1 620 88 89 621
610 3 2 1 1 621 89 90 622
611 3 2 1 1 622 90 91 623
612 3 2 1 1 623 91 92 624
613 3 2 1 1 624 92 93 625
614 3 2 1 1 625 93 94 626
615 3 2 1 1 626 94 95 627
616 3 2 1 1 627 95 96 628
617 3 2 1 1 628 96 97 629
618 3 2 1 1 629 97 98 630
619 3 2 1 1 630 98 99 631
620 3 2 1 1 631 99 100 632
621 3 2 1 1 632 100 101 633
622 3 2 1 1 633 101 102 634
623 3 2 1 1 634 102 103 635
624 3 2 1 1 635 103 104 636
625 3 2 1 1 636 104 105 637
626 3 2 1 1 637 105 106 638
627 3 2 1 1 638 106 107 639
628 3 2 1 1 639 107 108 640
629 3 2 1 1 640 108 109 641
630 3 2 1 1 641 109 110 642
631 3 2 1 1 642 110 111 643
632 3 2 1 1 643 111 4 12
633 3 2 1 2 4 134 644 12
634 3 2 1 2 134 135 645 644
635 3 2 1 2 135 136 646 645
636 3 2 1 2 136 137 647 646
637 3 2 1 2 137 138 648 647
638 3 2 1 2 138 139 649 648
639 3 2 1 2 139 140 650 649
640 3 2 1 2 140 141 651 650
641 3 2 1 2 141 142 652 651
642 3 2 1 2 142 143 653 652
643 3 2 1 2 143 144 654 653
644 3 2 1 2 144 6 123 654
645 3 2 1 2 12 644 655 13
646 3 2 1 2 644 645 656 655
647 3 2 1 2 645 646 657 656
648 3 2 1 2 646 647 658 657
649 3 2 1 2 647 648 659 658
650 3 2 1 2 648 649 660 659
651 3 2 1 2 649 650 661 660
652 3 2 1 2 650 651 662 661
653 3 2 1 2 651 652 663 662
654 3 2 1 2 652 653 664 663
655 3 2 1 2 653 654 665 664
656 3 2 1 2 654 123 124 665
657 3 2 1 2 13 655 666 14
658 3 2 1 2 655 656 667 666
659 3 2 1 2 656 657 668 667
660 3 2 1 2 657 658 669 668
661 3 2 1 2 658 659 670 669
662 3 2 1 2 659 660 671 670
663 3 2 1 2 660 661 672 671
664 3 2 1 2 661 662 673 672
665 3 2 1 2 662 663 674 673
666 3 2 1 2 663 664 675 674
667 3 2 1 2 664 665 676 675
668 3 2 1 2 665 124 125 676
669 3 2 1 2 14 666 677 15
670 3 2 1 2 666 667 678 677
671 3 2 1 2 667 668 679 678
672 3 2 1 2 668 669 680 679
673 3 2 1 2 669 670 681 680
674 3 2 1 2 670 671 682 681
675 3 2 1 2 671 672 683 682
676 3 2 1 2 672 673 684 683
677 3 2 1 2 673 674 685 684
678 3 2 1 2 674 675 686 685
679 3 2 1 2 675 676 687 686
680 3 2 1 2 676 125 126 687
681 3 2 1 2 15 677 688 16
682 3 2 1 2 677 678 689 688
683 3 2 1 2 678 679 690 689
684 3 2 1 2 679 680 691 690
685 3 2 1 2 680 681 692 691
686 3 2 1 2 681 682 693 692
687 3 2 1 2 682 683 694 693
688 3 2 1 2 683 684 695 694
689 3 2 1 2 684 685 696 695
690 3 2 1 2 685 686 697 696
691 3 2 1 2 686 687 698 697
692 3 2 1 2 687 126 127 698
693 3 2 1 2 16 688 699 17
694 3 2 1 2 688 689 700 699
695 3 2 1 2 689 690 701 700
696 3 2 1 2 690 691 702 701
697 3 2 1 2 691 692 703 702
698 3 2 1 2 692 693 704 703
699 3 2 1 2 693 694 705 704
700 3 2 1 2 694 695 706 705
701 3 2 1 2 695 696 707 706
702 3 2 1 2 696 697 708 707
703 3 2 1 2 697 698 709 708
704 3 2 1 2 698 127 128 709
705 3 2 1 2 17 699 710 18
706 3 2 1 2 699 700 711 710
707 3 2 1 2 700 701 712 711
708 3 2 1 2 701 702 713 712
709 3 2 1 2 702 703 714 713
710 3 2 1 2 703 704 715 714
711 3 2 1 2 704 705 716 715
712 3 2 1 2 705 706 717 716
713 3 2 1 2 706 707 718 717
714 3 2 1 2 707 708 719 718
715 3 2 1 2 708 709 720 719
716 3 2 1 2 709 128 129 720
717 3 2 1 2 18 710 721 19
718 3 2 1 2 710 711 722 721
719 3 2 1 2 711 712 723 722
720 3 2 1 2 712 713 724 723
721 3 2 1 2 713 714 725 724
722 3 2 1 2 714 715 726 725
723 3 2 1 2 715 716 727 726
724 3 2 1 2 716 717 728 727
725 3 2 1 2 717 718 729 728
726 3 2 1 2 718 719 730 729
727 3 2 1 2 719 720 731 730
728 3 2 1 2 720 129 130 731
729 3 2 1 2 19 721 732 20
730 3 2 1 2 721 722 733 732
731 3 2 1 2 722 723 734 733
732 3 2 1 2 723 724 735 734
733 3 2 1 2 724 725 736 735
734 3 2 1 2 725 726 737 736
735 3 2 1 2 726 727 738 737
736 3 2 1 2 727 728 739 738
737 3 2 1 2 728 729 740 739
738 3 2 1 2 729 730 741 740
739 3 2 1 2 730 731 742 741
740 3 2 1 2 731 130 131 742
741 3 2 1 2 20 732 743 21
742 3 2 1 2 732 733 744 743
743 3 2 1 2 733 734 745 744
744 3 2 1 2 734 735 746 745
745 3 2 1 2 735 736 747 746
746 3 2 1 2 736 737 748 747
747 3 2 1 2 737 738 749 748
748 3 2 1 2 738 739 750 749
749 3 2 1 2 739 740 751 750
750 3 2 1 2 740 741 752 751
751 3 2 1 2 741 742 753 752
752 3 2 1 2 742 131 132 753
753 3 2 1 2 21 743 754 22
754 3 2 1 2 743 744 755 754
755 3 2 1 2 744 745 756 755
756 3 2 1 2 745 746 757 756
757 3 2 1 2 746 747 758 757
758 3 2 1 2 747 748 759 758
759 3 2 1 2 748 749 760 759
760 3 2 1 2 749 750 761 760
761 3 2 1 2 750 751 762 761
762 3 2 1 2 751 752 763 762
763 3 2 1 2 752 753 764 763
764 3 2 1 2 753 132 133 764
765 3 2 1 2 22 754 112 1
766 3 2 1 2 754 755 113 112
767 3 2 1 2 755 756 114 113
768 3 2 1 2 756 757 115 114
769 3 2 1 2 757 758 116 115
770 3 2 1 2 758 759 117 116
771 3 2 1 2 759 760 118 117
772 3 2 1 2 760 761 119 118
773 3 2 1 2 761 762 120 119
774 3 2 1 2 762 763 121 120
775 3 2 1 2 763 764 122 121
776 3 2 1 2 764 133 5 122
777 3 2 1 3 7 145 765 194
778 3 2 1 3 194 765 766 193
779 3 2 1 3 193 766 767 192
780 3 2 1 3 192 767 768 191
781 3 2 1 3 191 768 769 190
782 3 2 1 3 190 769 770 189
783 3 2 1 3 189 770 771 188
784 3 2 1 3 188 771 772 187
785 3 2 1 3 187 772 773 186
786 3 2 1 3 186 773 774 185
787 3 2 1 3 185 774 775 184
788 3 2 1 3 184 775 776 183
789 3 2 1 3 183 776 777 182
790 3 2 1 3 182 777 778 181
791 3 2 1 3 181 778 779 180
792 3 2 1 3 180 779 780 179
793 3 2 1 3 179 780 781 178
794 3 2 1 3 178 781 782 177
795 3 2 1 3 177 782 783 176
796 3 2 1 3 176 783 784 175
797 3 2 1 3 175 784 785 174
798 3 2 1 3 174 785 786 173
799 3 2 1 3 173 786 787 172
800 3 2 1 3 172 787 788 171
801 3 2 1 3 171 788 789 170
802 3 2 1 3 170 789 790 169
803 3 2 1 3 169 790 791 168
804 3 2 1 3 168 791 792 167
805 3 2 1 3 167 792 793 166
806 3 2 1 3 166 793 794 165
807 3 2 1 3 165 794 795 164
808 3 2 1 3 164 795 796 163
809 3 2 1 3 163 796 797 162
810 3 2 1 3 162 797 798 161
811 3 2 1 3 161 798 799 160
812 3 2 1 3 160 799 800 159
813 3 2 1 3 159 800 801 158
814 3 2 1 3 158 801 802 157
815 3 2 1 3 157 802 803 156
816 3 2 1 3 156 803 122 5
817 3 2 1 3 145 146 804 765
818 3 2 1 3 765 804 805 766
819 3 2 1 3 766 805 806 767
820 3 2 1 3 767 806 807 768
821 3 2 1 3 768 807 808 769
822 3 2 1 3 769 808 809 770
823 3 2 1 3 770 809 810 771
824 3 2 1 3 771 810 811 772
825 3 2 1 3 772 811 812 773
826 3 2 1 3 773 812 813 774
827 3 2 1 3 774 813 814 775
828 3 2 1 3 775 814 815 776
829 3 2 1 3 776 815 816 777
830 3 2 1 3 777 816 817 778
831 3 2 1 3 778 817 818 779
832 3 2 1 3 779 818 819 780
833 3 2 1 3 780 819 820 781
834 3 2 1 3 781 820 821 782
835 3 2 1 3 782 821 822 783
836 3 2 1 3 783 822 823 784
837 3 2 1 3 784 823 824 785
838 3 2 1 3 785 824 825 786
839 3 2 1 3 786 825 826 787
840 3 2 1 3 787 826 827 788
841 3 2 1 3 788 827 828 789
842 3 2 1 3 789 828 829 790
843 3 2 1 3 790 829 830 791
844 3 2 1 3 791 830 831 792
845 3 2 1 3 792 831 832 793
846 3 2 1 3 793 832 833 794
847 3 2 1 3 794 833 834 795
848 3 2 1 3 795 834 835 796
849 3 2 1 3 796 835 836 797
850 3 2 1 3 797 836 837 798
851 3 2 1 3 798 837 838 799
852 3 2 1 3 799 838 839 800
853 3 2 1 3 800 839 840 801
854 3 2 1 3 801 840 841 802
855 3 2 1 3 802 841 842 803
856 3 2 1 3 803 842 121 122
857 3 2 1 3 146 147 843 804
858 3 2 1 3 804 843 844 805
859 3 2 1 3 805 844 845 806
860 3 2 1 3 806 845 846 807
861 3 2 1 3 807 846 847 808
862 3 2 1 3 808 847 848 809
863 3 2 1 3 809 848 849 810
864 3 2 1 3 810 849 850 811
865 3 2 1 3 811 850 851 812
866 3 2 1 3 812 851 852 813
867 3 2 1 3 813 852 853 814
868 3 2 1 3 814 853 854 815
869 3 2 1 3 815 854 855 816
870 3 2 1 3 816 855 856 817
871 3 2 1 3 817 856 857 818
872 3 2 1 3 818 857 858 819
873 3 2 1 3 819 858 859 820
874 3 2 1 3 820 859 860 821
875 3 2 1 3 821 860 861 822
876 3 2 1 3 822 861 862 823
877 3 2 1 3 823 862 863 824
878 3 2 1 3 824 863 864 825
879 3 2 1 3 825 864 865 826
880 3 2 1 3 826 865 866 827
881 3 2 1 3 827 866 867 828
882 3 2 1 3 828 867 868 829
883 3 2 1 3 829 868 869 830
884 3 2 1 3 830 869 870 831
885 3 2 1 3 831 870 871 832
886 3 2 1 3 832 871 872 833
887 3 2 1 3 833 872 873 834
888 3 2 1 3 834 873 874 835
889 3 2 1 3 835 874 875 836
890 3 2 1 3 836 875 876 837
891 3 2 1 3 837 876 877 838
892 3 2 1 3 838 877 878 839
893 3 2 1 3 839 878 879 840
894 3 2 1 3 840 879 880 841
895 3 2 1 3 841 880 881 842
896 3 2 1 3 842 881 120 121
897 3 2 1 3 147 148 882 843
898 3 2 1 3 843 882 883 844
899 3 2 1 3 844 883 884 845
900 3 2 1 3 845 884 885 846
901 3 2 1 3 846 885 886 847
902 3 2 1 3 847 886 887 848
903 3 2 1 3 848 887 888 849
904 3 2 1 3 849 888 889 850
905 3 2 1 3 850 889 890 851
906 3 2 1 3 851 890 891 852
907 3 2 1 3 852 891 892 853
908 3 2 1 3 853 892 893 854
909 3 2 1 3 854 893 894 855
910 3 2 1 3 855 894 895 856
911 3 2 1 3 856 895 896 857
912 3 2 1 3 857 896 897 858
913 3 2 1 3 858 897 898 859
914 3 2 1 3 859 898 899 860
915 3 2 1 3 860 899 900 861
916 3 2 1 3 861 900 901 862
917 3 2 1 3 862 901 902 863
918 3 2 1 3 863 902 903 864
919 3 2 1 3 864 903 904 865
920 3 2 1 3 865 904 905 866
921 3 2 1 3 866 905 906 867
922 3 2 1 3 867 906 907 868
923 3 2 1 3 868 907 908 869
924 3 2 1 3 869 908 909 870
925 3 2 1 3 870 909 910 871
926 3 2 1 3 871 910 911 872
927 3 2 1 3 872 911 912 873
928 3 2 1 3 873 912 913 874
929 3 2 1 3 874 913 914 875
930 3 2 1 3 875 914 915 876
931 3 2 1 3 876 915 916 877
932 3 2 1 3 877 916 917 878
933 3 2 1 3 878 917 918 879
934 3 2 1 3 879 918 919 880
935 3 2 1 3 880 919 920 881
936 3 2 1 3 881 920 119 120
937 3 2 1 3 148 149 921 882
938 3 2 1 3 882 921 922 883
939 3 2 1 3 883 922 923 884
940 3 2 1 3 884 923 924 885
941 3 2 1 3 885 924 925 886
942 3 2 1 3 886 925 926 887
943 3 2 1 3 887 926 927 888
944 3 2 1 3 888 927 928 889
945 3 2 1 3 889 928 929 890
946 3 2 1 3 890 929 930 891
947 3 2 1 3 891 930 931 892
948 3 2 1 3 892 931 932 893
949 3 2 1 3 893 932 933 894
950 3 2 1 3 894 933 934 895
951 3 2 1 3 895 934 935 896
952 3 2 1 3 896 935 936 897
953 3 2 1 3 897 936 937 898
954 3 2 1 3 898 937 938 899
955 3 2 1 3 899 938 939 900
956 3 2 1 3 900 939 940 901
957 3 2 1 3 901 940 941 902
958 3 2 1 3 902 941 942 903
959 3 2 1 3 903 942 943 904
960 3 2 1 3 904 943 944 905
961 3 2 1 3 905 944 945 906
962 3 2 1 3 906 945 946 907
963 3 2 1 3 907 946 947 908
964 3 2 1 3 908 947 948 909
965 3 2 1 3 909 948 949 910
966 3 2 1 3 910 949 950 911
967 3 2 1 3 911 950 951 912
968 3 2 1 3 912 951 952 913
969 3 2 1 3 913 952 953 914
970 3 2 1 3 914 953 954 915
971 3 2 1 3 915 954 955 916
972 3 2 1 3 916 955 956 917
973 3 2 1 3 917 956 957 918
974 3 2 1 3 918 957 958 919
975 3 2 1 3 919 958 959 920
976 3 2 1 3 920 959 118 119
977 3 2 1 3 149 150 960 921
978 3 2 1 3 921 960 961 922
979 3 2 1 3 922 961 962 923
980 3 2 1 3 923 962 963 924
981 3 2 1 3 924 963 964 925
982 3 2 1 3 925 964 965 926
983 3 2 1 3 926 965 966 927
984 3 2 1 3 927 966 967 928
985 3 2 1 3 928 967 968 929
986 3 2 1 3 929 968 969 930
987 3 2 1 3 930 969 970 931
988 3 2 1 3 931 970 971 932
989 3 2 1 3 932 971 972 933
990 3 2 1 3 933 972 973 934
991 3 2 1 3 934 973 974 935
992 3 2 1 3 935 974 975 936
993 3 2 1 3 936 975 976 937
994 3 2 1 3 937 976 977 938
995 3 2 1 3 938 977 978 939
996 3 2 1 3 939 978 979 940
997 3 2 1 3 940 979 980 941
998 3 2 1 3 941 980 981 942
999 3 2 1 3 942 981 982 943
1000 3 2 1 3 943 982 983 944
1001 3 2 1 3 944 983 984 945
1002 3 2 1 3 945 984 985 946
1003 3 2 1 3 946 985 986 947
1004 3 2 1 3 947 986 987 948
1005 3 2 1 3 948 987 988 949
1006 3 2 1 3 949 988 989 950
1007 3 2 1 3 950 989 990 951
1008 3 2 1 3 951 990 991 952
1009 3 2 1 3 952 991 992 953
1010 3 2 1 3 953 992 993 954
1011 3 2 1 3 954 993 994 955
1012 3 2 1 3 955 994 995 956
1013 3 2 1 3 956 995 996 957
1014 3 2 1 3 957 996 997 958
1015 3 2 1 3 958 997 998 959
1016 3 2 1 3 959 998 117 118
1017 3 2 1 3 150 151 999 960
1018 3 2 1 3 960 999 1000 961
1019 3 2 1 3 961 1000 1001 962
1020 3 2 1 3 962 1001 1002 963
1021 3 2 1 3 963 1002 1003 964
1022 3 2 1 3 964 1003 1004 965
1023 3 2 1 3 965 1004 1005 966
1024 3 2 1 3 966 1005 1006 967
1025 3 2 1 3 967 1006 1007 968
1026 3 2 1 3 968 1007 1008 969
1027 3 2 1 3 969 1008 1009 970
1028 3 2 1 3 970 1009 1010 971
1029 3 2 1 3 971 1010 1011 972
1030 3 2 1 3 972 1011 1012 973
1031 3 2 1 3 973 1012 1013 974
1032 3 2 1 3 974 1013 1014 975
1033 3 2 1 3 975 1014 1015 976
1034 3 2 1 3 976 1015 1016 977
1035 3 2 1 3 977 1016 1017 978
1036 3 2 1 3 978 1017 1018 979
1037 3 2 1 3 979 1018 1019 980
1038 3 2 1 3 980 1019 1020 981
1039 3 2 1 3 981 1020 1021 982
1040 3 2 1 3 982 1021 1022 983
1041 3 2 1 3 983 1022 1023 984
1042 3 2 1 3 984 1023 1024 985
1043 3 2 1 3 985 1024 1025 986
1044 3 2 1 3 986 1025 1026 987
1045 3 2 1 3 987 1026 1027 988
1046 3 2 1 3 988 1027 1028 989
1047 3 2 1 3 989 1028 1029 990
1048 3 2 1 3 990 1029 1030 991
1049 3 2 1 3 991 1030 1031 992
1050 3 2 1 3 992 1031 1032 993
1051 3 2 1 3 993 1032 1033 994
1052 3 2 1 3 994 1033 1034 995
1053 3 2 1 3 995 1034 1035 996
1054 3 2 1 3 996 1035 1036 997
1055 3 2 1 3 997 1036 1037 998
1056 3 2 1 3 998 1037 116 117
1057 3 2 1 3 151 152 1038 999
1058 3 2 1 3 999 1038 1039 1000
1059 3 2 1 3 1000 1039 1040 1001
1060 3 2 1 3 1001 1040 1041 1002
1061 3 2 1 3 1002 1041 1042 1003
1062 3 2 1 3 1003 1042 1043 1004
1063 3 2 1 3 1004 1043 1044 1005
1064 3 2 1 3 1005 1044 1045 1006
1065 3 2 1 3 1006 1045 1046 1007
1066 3 2 1 3 1007 1046 1047 1008
1067 3 2 1 3 1008 1047 1048 1009
1068 3 2 1 3 1009 1048 1049 1010
1069 3 2 1 3 1010 1049 1050 1011
1070 3 2 1 3 1011 1050 1051 1012
1071 3 2 1 3 1012 1051 1052 1013
1072 3 2 1 3 1013 1052 1053 1014
1073 3 2 1 3 1014 1053 1054 1015
1074 3 2 1 3 1015 1054 1055 1016
1075 3 2 1 3 1016 1055 1056 1017
1076 3 2 1 3 1017 1056 1057 1018
1077 3 2 1 3 1018 1057 1058 1019
1078 3 2 1 3 1019 1058 1059 1020
1079 3 2 1 3 1020 1059 1060 1021
1080 3 2 1 3 1021 1060 1061 1022
1081 3 2 1 3 1022 1061 1062 1023
1082 3 2 1 3 1023 1062 1063 1024
1083 3 2 1 3 1024 1063 1064 1025
1084 3 2 1 3 1025 1064 1065 1026
1085 3 2 1 3 1026 1065 1066 1027
1086 3 2 1 3 1027 1066 1067 1028
1087 3 2 1 3 1028 1067 1068 1029
1088 3 2 1 3 1029 1068 1069 1030
1089 3 2 1 3 1030 1069 1070 1031
1090 3 2 1 3 1031 1070 1071 1032
1091 3 2 1 3 1032 1071 1072 1033
1092 3 2 1 3 1033 1072 1073 1034
1093 3 2 1 3 1034 1073 1074 1035
1094 3 2 1 3 1035 1074 1075 1036
1095 3 2 1 3 1036 1075 1076 1037
1096 3 2 1 3 1037 1076 115 116
1097 3 2 1 3 152 153 1077 1038
1098 3 2 1 3 1038 1077 1078 1039
1099 3 2 1 3 1039 1078 1079 1040
1100 3 2 1 3 1040 1079 1080 1041
1101 3 2 1 3 1041 1080 1081 1042
1102 3 2 1 3 1042 1081 1082 1043
1103 3 2 1 3 1043 1082 1083 1044
1104 3 2 1 3 1044 1083 1084 1045
1105 3 2 1 3 1045 1084 1085 1046
1106 3 2 1 3 1046 1085 1086 1047
1107 3 2 1 3 1047 1086 1087 1048
1108 3 2 1 3 1048 1087 1088 1049
1109 3 2 1 3 1049 1088 1089 1050
1110 3 2 1 3 1050 1089 1090 1051
1111 3 2 1 3 1051 1090 1091 1052
1112 3 2 1 3 1052 1091 1092 1053
1113 3 2 1 3 1053 1092 1093 1054
1114 3 2 1 3 1054 1093 1094 1055
1115 3 2 1 3 1055 1094 1095 1056
1116 3 2 1 3 1056 1095 1096 1057
1117 3 2 1 3 1057 1096 1097 1058
1118 3 2 1 3 1058 1097 1098 1059
1119 3 2 1 3 1059 1098 1099 1060
1120 3 2 1 3 1060 1099 1100 1061
1121 3 2 1 3 1061 1100 1101 1062
1122 3 2 1 3 1062 1101 1102 1063
1123 3 2 1 3 1063 1102 1103 1064
1124 3 2 1 3 1064 1103 1104 1065
1125 3 2 1 3 1065 1104 1105 1066
1126 3 2 1 3 1066 1105 1106 1067
1127 3 2 1 3 1067 1106 1107 1068
1128 3 2 1 3 1068 1107 1108 1069
1129 3 2 1 3 1069 1108 1109 1070
1130 3 2 1 3 1070 1109 1110 1071
1131 3 2 1 3 1071 1110 1111 1072
1132 3 2 1 3 1072 1111 1112 1073
1133 3 2 1 3 1073 1112 1113 1074
1134 3 2 1 3 1074 1113 1114 1075
1135 3 2 1 3 1075 1114 1115 1076
1136 3 2 1 3 1076 1115 114 115
1137 3 2 1 3 153 154 1116 1077
1138 3 2 1 3 1077 1116 1117 1078
1139 3 2 1 3 1078 1117 1118 1079
1140 3 2 1 3 1079 1118 1119 1080
1141 3 2 1 3 1080 1119 1120 1081
1142 3 2 1 3 1081 1120 1121 1082
1143 3 2 1 3 1082 1121 1122 1083
1144 3 2 1 3 1083 1122 1123 1084
1145 3 2 1 3 1084 1123 1124 1085
1146 3 2 1 3 1085 1124 1125 1086
1147 3 2 1 3 1086 1125 1126 1087
1148 3 2 1 3 1087 1126 1127 1088
1149 3 2 1 3 1088 1127 1128 1089
1150 3 2 1 3 1089 1128 1129 1090
1151 3 2 1 3 1090 1129 1130 1091
1152 3 2 1 3 1091 1130 1131 1092
1153 3 2 1 3 1092 1131 1132 1093
1154 3 2 1 3 1093 1132 1133 1094
1155 3 2 1 3 1094 1133 1134 1095
1156 3 2 1 3 1095 1134 1135 1096
1157 3 2 1 3 1096 1135 1136 1097
1158 3 2 1 3 1097 1136 1137 1098
1159 3 2 1 3 1098 1137 1138 1099
1160 3 2 1 3 1099 1138 1139 1100
1161 3 2 1 3 1100 1139 1140 1101
1162 3 2 1 3 1101 1140 1141 1102
1163 3 2 1 3 1102 1141 1142 1103
1164 3 2 1 3 1103 1142 1143 1104
1165 3 2 1 3 1104 1143 1144 1105
1166 3 2 1 3 1105 1144 1145 1106
1167 3 2 1 3 1106 1145 1146 1107
1168 3 2 1 3 1107 1146 1147 1108
1169 3 2 1 3 1108 1147 1148 1109
1170 3 2 1 3 1109 1148 1149 1110
1171 3 2 1 3 1110 1149 1150 1111
1172 3 2 1 3 1111 1150 1151 1112
1173 3 2 1 3 1112 1151 1152 1113
1174 3 2 1 3 1113 1152 1153 1114
1175 3 2 1 3 1114 1153 1154 1115
1176 3 2 1 3 1115 1154 113 114
1177 3 2 1 3 154 155 1155 1116
1178 3 2 1 3 1116 1155 1156 1117
1179 3 2 1 3 1117 1156 1157 1118
1180 3 2 1 3 1118 1157 1158 1119
1181 3 2 1 3 1119 1158 1159 1120
1182 3 2 1 3 1120 1159 1160 1121
1183 3 2 1 3 1121 1160 1161 1122
1184 3 2 1 3 1122 1161 1162 1123
1185 3 2 1 3 1123 1162 1163 1124
1186 3 2 1 3 1124 1163 1164 1125
1187 3 2 1 3 1125 1164 1165 1126
1188 3 2 1 3 1126 1165 1166 1127
1189 3 2 1 3 1127 1166 1167 1128
1190 3 2 1 3 1128 1167 1168 1129
1191 3 2 1 3 1129 1168 1169 1130
1192 3 2 1 3 1130 1169 1170 1131
1193 3 2 1 3 1131 1170 1171 1132
1194 3 2 1 3 1132 1171 1172 1133
1195 3 2 1 3 1133 1172 1173 1134
1196 3 2 1 3 1134 1173 1174 1135
1197 3 2 1 3 1135 1174 1175 1136
1198 3 2 1 3 1136 1175 1176 1137
1199 3 2 1 3 1137 1176 1177 1138
1200 3 2 1 3 1138 1177 1178 1139
1201 3 2 1 3 1139 1178 1179 1140
1202 3 2 1 3 1140 1179 1180 1141
1203 3 2 1 3 1141 1180 1181 1142
1204 3 2 1 3 1142 1181 1182 1143
1205 3 2 1 3 1143 1182 1183 1144
1206 3 2 1 3 1144 1183 1184 1145
1207 3 2 1 3 1145 1184 1185 1146
1208 3 2 1 3 1146 1185 1186 1147
1209 3 2 1 3 1147 1186 1187 1148
1210 3 2 1 3 1148 1187 1188 1149
1211 3 2 1 3 1149 1188 1189 1150
1212 3 2 1 3 1150 1189 1190 1151
1213 3 2 1 3 1151 1190 1191 1152
1214 3 2 1 3 1152 1191 1192 1153
1215 3 2 1 3 1153 1192 1193 1154
1216 3 2 1 3 1154 1193 112 113
1217 3 2 1 3 155 2 61 1155
1218 3 2 1 3 1155 61 60 1156
1219 3 2 1 3 1156 60 59 1157
1220 3 2 1 3 1157 59 58 1158
1221 3 2 1 3 1158 58 57 1159
1222 3 2 1 3 1159 57 56 1160
1223 3 2 1 3 1160 56 55 1161
1224 3 2 1 3 1161 55 54 1162
1225 3 2 1 3 1162 54 53 1163
1226 3 2 1 3 1163 53 52 1164
1227 3 2 1 3 1164 52 51 1165
1228 3 2 1 3 1165 51 50 1166
1229 3 2 1 3 1166 50 49 1167
1230 3 2 1 3 1167 49 48 1168
1231 3 2 1 3 1168 48 47 1169
1232 3 2 1 3 1169 47 46 1170
1233 3 2 1 3 1170 46 45 1171
1234 3 2 1 3 1171 45 44 1172
1235 3 2 1 3 1172 44 43 1173
1236 3 2 1 3 1173 43 42 1174
1237 3 2 1 3 1174 42 41 1175
1238 3 2 1 3 1175 41 40 1176
1239 3 2 1 3 1176 40 39 1177
1240 3 2 1 3 1177 39 38 1178
1241 3 2 1 3 1178 38 37 1179
1242 3 2 1 3 1179 37 36 1180
1243 3 2 1 3 1180 36 35 1181
1244 3 2 1 3 1181 35 34 1182
1245 3 2 1 3 1182 34 33 1183
1246 3 2 1 3 1183 33 32 1184
1247 3 2 1 3 1184 32 31 1185
1248 3 2 1 3 1185 31 30 1186
1249 3 2 1 3 1186 30 29 1187
1250 3 2 1 3 1187 29 28 1188
1251 3 2 1 3 1188 28 27 1189
1252 3 2 1 3 1189 27 26 1190
1253 3 2 1 3 1190 26 25 1191
1254 3 2 1 3 1191 25 24 1192
1255 3 2 1 3 1192 24 23 1193
1256 3 2 1 3 1193 23 1 112
1257 3 2 2 4 8 195 1194 214
1258 3 2 2 4 214 1194 1195 213
1259 3 2 2 4 213 1195 1196 212
1260 3 2 2 4 212 1196 211 11
1261 3 2 2 4 195 196 1197 1194
1262 3 2 2 4 1194 1197 1198 1195
1263 3 2 2 4 1195 1198 1199 1196
1264 3 2 2 4 1196 1199 210 211
1265 3 2 2 4 196 197 1200 1197
1266 3 2 2 4 1197 1200 1201 1198
1267 3 2 2 4 1198 1201 1202 1199
1268 3 2 2 4 1199 1202 209 210
1269 3 2 2 4 197 198 1203 1200
1270 3 2 2 4 1200 1203 1204 1201
1271 3 2 2 4 1201 1204 1205 1202
1272 3 2 2 4 1202 1205 208 209
1273 3 2 2 4 198 199 1206 1203
1274 3 2 2 4 1203 1206 1207 1204
1275 3 2 2 4 1204 1207 1208 1205
1276 3 2 2 4 1205 1208 207 208
1277 3 2 2 4 199 200 1209 1206
1278 3 2 2 4 1206 1209 1210 1207
1279 3 2 2 4 1207 1210 1211 1208
1280 3 2 2 4 1208 1211 206 207
1281 3 2 2 4 200 201 1212 1209
1282 3 2 2 4 1209 1212 1213 1210
1283 3 2 2 4 1210 1213 1214 1211
1284 3 2 2 4 1211 1214 205 206
1285 3 2 2 4 201 9 202 1212
1286 3 2 2 4 1212 202 203 1213
1287 3 2 2 4 1213 203 204 1214
1288 3 2 2 4 1214 204 10 205
$EndElements
