$MeshFormat
2.2 0 8
$EndMeshFormat
$PhysicalNames
9
1 3 "Specimen_Top_Edge"
1 4 "Specimen_Left_Edge"
1 5 "Specimen_Bottom_Edge"
1 6 "Indenter_Top_Edge"
1 7 "Indenter_Left_Edge"
1 8 "Indenter_Bottom_Edge"
1 9 "Indenter_Right_Edge"
2 1 "Specimen_Body"
2 2 "Indenter_Body"
$EndPhysicalNames
$Nodes
1214
1 0.2 0.8 0
2 0.5 0 0
3 0 0 0
4 0 0.8 0
5 0.250439662878749 0.9681322095959701 0
6 0 1 0
7 1 0 0
8 0 1 0
9 1.5 1 0
10 1.5 1.5 0
11 0 1.5 0
12 0.01666666666666669 0.8 0
13 0.0333333333333334 0.8 0
14 0.0500000000000001 0.8 0
15 0.06666666666666679 0.8 0
16 0.08333333333333344 0.8 0
17 0.1000000000000001 0.8 0
18 0.1166666666666668 0.8 0
19 0.1333333333333334 0.8 0
20 0.1500000000000001 0.8 0
21 0.1666666666666667 0.8 0
22 0.1833333333333334 0.8 0
23 0.2075 0.78 0
24 0.215 0.76 0
25 0.2225 0.74 0
26 0.23 0.72 0
27 0.2375 0.7 0
28 0.2450000000000001 0.6799999999999999 0
29 0.2525000000000001 0.6599999999999998 0
30 0.2600000000000001 0.6399999999999998 0
31 0.2675000000000001 0.6199999999999998 0
32 0.2750000000000001 0.5999999999999998 0
33 0.2825000000000001 0.5799999999999997 0
34 0.2900000000000001 0.5599999999999997 0
35 0.2975000000000001 0.5399999999999997 0
36 0.3050000000000002 0.5199999999999996 0
37 0.3125000000000002 0.4999999999999996 0
38 0.3200000000000002 0.4799999999999996 0
39 0.3275000000000001 0.4599999999999996 0
40 0.3350000000000002 0.4399999999999996 0
41 0.3425000000000002 0.4199999999999995 0
42 0.3500000000000002 0.3999999999999995 0
43 0.3575000000000003 0.3799999999999994 0
44 0.3650000000000002 0.3599999999999995 0
45 0.3725000000000002 0.3399999999999995 0
46 0.3800000000000002 0.3199999999999995 0
47 0.3875000000000002 0.2999999999999995 0
48 0.3950000000000002 0.2799999999999996 0
49 0.4025000000000002 0.2599999999999995 0
50 0.4100000000000002 0.2399999999999995 0
51 0.4175000000000001 0.2199999999999996 0
52 0.4250000000000002 0.1999999999999997 0
53 0.4325000000000001 0.1799999999999997 0
54 0.4400000000000001 0.1599999999999998 0
55 0.4475000000000001 0.1399999999999999 0
56 0.4550000000000001 0.1199999999999999 0
57 0.4625 0.09999999999999987 0
58 0.47 0.07999999999999996 0
59 0.4775 0.06000000000000005 0
60 0.485 0.03999999999999992 0
61 0.4925 0.02000000000000002 0
62 0.4583333333333334 0 0
63 0.4166666666666666 0 0
64 0.375 0 0
65 0.3333333333333334 0 0
66 0.2916666666666667 0 0
67 0.25 0 0
68 0.2083333333333334 0 0
69 0.1666666666666667 0 0
70 0.125 0 0
71 0.08333333333333337 0 0
72 0.04166666666666674 0 0
73 0 0.02000000000000003 0
74 0 0.04000000000000006 0
75 0 0.06000000000000009 0
76 0 0.08000000000000014 0
77 0 0.1000000000000002 0
78 0 0.1200000000000002 0
79 0 0.1400000000000002 0
80 0 0.1600000000000003 0
81 0 0.1800000000000004 0
82 0 0.2000000000000004 0
83 0 0.2200000000000004 0
84 0 0.2400000000000005 0
85 0 0.2600000000000005 0
86 0 0.2800000000000004 0
87 0 0.3000000000000004 0
88 0 0.3200000000000004 0
89 0 0.3400000000000004 0
90 0 0.3600000000000004 0
91 0 0.3800000000000003 0
92 0 0.4000000000000003 0
93 0 0.4200000000000004 0
94 0 0.4400000000000003 0
95 0 0.4600000000000005 0
96 0 0.4800000000000004 0
97 0 0.5000000000000004 0
98 0 0.5200000000000005 0
99 0 0.5400000000000004 0
100 0 0.5600000000000003 0
101 0 0.5800000000000004 0
102 0 0.6000000000000003 0
103 0 0.6200000000000003 0
104 0 0.6400000000000003 0
105 0 0.6600000000000003 0
106 0 0.6800000000000002 0
107 0 0.7000000000000002 0
108 0 0.7200000000000002 0
109 0 0.7400000000000002 0
110 0 0.7600000000000001 0
111 0 0.78 0
112 0.204203305239899 0.81401101746633 0
113 0.2084066104797979 0.8280220349326598 0
114 0.2126099157196969 0.8420330523989897 0
115 0.2168132209595959 0.8560440698653196 0
116 0.2210165261994949 0.8700550873316495 0
117 0.2252198314393938 0.8840661047979794 0
118 0.2294231366792928 0.8980771222643094 0
119 0.2336264419191918 0.9120881397306392 0
120 0.2378297471590907 0.926099157196969 0
121 0.2420330523989897 0.9401101746632989 0
122 0.2462363576388886 0.9541211921296288 0
123 0.02109296590094726 0.9997775186457742 0
124 0.04217654621865725 0.999110173579003 0
125 0.06324135954612954 0.9979982617433545 0
126 0.08427803282697204 0.9964422778981309 0
127 0.105277205526064 0.9944429143981182 0
128 0.1262295337946477 0.9920010608855143 0
129 0.1471256946279877 0.9891178038940721 0
130 0.1679563900137622 0.9857944263656317 0
131 0.1887123510693354 0.9820324070792592 0
132 0.2093843421660585 0.9778334199932456 0
133 0.2299631650387833 0.9731993335002574 0
134 0 0.8166666666666667 0
135 0 0.8333333333333334 0
136 0 0.8500000000000001 0
137 0 0.8666666666666667 0
138 0 0.8833333333333333 0
139 0 0.9 0
140 0 0.9166666666666666 0
141 0 0.9333333333333333 0
142 0 0.9500000000000001 0
143 0 0.9666666666666667 0
144 0 0.9833333333333334 0
145 0.9583333333333334 0 0
146 0.9166666666666666 0 0
147 0.875 0 0
148 0.8333333333333334 0 0
149 0.7916666666666667 0 0
150 0.75 0 0
151 0.7083333333333334 0 0
152 0.6666666666666667 0 0
153 0.625 0 0
154 0.5833333333333334 0 0
155 0.5416666666666667 0 0
156 0.2821898005496858 0.9593585963891336 0
157 0.3136337488743117 0.9495440335061062 0
158 0.3447373896741376 0.9386991702141116 0
159 0.375466974020514 0.9268357737052874 0
160 0.4057891588538232 0.9139667163287221 0
161 0.4356710431622811 0.9001059616233468 0
162 0.465080203681103 0.8852685491668297 0
163 0.4939847300732845 0.8694705782569209 0
164 0.5223532595538338 0.8527291904429478 0
165 0.5501550109198851 0.8350625509264208 0
166 0.5773598179497658 0.8164898288509254 0
167 0.6039381621347822 0.7970311765026896 0
168 0.6298612047082016 0.7767077074443982 0
169 0.655100817936689 0.7555414736059703 0
170 0.6796296156402315 0.7335554413571691 0
171 0.703420982907447 0.7107734665879989 0
172 0.7264491049740271 0.6872202688239302 0
173 0.7486889952329846 0.6629214044040395 0
174 0.7701165223463068 0.6379032387511686 0
175 0.7907084364286082 0.6121929177641845 0
176 0.810442394274359 0.5858183383633908 0
177 0.8292969836013253 0.5588081182210429 0
178 0.847251746283913 0.5311915647098135 0
179 0.8642872005512071 0.5029986431028989 0
180 0.8803848621256176 0.4742599440602772 0
181 0.8955272642792016 0.4450066504363828 0
182 0.9096979767858915 0.415270503445231 0
183 0.9228816237490719 0.3850837682196908 0
184 0.935063900285158 0.3544791988022825 0
185 0.9462315880450746 0.3234900026054843 0
186 0.956372569556793 0.2921498043801111 0
187 0.9654758413733632 0.2604926097308645 0
188 0.9735315260121784 0.228552768218631 0
189 0.9805308826725122 0.1963649360895782 0
190 0.986466316719703 0.1639640386714805 0
191 0.9913313879256933 0.1313852324780779 0
192 0.995120817456984 0.09866386706258699 0
193 0.9978304936024188 0.06583544666175892 0
194 0.9994574762345867 0.03293559167208964 0
195 0.1875 1 0
196 0.375 1 0
197 0.5625 1 0
198 0.75 1 0
199 0.9375 1 0
200 1.125 1 0
201 1.3125 1 0
202 1.5 1.125 0
203 1.5 1.25 0
204 1.5 1.375 0
205 1.3125 1.5 0
206 1.125 1.5 0
207 0.9375 1.5 0
208 0.75 1.5 0
209 0.5625 1.5 0
210 0.375 1.5 0
211 0.1875 1.5 0
212 0 1.375 0
213 0 1.25 0
214 0 1.125 0
215 0.4514583333333334 0.01999999999999985 0
216 0.4445833333333334 0.04000000000000004 0
217 0.4377083333333334 0.06 0
218 0.4308333333333335 0.08000000000000002 0
219 0.4239583333333334 0.09999999999999992 0
220 0.4170833333333335 0.12 0
221 0.4102083333333335 0.1399999999999998 0
222 0.4033333333333335 0.1599999999999998 0
223 0.3964583333333335 0.1799999999999998 0
224 0.3895833333333335 0.1999999999999998 0
225 0.3827083333333335 0.2199999999999997 0
226 0.3758333333333336 0.2399999999999996 0
227 0.3689583333333336 0.2599999999999996 0
228 0.3620833333333336 0.2799999999999997 0
229 0.3552083333333336 0.2999999999999996 0
230 0.3483333333333336 0.3199999999999996 0
231 0.3414583333333336 0.3399999999999995 0
232 0.3345833333333336 0.3599999999999996 0
233 0.3277083333333336 0.3799999999999996 0
234 0.3208333333333336 0.3999999999999996 0
235 0.3139583333333336 0.4199999999999996 0
236 0.3070833333333336 0.4399999999999996 0
237 0.3002083333333335 0.4599999999999997 0
238 0.2933333333333336 0.4799999999999998 0
239 0.2864583333333335 0.4999999999999997 0
240 0.2795833333333335 0.5199999999999997 0
241 0.2727083333333334 0.5399999999999998 0
242 0.2658333333333335 0.5599999999999998 0
243 0.2589583333333335 0.5799999999999998 0
244 0.2520833333333335 0.5999999999999999 0
245 0.2452083333333334 0.6199999999999999 0
246 0.2383333333333335 0.6399999999999998 0
247 0.2314583333333335 0.6599999999999999 0
248 0.2245833333333334 0.6799999999999999 0
249 0.2177083333333334 0.7 0
250 0.2108333333333334 0.72 0
251 0.2039583333333334 0.7400000000000001 0
252 0.1970833333333334 0.7599999999999999 0
253 0.1902083333333334 0.78 0
254 0.4104166666666667 0.01999999999999991 0
255 0.4041666666666667 0.04000000000000004 0
256 0.3979166666666666 0.05999999999999994 0
257 0.3916666666666667 0.08000000000000002 0
258 0.3854166666666667 0.1 0
259 0.3791666666666668 0.1199999999999999 0
260 0.3729166666666667 0.1399999999999999 0
261 0.3666666666666668 0.1599999999999999 0
262 0.3604166666666668 0.1799999999999997 0
263 0.3541666666666668 0.1999999999999997 0
264 0.3479166666666668 0.2199999999999997 0
265 0.3416666666666668 0.2399999999999998 0
266 0.3354166666666669 0.2599999999999997 0
267 0.3291666666666668 0.2799999999999998 0
268 0.3229166666666669 0.2999999999999997 0
269 0.3166666666666669 0.3199999999999996 0
270 0.3104166666666669 0.3399999999999996 0
271 0.3041666666666669 0.3599999999999997 0
272 0.2979166666666669 0.3799999999999996 0
273 0.2916666666666669 0.3999999999999997 0
274 0.2854166666666669 0.4199999999999997 0
275 0.2791666666666668 0.4399999999999997 0
276 0.2729166666666668 0.4599999999999997 0
277 0.2666666666666668 0.4799999999999998 0
278 0.2604166666666669 0.4999999999999998 0
279 0.2541666666666669 0.5199999999999998 0
280 0.2479166666666668 0.5399999999999998 0
281 0.2416666666666668 0.5599999999999998 0
282 0.2354166666666668 0.5799999999999998 0
283 0.2291666666666669 0.5999999999999999 0
284 0.2229166666666668 0.6199999999999999 0
285 0.2166666666666668 0.6399999999999999 0
286 0.2104166666666668 0.6599999999999999 0
287 0.2041666666666667 0.6799999999999999 0
288 0.1979166666666667 0.7 0
289 0.1916666666666668 0.7200000000000001 0
290 0.1854166666666667 0.74 0
291 0.1791666666666667 0.76 0
292 0.1729166666666668 0.78 0
293 0.3693750000000001 0.01999999999999985 0
294 0.3637500000000001 0.03999999999999998 0
295 0.358125 0.05999999999999994 0
296 0.3525000000000001 0.08000000000000002 0
297 0.346875 0.1000000000000001 0
298 0.3412500000000001 0.1199999999999999 0
299 0.3356250000000001 0.1399999999999999 0
300 0.3300000000000001 0.1599999999999999 0
301 0.3243750000000001 0.1799999999999999 0
302 0.3187500000000001 0.1999999999999999 0
303 0.3131250000000002 0.2199999999999999 0
304 0.3075000000000002 0.2399999999999997 0
305 0.3018750000000002 0.2599999999999998 0
306 0.2962500000000002 0.2799999999999999 0
307 0.2906250000000002 0.2999999999999997 0
308 0.2850000000000002 0.3199999999999996 0
309 0.2793750000000002 0.3399999999999997 0
310 0.2737500000000002 0.3599999999999998 0
311 0.2681250000000003 0.3799999999999997 0
312 0.2625000000000002 0.3999999999999998 0
313 0.2568750000000002 0.4199999999999997 0
314 0.2512500000000003 0.4399999999999997 0
315 0.2456250000000001 0.4599999999999999 0
316 0.2400000000000002 0.4799999999999999 0
317 0.2343750000000002 0.4999999999999998 0
318 0.2287500000000002 0.5199999999999999 0
319 0.2231250000000002 0.5399999999999999 0
320 0.2175000000000001 0.5599999999999998 0
321 0.2118750000000001 0.58 0
322 0.2062500000000001 0.5999999999999999 0
323 0.2006250000000001 0.6199999999999999 0
324 0.1950000000000001 0.6399999999999999 0
325 0.1893750000000001 0.6599999999999999 0
326 0.1837500000000001 0.6799999999999999 0
327 0.1781250000000001 0.7 0
328 0.1725 0.72 0
329 0.1668750000000001 0.74 0
330 0.1612500000000001 0.7599999999999999 0
331 0.1556250000000001 0.78 0
332 0.3283333333333334 0.01999999999999985 0
333 0.3233333333333334 0.04000000000000004 0
334 0.3183333333333334 0.05999999999999994 0
335 0.3133333333333335 0.08000000000000007 0
336 0.3083333333333335 0.1000000000000001 0
337 0.3033333333333335 0.12 0
338 0.2983333333333335 0.14 0
339 0.2933333333333334 0.1600000000000001 0
340 0.2883333333333336 0.18 0
341 0.2833333333333335 0.1999999999999999 0
342 0.2783333333333335 0.2199999999999999 0
343 0.2733333333333335 0.2399999999999998 0
344 0.2683333333333336 0.2599999999999999 0
345 0.2633333333333336 0.2799999999999999 0
346 0.2583333333333335 0.2999999999999998 0
347 0.2533333333333336 0.3199999999999997 0
348 0.2483333333333336 0.3399999999999997 0
349 0.2433333333333336 0.3599999999999998 0
350 0.2383333333333336 0.3799999999999998 0
351 0.2333333333333336 0.3999999999999998 0
352 0.2283333333333336 0.4199999999999997 0
353 0.2233333333333336 0.4399999999999998 0
354 0.2183333333333336 0.4599999999999999 0
355 0.2133333333333335 0.4799999999999999 0
356 0.2083333333333335 0.4999999999999999 0
357 0.2033333333333336 0.5199999999999999 0
358 0.1983333333333336 0.5399999999999999 0
359 0.1933333333333336 0.5599999999999999 0
360 0.1883333333333336 0.58 0
361 0.1833333333333336 0.6 0
362 0.1783333333333336 0.62 0
363 0.1733333333333336 0.6399999999999999 0
364 0.1683333333333336 0.6599999999999999 0
365 0.1633333333333336 0.6799999999999999 0
366 0.1583333333333335 0.7000000000000001 0
367 0.1533333333333335 0.72 0
368 0.1483333333333335 0.74 0
369 0.1433333333333335 0.76 0
370 0.1383333333333335 0.78 0
371 0.2872916666666667 0.01999999999999996 0
372 0.2829166666666668 0.04000000000000004 0
373 0.2785416666666668 0.06000000000000016 0
374 0.2741666666666668 0.07999999999999996 0
375 0.2697916666666668 0.1000000000000001 0
376 0.2654166666666669 0.1200000000000001 0
377 0.2610416666666667 0.14 0
378 0.2566666666666668 0.16 0
379 0.2522916666666668 0.18 0
380 0.2479166666666669 0.1999999999999999 0
381 0.2435416666666669 0.22 0
382 0.2391666666666669 0.2399999999999999 0
383 0.2347916666666669 0.2599999999999999 0
384 0.2304166666666669 0.28 0
385 0.2260416666666668 0.2999999999999999 0
386 0.2216666666666669 0.3199999999999998 0
387 0.2172916666666669 0.3399999999999999 0
388 0.2129166666666669 0.3599999999999999 0
389 0.2085416666666669 0.3799999999999998 0
390 0.2041666666666669 0.3999999999999998 0
391 0.1997916666666669 0.4199999999999998 0
392 0.1954166666666669 0.4399999999999998 0
393 0.1910416666666668 0.46 0
394 0.1866666666666669 0.48 0
395 0.1822916666666669 0.5 0
396 0.1779166666666668 0.52 0
397 0.1735416666666668 0.54 0
398 0.1691666666666667 0.5599999999999999 0
399 0.1647916666666668 0.5800000000000001 0
400 0.1604166666666668 0.6 0
401 0.1560416666666668 0.62 0
402 0.1516666666666669 0.64 0
403 0.1472916666666667 0.66 0
404 0.1429166666666668 0.68 0
405 0.1385416666666668 0.7 0
406 0.1341666666666667 0.72 0
407 0.1297916666666668 0.74 0
408 0.1254166666666667 0.76 0
409 0.1210416666666668 0.78 0
410 0.2462500000000001 0.02000000000000013 0
411 0.2425 0.03999999999999998 0
412 0.23875 0.06000000000000005 0
413 0.2350000000000001 0.08000000000000007 0
414 0.23125 0.1000000000000001 0
415 0.2275 0.12 0
416 0.2237500000000001 0.14 0
417 0.2200000000000001 0.16 0
418 0.21625 0.18 0
419 0.2125000000000001 0.2 0
420 0.2087500000000002 0.22 0
421 0.2050000000000001 0.24 0
422 0.2012500000000002 0.26 0
423 0.1975000000000001 0.2800000000000001 0
424 0.1937500000000001 0.3 0
425 0.1900000000000001 0.3199999999999999 0
426 0.1862500000000002 0.34 0
427 0.1825000000000002 0.3599999999999999 0
428 0.1787500000000002 0.3799999999999999 0
429 0.1750000000000002 0.3999999999999999 0
430 0.1712500000000002 0.4199999999999999 0
431 0.1675000000000002 0.4399999999999999 0
432 0.1637500000000001 0.4600000000000001 0
433 0.1600000000000001 0.48 0
434 0.1562500000000001 0.5 0
435 0.1525000000000002 0.52 0
436 0.1487500000000002 0.54 0
437 0.1450000000000001 0.5600000000000001 0
438 0.14125 0.5800000000000001 0
439 0.1375000000000002 0.6000000000000001 0
440 0.1337500000000002 0.6200000000000001 0
441 0.1300000000000001 0.6400000000000001 0
442 0.12625 0.66 0
443 0.1225000000000001 0.68 0
444 0.1187500000000002 0.7000000000000001 0
445 0.1150000000000001 0.72 0
446 0.11125 0.7400000000000001 0
447 0.1075000000000002 0.76 0
448 0.1037500000000001 0.78 0
449 0.2052083333333334 0.02000000000000002 0
450 0.2020833333333334 0.03999999999999998 0
451 0.1989583333333333 0.06000000000000005 0
452 0.1958333333333334 0.08000000000000002 0
453 0.1927083333333335 0.1000000000000002 0
454 0.1895833333333334 0.1200000000000002 0
455 0.1864583333333334 0.14 0
456 0.1833333333333335 0.16 0
457 0.1802083333333334 0.1800000000000002 0
458 0.1770833333333334 0.2000000000000001 0
459 0.1739583333333335 0.2200000000000001 0
460 0.1708333333333334 0.24 0
461 0.1677083333333335 0.2600000000000001 0
462 0.1645833333333335 0.2800000000000001 0
463 0.1614583333333334 0.3 0
464 0.1583333333333336 0.32 0
465 0.1552083333333334 0.34 0
466 0.1520833333333335 0.36 0
467 0.1489583333333335 0.38 0
468 0.1458333333333335 0.4 0
469 0.1427083333333334 0.42 0
470 0.1395833333333335 0.4399999999999999 0
471 0.1364583333333334 0.4600000000000001 0
472 0.1333333333333334 0.4800000000000001 0
473 0.1302083333333334 0.5000000000000001 0
474 0.1270833333333335 0.5200000000000001 0
475 0.1239583333333335 0.54 0
476 0.1208333333333335 0.5600000000000001 0
477 0.1177083333333335 0.5800000000000002 0
478 0.1145833333333335 0.6000000000000001 0
479 0.1114583333333334 0.6200000000000001 0
480 0.1083333333333334 0.6400000000000001 0
481 0.1052083333333334 0.6600000000000001 0
482 0.1020833333333335 0.6799999999999999 0
483 0.09895833333333348 0.7000000000000002 0
484 0.09583333333333338 0.72 0
485 0.09270833333333345 0.74 0
486 0.0895833333333334 0.7600000000000002 0
487 0.08645833333333336 0.78 0
488 0.1641666666666667 0.02000000000000007 0
489 0.1616666666666668 0.04000000000000009 0
490 0.1591666666666667 0.06000000000000005 0
491 0.1566666666666667 0.08000000000000002 0
492 0.1541666666666668 0.1000000000000001 0
493 0.1516666666666667 0.1200000000000001 0
494 0.1491666666666668 0.14 0
495 0.1466666666666669 0.1600000000000003 0
496 0.1441666666666668 0.1800000000000002 0
497 0.1416666666666669 0.2000000000000002 0
498 0.1391666666666668 0.2200000000000001 0
499 0.1366666666666668 0.2400000000000001 0
500 0.1341666666666668 0.2600000000000002 0
501 0.1316666666666668 0.2800000000000002 0
502 0.1291666666666668 0.3 0
503 0.1266666666666668 0.3200000000000001 0
504 0.1241666666666668 0.3400000000000001 0
505 0.121666666666667 0.3600000000000001 0
506 0.1191666666666669 0.3800000000000001 0
507 0.1166666666666669 0.4000000000000001 0
508 0.114166666666667 0.4200000000000001 0
509 0.111666666666667 0.4400000000000001 0
510 0.1091666666666669 0.4600000000000002 0
511 0.1066666666666669 0.4800000000000001 0
512 0.1041666666666668 0.5000000000000001 0
513 0.1016666666666668 0.5200000000000002 0
514 0.09916666666666685 0.5400000000000001 0
515 0.09666666666666685 0.5600000000000002 0
516 0.09416666666666684 0.5800000000000002 0
517 0.09166666666666684 0.6000000000000001 0
518 0.08916666666666684 0.6200000000000002 0
519 0.08666666666666684 0.6400000000000001 0
520 0.08416666666666683 0.6600000000000001 0
521 0.08166666666666678 0.68 0
522 0.07916666666666677 0.7000000000000002 0
523 0.07666666666666683 0.72 0
524 0.07416666666666688 0.74 0
525 0.07166666666666682 0.7600000000000002 0
526 0.06916666666666682 0.78 0
527 0.1231250000000002 0.02000000000000002 0
528 0.12125 0.04000000000000009 0
529 0.119375 0.06000000000000005 0
530 0.1175 0.07999999999999996 0
531 0.1156250000000001 0.1000000000000001 0
532 0.11375 0.1200000000000001 0
533 0.1118750000000001 0.1400000000000001 0
534 0.11 0.1600000000000003 0
535 0.108125 0.1800000000000002 0
536 0.1062500000000001 0.2000000000000002 0
537 0.1043750000000002 0.2200000000000002 0
538 0.1025000000000001 0.2400000000000002 0
539 0.1006250000000001 0.2600000000000002 0
540 0.09875000000000023 0.2800000000000002 0
541 0.0968750000000001 0.3000000000000002 0
542 0.09500000000000008 0.3200000000000002 0
543 0.09312500000000001 0.3400000000000001 0
544 0.09125000000000011 0.3600000000000002 0
545 0.0893750000000002 0.3800000000000001 0
546 0.08750000000000008 0.4000000000000001 0
547 0.08562500000000012 0.4200000000000002 0
548 0.0837500000000001 0.4400000000000001 0
549 0.08187500000000009 0.4600000000000003 0
550 0.08000000000000018 0.4800000000000002 0
551 0.07812500000000011 0.5000000000000002 0
552 0.0762500000000001 0.5200000000000002 0
553 0.07437500000000025 0.5400000000000003 0
554 0.07250000000000006 0.5600000000000002 0
555 0.07062500000000016 0.5800000000000003 0
556 0.06875000000000014 0.6000000000000002 0
557 0.06687500000000007 0.6200000000000002 0
558 0.06500000000000011 0.6400000000000001 0
559 0.0631250000000001 0.6600000000000001 0
560 0.06125000000000008 0.6800000000000002 0
561 0.05937500000000023 0.7000000000000002 0
562 0.05750000000000011 0.7200000000000002 0
563 0.05562500000000015 0.7400000000000002 0
564 0.05375000000000019 0.7600000000000002 0
565 0.05187500000000006 0.78 0
566 0.08208333333333334 0.01999999999999996 0
567 0.08083333333333337 0.04000000000000015 0
568 0.07958333333333339 0.06000000000000016 0
569 0.07833333333333337 0.07999999999999996 0
570 0.0770833333333335 0.1000000000000001 0
571 0.07583333333333331 0.1200000000000001 0
572 0.07458333333333345 0.1400000000000002 0
573 0.07333333333333336 0.1600000000000003 0
574 0.07208333333333333 0.1800000000000003 0
575 0.07083333333333341 0.2000000000000003 0
576 0.06958333333333344 0.2200000000000003 0
577 0.06833333333333336 0.2400000000000004 0
578 0.06708333333333344 0.2600000000000003 0
579 0.06583333333333347 0.2800000000000004 0
580 0.06458333333333344 0.3000000000000003 0
581 0.06333333333333341 0.3200000000000002 0
582 0.06208333333333343 0.3400000000000002 0
583 0.06083333333333335 0.3600000000000002 0
584 0.05958333333333332 0.3800000000000002 0
585 0.05833333333333346 0.4000000000000001 0
586 0.05708333333333343 0.4200000000000002 0
587 0.05583333333333346 0.4400000000000002 0
588 0.05458333333333348 0.4600000000000004 0
589 0.05333333333333334 0.4800000000000003 0
590 0.05208333333333343 0.5000000000000003 0
591 0.05083333333333345 0.5200000000000004 0
592 0.04958333333333337 0.5400000000000003 0
593 0.04833333333333339 0.5600000000000002 0
594 0.04708333333333342 0.5800000000000003 0
595 0.04583333333333339 0.6000000000000002 0
596 0.04458333333333331 0.6200000000000003 0
597 0.04333333333333345 0.6400000000000001 0
598 0.04208333333333347 0.6600000000000001 0
599 0.04083333333333328 0.6800000000000002 0
600 0.03958333333333341 0.7000000000000002 0
601 0.03833333333333339 0.7200000000000002 0
602 0.03708333333333341 0.7400000000000002 0
603 0.03583333333333338 0.7600000000000001 0
604 0.03458333333333335 0.78 0
605 0.04104166666666687 0.01999999999999996 0
606 0.04041666666666688 0.0400000000000002 0
607 0.03979166666666661 0.06000000000000016 0
608 0.03916666666666679 0.0799999999999999 0
609 0.03854166666666675 0.1000000000000003 0
610 0.03791666666666693 0.1200000000000002 0
611 0.03729166666666678 0.1400000000000002 0
612 0.03666666666666674 0.1600000000000003 0
613 0.03604166666666681 0.1800000000000004 0
614 0.03541666666666682 0.2000000000000003 0
615 0.03479166666666678 0.2200000000000004 0
616 0.03416666666666668 0.2400000000000004 0
617 0.03354166666666669 0.2600000000000004 0
618 0.03291666666666671 0.2800000000000003 0
619 0.03229166666666677 0.3000000000000004 0
620 0.03166666666666673 0.3200000000000003 0
621 0.03104166666666675 0.3400000000000003 0
622 0.03041666666666676 0.3600000000000003 0
623 0.02979166666666683 0.3800000000000002 0
624 0.02916666666666673 0.4000000000000002 0
625 0.02854166666666669 0.4200000000000003 0
626 0.02791666666666676 0.4400000000000002 0
627 0.02729166666666671 0.4600000000000004 0
628 0.02666666666666684 0.4800000000000003 0
629 0.02604166666666674 0.5000000000000004 0
630 0.02541666666666675 0.5200000000000005 0
631 0.02479166666666666 0.5400000000000004 0
632 0.02416666666666673 0.5600000000000003 0
633 0.02354166666666679 0.5800000000000003 0
634 0.02291666666666681 0.6000000000000003 0
635 0.02229166666666671 0.6200000000000003 0
636 0.02166666666666672 0.6400000000000002 0
637 0.02104166666666674 0.6600000000000003 0
638 0.02041666666666669 0.6800000000000002 0
639 0.01979166666666671 0.7000000000000002 0
640 0.01916666666666672 0.7200000000000002 0
641 0.01854166666666679 0.7400000000000002 0
642 0.01791666666666669 0.7600000000000002 0
643 0.01729166666666676 0.78 0
644 0.01703552493619009 0.8166481265538145 0
645 0.01740438320571353 0.833296253107629 0
646 0.01777324147523701 0.8499443796614436 0
647 0.01814209974476039 0.8665925062152582 0
648 0.01851095801428376 0.8832406327690726 0
649 0.01887981628380703 0.8998887593228873 0
650 0.01924867455333057 0.9165368858767017 0
651 0.01961753282285378 0.9331850124305161 0
652 0.01998639109237732 0.9498331389843307 0
653 0.0203552493619007 0.9664812655381453 0
654 0.02072410763142402 0.9831293920919598 0
655 0.03407026774044369 0.8165925144649169 0
656 0.03480720214755417 0.8331850289298338 0
657 0.03554413655466443 0.8497775433947509 0
658 0.03628107096177474 0.8663700578596677 0
659 0.03701800536888511 0.8829625723245846 0
660 0.03775493977599548 0.8995550867895015 0
661 0.03849187418310579 0.9161476012544184 0
662 0.03922880859021616 0.9327401157193352 0
663 0.03996574299732641 0.9493326301842523 0
664 0.04070267740443667 0.9659251446491691 0
665 0.04143961181154698 0.9825176591140861 0
666 0.05110344662884431 0.8164998551452795 0
667 0.05220689325768835 0.8329997102905591 0
668 0.0533103398865325 0.8494995654358387 0
669 0.05441378651537671 0.8659994205811182 0
670 0.05551723314422069 0.8824992757263976 0
671 0.0566206797730649 0.8989991308716772 0
672 0.0577241264019091 0.9154989860169567 0
673 0.05882757303075314 0.9319988411622365 0
674 0.0599310196595973 0.9484986963075159 0
675 0.06103446628844139 0.9649985514527954 0
676 0.06213791291728554 0.9814984065980749 0
677 0.0681342805133589 0.8163701898248442 0
678 0.06960189436005099 0.8327403796496885 0
679 0.07106950820674318 0.8491105694745329 0
680 0.07253712205343527 0.865480759299377 0
681 0.07400473590012729 0.8818509491242212 0
682 0.07547234974681966 0.8982211389490655 0
683 0.07693996359351152 0.9145913287739097 0
684 0.07840757744020366 0.930961518598754 0
685 0.0798751912868958 0.9473317084235982 0
686 0.08134280513358799 0.9637018982484425 0
687 0.08281041898028013 0.9800720880732868 0
688 0.08516198934939428 0.8162035761998431 0
689 0.08699064536545525 0.8324071523996863 0
690 0.08881930138151606 0.8486107285995297 0
691 0.09064795739757697 0.8648143047993726 0
692 0.09247661341363789 0.8810178809992159 0
693 0.09430526942969875 0.8972214571990591 0
694 0.0961339254457596 0.9134250333989022 0
695 0.09796258146182046 0.9296286095987456 0
696 0.09979123747788138 0.9458321857985886 0
697 0.1016198934939423 0.962035761998432 0
698 0.1034485495100032 0.9782393381982752 0
699 0.1021857944828873 0.8160000884071262 0
700 0.1043715889657748 0.8320001768142524 0
701 0.106557383448662 0.8480002652213786 0
702 0.1087431779315494 0.8640003536285048 0
703 0.1109289724144367 0.8800004420356311 0
704 0.1131147668973241 0.8960005304427572 0
705 0.1153005613802113 0.9120006188498833 0
706 0.1174863558630986 0.9280007072570097 0
707 0.1196721503459859 0.9440007956641356 0
708 0.1218579448288732 0.9600008840712621 0
709 0.1240437393117605 0.9760009724783881 0
710 0.1192049189967769 0.8157598169911727 0
711 0.1217431713268869 0.8315196339823453 0
712 0.124281423656997 0.8472794509735181 0
713 0.1268196759871071 0.8630392679646908 0
714 0.1293579283172172 0.8787990849558633 0
715 0.1318961806473273 0.894558901947036 0
716 0.1344344329774374 0.9103187189382087 0
717 0.1369726853075474 0.9260785359293816 0
718 0.1395109376376575 0.941838352920554 0
719 0.1420491899677677 0.9575981699117267 0
720 0.1445874422978777 0.9733579869028993 0
721 0.1362185880567024 0.8154828688638027 0
722 0.1391038427800717 0.8309657377276053 0
723 0.1419890975034407 0.8464486065914079 0
724 0.1448743522268098 0.8619314754552106 0
725 0.1477596069501789 0.8774143443190132 0
726 0.1506448616735478 0.8928972131828159 0
727 0.153530116396917 0.9083800820466187 0
728 0.156415371120286 0.9238629509104213 0
729 0.1593006258436551 0.9393458197742238 0
730 0.1621858805670242 0.9548286886380266 0
731 0.1650711352903932 0.9703115575018291 0
732 0.153226029255778 0.8151693672566049 0
733 0.156452058511556 0.8303387345132099 0
734 0.1596780877673339 0.8455081017698147 0
735 0.1629041170231118 0.8606774690264196 0
736 0.1661301462788898 0.8758468362830247 0
737 0.1693561755346678 0.8910162035396296 0
738 0.1725822047904458 0.9061855707962345 0
739 0.1758082340462237 0.9213549380528396 0
740 0.1790342633020017 0.9365243053094443 0
741 0.1822602925577795 0.9516936725660493 0
742 0.1854863218135575 0.9668630398226542 0
743 0.1702264729582827 0.8148194516661038 0
744 0.1737862792498988 0.8296389033322076 0
745 0.1773460855415147 0.8444583549983116 0
746 0.1809058918331307 0.8592778066644153 0
747 0.1844656981247467 0.8740972583305191 0
748 0.1880255044163626 0.8889167099966229 0
749 0.1915853107079786 0.9037361616627266 0
750 0.1951451169995947 0.9185556133288305 0
751 0.1987049232912106 0.9333750649949343 0
752 0.2022647295828266 0.9481945166610383 0
753 0.2058245358744426 0.9630139683271418 0
754 0.1872191526421209 0.8144332777916883 0
755 0.1911049719509083 0.8288665555833763 0
756 0.1949907912596958 0.8432998333750645 0
757 0.1988766105684833 0.8577331111667525 0
758 0.2027624298772708 0.8721663889584406 0
759 0.2066482491860584 0.8865996667501289 0
760 0.2105340684948458 0.901032944541817 0
761 0.2144198878036333 0.9154662223335049 0
762 0.2183057071124208 0.9298995001251931 0
763 0.2221915264212083 0.9443327779168812 0
764 0.2260773457299958 0.9587660557085693 0
765 0.9572110198817043 0.03185762569941541 0
766 0.9550946191355507 0.06368249277327903 0
767 0.9519857493355686 0.09544187814070482 0
768 0.9478871055985523 0.1271031297715713 0
769 0.9428024569930613 0.1586337021155237 0
770 0.9367366424498029 0.1900011914154467 0
771 0.9296955655111636 0.2211733708670783 0
772 0.9216861879255829 0.2521182255866259 0
773 0.912716522093727 0.282803987348435 0
774 0.9027956223746518 0.3131991690550273 0
775 0.8919335752613951 0.3432725989020923 0
776 0.8801414884366492 0.3729934542013833 0
777 0.8674314787204005 0.4023312948247951 0
778 0.8538166589226015 0.4312560962333509 0
779 0.8393111236151495 0.459738282055254 0
780 0.8239299338386066 0.4877487561776573 0
781 0.8076891007602536 0.5152589343173291 0
782 0.790605568301215 0.542240775035956 0
783 0.7726971947514958 0.5686668101664416 0
784 0.753982733392891 0.5945101746171692 0
785 0.7344818121507812 0.6197446355219046 0
786 0.7142149122969026 0.6443446207037028 0
787 0.6932033462261915 0.668285246421936 0
788 0.6714692343318265 0.6915423443723324 0
789 0.6490354810035457 0.7140924879107384 0
790 0.6259257497752982 0.7359130174721396 0
791 0.6021644376491849 0.7569820651573651 0
792 0.5777766486235505 0.777278578460799 0
793 0.552788166453952 0.7967823431133484 0
794 0.5272254266765614 0.8154740050158857 0
795 0.5011154879243478 0.8333350912393689 0
796 0.4744860025671774 0.8503480300688442 0
797 0.4473651867076778 0.866496170069594 0
798 0.4197817895654243 0.8817637981547346 0
799 0.3917650622826713 0.896136156634662 0
800 0.3633447261854712 0.9095994592298468 0
801 0.3345509405346261 0.9221409060296023 0
802 0.3054142698014524 0.9337486973805974 0
803 0.2759656505038787 0.944412046690039 0
804 0.9149645635288222 0.0307796597267414 0
805 0.9123587446686823 0.06152953888479906 0
806 0.9088506812141532 0.09221988921882263 0
807 0.9044428232714111 0.1228210270650649 0
808 0.8991385972664192 0.153303365559567 0
809 0.8929424022270935 0.1836374467413151 0
810 0.8858596050101488 0.2137939735155257 0
811 0.8778965344778027 0.2437438414423871 0
812 0.8690604746306607 0.2734581703167592 0
813 0.8593596567042288 0.3029083355045701 0
814 0.8488032502376317 0.3320659990019021 0
815 0.8374013531242265 0.3609031401830756 0
816 0.8251649806549097 0.3893920862043592 0
817 0.8121060535660014 0.417505542030319 0
818 0.7982373851046813 0.4452166200502309 0
819 0.7835726671260059 0.4724988692524157 0
820 0.7681264552365943 0.4993263039248447 0
821 0.7519141530011044 0.5256734318508691 0
822 0.7349519952286326 0.5515152819694924 0
823 0.7172570303571736 0.5768274314701538 0
824 0.6988471019552558 0.6015860322926405 0
825 0.6797408293608205 0.6257678370033662 0
826 0.659957587478356 0.6493502240199418 0
827 0.6395174857562059 0.6723112221566658 0
828 0.6184413463668597 0.6946295344643076 0
829 0.5967506816139075 0.7162845613383086 0
830 0.574467670590168 0.737256422870332 0
831 0.5516151351123185 0.7575259804189081 0
832 0.5282165149581382 0.7770748573757713 0
833 0.5042958424332376 0.7958854591053507 0
834 0.4798777162948616 0.8139409920357898 0
835 0.4549872750610705 0.8312254818807675 0
836 0.4296501697342525 0.8477237909723583 0
837 0.4038925359685676 0.8634216346861225 0
838 0.3777409657115194 0.8783055969406017 0
839 0.3512224783504284 0.8923631447544063 0
840 0.3243644913951147 0.9055826418450932 0
841 0.2971947907285932 0.9179533612550886 0
842 0.2697415004580715 0.9294654969909448 0
843 0.8727181071759401 0.02970169375406717 0
844 0.8696228702018142 0.05937658499631926 0
845 0.8657156130927379 0.08899790029694032 0
846 0.86099854094427 0.1185389243585584 0
847 0.8554747375397773 0.1479730290036103 0
848 0.8491481620043843 0.1772737020671836 0
849 0.842023644509134 0.2064145761639732 0
850 0.8341068810300224 0.2353694572981484 0
851 0.8254044271675947 0.2641123532850832 0
852 0.8159236910338059 0.2926175019541132 0
853 0.8056729252138686 0.3208593991017118 0
854 0.7946612178118039 0.348812826164768 0
855 0.7828984825894187 0.3764528775839232 0
856 0.7703954482094013 0.4037549878272871 0
857 0.7571636465942133 0.4306949580452079 0
858 0.7432154004134055 0.457248982327174 0
859 0.7285638097129348 0.4833936735323601 0
860 0.7132227377009941 0.5091060886657821 0
861 0.6972067957057694 0.534363753772543 0
862 0.6805313273214562 0.5591446883231384 0
863 0.6632123917597303 0.5834274290633763 0
864 0.6452667464247386 0.6071910533030296 0
865 0.6267118287305204 0.6304152016179476 0
866 0.6075657371805854 0.6530800999409991 0
867 0.5878472117301736 0.6751665810178769 0
868 0.5675756134525168 0.6966561052044776 0
869 0.5467709035311512 0.7175307805832987 0
870 0.5254536216010868 0.7377733823770172 0
871 0.5036448634623244 0.7573673716381939 0
872 0.4813662581899139 0.7762969131948156 0
873 0.4586399446653754 0.7945468928322109 0
874 0.4354885475549634 0.8121029336926907 0
875 0.4119351527608274 0.8289514118751224 0
876 0.3880032823717109 0.8450794712175101 0
877 0.3637168691403675 0.8604750372465415 0
878 0.3391002305153856 0.8751268302789655 0
879 0.3141780422556033 0.8890243776605837 0
880 0.2889753116557339 0.9021580251295798 0
881 0.2635173504122644 0.9145189472918501 0
882 0.830471650823058 0.02862372778139299 0
883 0.826886995734946 0.05722363110783923 0
884 0.8225805449713228 0.08577591137505791 0
885 0.8175542586171289 0.114256821652052 0
886 0.8118108778131354 0.1426426924476536 0
887 0.8053539217816748 0.170909957393052 0
888 0.798187684008119 0.1990351788124206 0
889 0.7903172275822423 0.2269950731539096 0
890 0.7817483797045287 0.2547665362534072 0
891 0.7724877253633831 0.2823266684036562 0
892 0.7625426001901054 0.3096527992015216 0
893 0.7519210824993814 0.3367225121464604 0
894 0.7406319845239279 0.3635136689634873 0
895 0.7286848428528012 0.3900044336242551 0
896 0.7160899080837452 0.4161732960401848 0
897 0.7028581337008049 0.4419990954019325 0
898 0.6890011641892755 0.4674610431398756 0
899 0.6745313224008838 0.4925387454806953 0
900 0.6594615961829062 0.5172122255755938 0
901 0.643805624285739 0.5414619451761229 0
902 0.6275776815642047 0.5652688258341123 0
903 0.6107926634886566 0.5886142696026929 0
904 0.5934660699826849 0.6114801792159534 0
905 0.5756139886049649 0.6338489777253326 0
906 0.5572530770934878 0.6557036275714461 0
907 0.538400545291126 0.6770276490706468 0
908 0.5190741364721345 0.6978051382962654 0
909 0.4992921080898549 0.7180207843351264 0
910 0.4790732119665106 0.7376598859006169 0
911 0.4584366739465902 0.7567083672842807 0
912 0.4374021730358893 0.7751527936286321 0
913 0.4159898200488564 0.7929803855046139 0
914 0.3942201357874021 0.8101790327778866 0
915 0.3721140287748541 0.826737307748898 0
916 0.3496927725692155 0.8426444775524815 0
917 0.3269779826803427 0.857890515803525 0
918 0.3039915931160918 0.8724661134760745 0
919 0.2807558325828746 0.8863626890040709 0
920 0.2572932003664573 0.8995723975927559 0
921 0.7882251944701757 0.02754576180871898 0
922 0.7841511212680776 0.05507067721935938 0
923 0.7794454768499073 0.08255392245317578 0
924 0.7741099762899879 0.1099747189455456 0
925 0.7681470180864935 0.1373123558916969 0
926 0.7615596815589654 0.1645462127189206 0
927 0.7543517235071042 0.1916557814608681 0
928 0.7465275741344619 0.2186206890096709 0
929 0.7380923322414628 0.2454207192217314 0
930 0.7290517596929604 0.2720358348531991 0
931 0.7194122751663423 0.2984461993013313 0
932 0.7091809471869588 0.3246321981281528 0
933 0.6983654864584369 0.3505744603430513 0
934 0.6869742374962012 0.3762538794212232 0
935 0.6750161695732773 0.4016516340351616 0
936 0.6625008669882043 0.4267492084766908 0
937 0.6494385186656161 0.4515284127473912 0
938 0.6358399071007732 0.4759714022956083 0
939 0.621716396660043 0.5000606973786446 0
940 0.6070799212500216 0.5237792020291075 0
941 0.5919429713686792 0.5471102226048483 0
942 0.5763185805525746 0.5700374859023564 0
943 0.5602203112348494 0.5925451568139593 0
944 0.5436622400293443 0.614617855509666 0
945 0.5266589424568019 0.6362406741250153 0
946 0.5092254771297353 0.657399192936816 0
947 0.4913773694131178 0.6780794960092322 0
948 0.4731305945786231 0.6982681862932356 0
949 0.4545015604706968 0.7179524001630398 0
950 0.4355070897032664 0.7371198213737455 0
951 0.4161644014064032 0.7557586944250529 0
952 0.3964910925427494 0.7738578373165372 0
953 0.3765051188139769 0.7914066536806508 0
954 0.3562247751779974 0.8083951442802857 0
955 0.3356686759980636 0.8248139178584213 0
956 0.3148557348452999 0.8406542013280844 0
957 0.2938051439765803 0.8559078492915653 0
958 0.2725363535100152 0.870567352878562 0
959 0.2510690503206501 0.8846258478936614 0
960 0.7459787381172934 0.02646779583604475 0
961 0.7414152468012095 0.05291772333087946 0
962 0.736310408728492 0.07933193353129359 0
963 0.7306656939628466 0.105692616239039 0
964 0.7244831583598516 0.1319820193357401 0
965 0.7177654413362562 0.158182468044789 0
966 0.7105157630060892 0.1842763841093155 0
967 0.7027379206866817 0.2102463048654322 0
968 0.6944362847783967 0.2360749021900555 0
969 0.6856157940225374 0.261745001302742 0
970 0.6762819501425792 0.2872395994011412 0
971 0.6664408118745361 0.3125418841098452 0
972 0.6560989883929459 0.3376352517226153 0
973 0.645263632139601 0.3625033252181913 0
974 0.633942431062809 0.3871299720301384 0
975 0.6221436002756037 0.4114993215514492 0
976 0.6098758731419567 0.4355957823549066 0
977 0.5971484918006629 0.4594040591105213 0
978 0.5839711971371797 0.4829091691816952 0
979 0.5703542182143042 0.5060964588820921 0
980 0.5563082611731536 0.5289516193755841 0
981 0.5418444976164924 0.5514607022020196 0
982 0.5269745524870137 0.573610134411965 0
983 0.5117104914537236 0.5953867332939995 0
984 0.4960648078201159 0.6167777206785845 0
985 0.4800504089683446 0.6377707368029851 0
986 0.463680602354101 0.6583538537221991 0
987 0.4469690810673912 0.6785155882513447 0
988 0.429929908974883 0.6982449144254627 0
989 0.4125775054599427 0.7175312754632104 0
990 0.394926629776917 0.7363645952214739 0
991 0.3769923650366424 0.7547352891284604 0
992 0.3587901018405516 0.7726342745834149 0
993 0.3403355215811407 0.7900529808116735 0
994 0.3216445794269117 0.8069833581643612 0
995 0.3027334870102571 0.8234178868526437 0
996 0.2836186948370689 0.839349585107056 0
997 0.2643168744371559 0.8547720167530533 0
998 0.244844900274843 0.8696792981945669 0
999 0.7037322817644112 0.02538982986337074 0
1000 0.6986793723343413 0.0507647694423996 0
1001 0.6931753406070766 0.07610994460941128 0
1002 0.6872214116357058 0.1014105135325324 0
1003 0.6808192986332098 0.1266516827797834 0
1004 0.6739712011135468 0.1518187233706574 0
1005 0.6666798025050744 0.1768969867577628 0
1006 0.6589482672389015 0.2018719207211934 0
1007 0.6507802373153305 0.2267290851583795 0
1008 0.6421798283521145 0.251454167752285 0
1009 0.6331516251188161 0.2760329995009508 0
1010 0.6237006765621134 0.3004515700915377 0
1011 0.6138324903274549 0.3246960431021794 0
1012 0.6035530267830009 0.3487527710151593 0
1013 0.5928686925523409 0.3726083100251153 0
1014 0.5817863335630032 0.3962494346262075 0
1015 0.5703132276182973 0.419663151962422 0
1016 0.5584570765005524 0.4428367159254343 0
1017 0.5462259976143164 0.4657576409847459 0
1018 0.533628515178587 0.4884137157350766 0
1019 0.520673550977628 0.51079301614632 0
1020 0.5073704146804104 0.5328839185016829 0
1021 0.4937287937391782 0.5546751120099707 0
1022 0.4797587428781031 0.5761556110783327 0
1023 0.4654706731834299 0.5973147672321537 0
1024 0.4508753408069539 0.6181422806691541 0
1025 0.4359838352950842 0.6386282114351658 0
1026 0.4208075675561594 0.6587629902094539 0
1027 0.4053582574790692 0.6785374286878855 0
1028 0.389647921216619 0.6979427295526752 0
1029 0.3736888581474309 0.7169704960178949 0
1030 0.3574936375305353 0.7356127409403836 0
1031 0.3410750848671263 0.753861895486179 0
1032 0.3244462679842839 0.7717108173430611 0
1033 0.3076204828557598 0.7891527984703007 0
1034 0.2906112391752142 0.8061815723772032 0
1035 0.2734322456975574 0.8227913209225466 0
1036 0.2560973953642967 0.8389766806275443 0
1037 0.2386207502290359 0.8547327484954723 0
1038 0.661485825411529 0.02431186389069645 0
1039 0.6559434978674731 0.04861181555391958 0
1040 0.6500402724856614 0.07288795568752909 0
1041 0.6437771293085646 0.09712841082602591 0
1042 0.6371554389065677 0.1213213462238267 0
1043 0.6301769608908375 0.145454978696526 0
1044 0.6228438420040596 0.1695175894062102 0
1045 0.6151586137911211 0.1934975365769547 0
1046 0.6071241898522644 0.2173832681267035 0
1047 0.5987438626816917 0.241163334201828 0
1048 0.5900213000950529 0.2648263996007606 0
1049 0.5809605412496908 0.28836125607323 0
1050 0.571565992261964 0.3117568344817434 0
1051 0.5618424214264007 0.3350022168121274 0
1052 0.5517949540418727 0.3580866480200922 0
1053 0.5414290668504027 0.380999547700966 0
1054 0.5307505820946379 0.4037305215699376 0
1055 0.519765661200442 0.4262693727403473 0
1056 0.5084807980914532 0.4486061127877967 0
1057 0.4969028121428696 0.4707309725880612 0
1058 0.4850388407821025 0.4926344129170559 0
1059 0.4728963317443284 0.5143071348013463 0
1060 0.4604830349913426 0.5357400896079765 0
1061 0.4478069943024825 0.5569244888626661 0
1062 0.434876538546744 0.5778518137857228 0
1063 0.4217002726455631 0.5985138245353232 0
1064 0.4082870682360674 0.6189025691481327 0
1065 0.3946460540449276 0.6390103921675632 0
1066 0.3807866059832554 0.6588299429503084 0
1067 0.3667183369732951 0.6783541836421402 0
1068 0.3524510865179448 0.6975763968143158 0
1069 0.3379949100244283 0.7164901927523069 0
1070 0.3233600678937011 0.7350895163889432 0
1071 0.3085570143874271 0.753368653874449 0
1072 0.2935963862846078 0.7713222387762407 0
1073 0.2784889913401714 0.7889452579017624 0
1074 0.2632457965580459 0.8062330567380374 0
1075 0.2478779162914373 0.8231813445020354 0
1076 0.2323966001832286 0.8397861987963779 0
1077 0.6192393690586467 0.02323389791802238 0
1078 0.6132076234006048 0.04645886166543972 0
1079 0.606905204364246 0.06966596676564679 0
1080 0.6003328469814234 0.09284630811951944 0
1081 0.5934915791799258 0.11599100966787 0
1082 0.5863827206681282 0.1390912340223945 0
1083 0.5790078815030447 0.1621381920546577 0
1084 0.5713689603433409 0.185123152432716 0
1085 0.5634681423891983 0.2080374510950276 0
1086 0.5553078970112688 0.2308725006513709 0
1087 0.5468909750712897 0.2536197997005704 0
1088 0.5382204059372682 0.2762709420549224 0
1089 0.529299494196473 0.2988176258613074 0
1090 0.5201318160698006 0.3212516626090954 0
1091 0.5107212155314046 0.343564986015069 0
1092 0.5010718001378019 0.3657496607757244 0
1093 0.4911879365709784 0.3877978911774531 0
1094 0.4810742459003315 0.4097020295552604 0
1095 0.47073559856859 0.4314545845908473 0
1096 0.4601771091071523 0.4530482294410457 0
1097 0.4494041305865769 0.4744758096877918 0
1098 0.4384222488082463 0.4957303511010095 0
1099 0.4272372762435069 0.5168050672059823 0
1100 0.4158552457268619 0.5376933666469994 0
1101 0.404282403910058 0.558388860339292 0
1102 0.3925252044841724 0.5788853684014924 0
1103 0.3805903011770505 0.5991769268610994 0
1104 0.3684845405336957 0.6192577941256723 0
1105 0.3562149544874416 0.6391224572127312 0
1106 0.3437887527299714 0.658765637731605 0
1107 0.3312133148884586 0.6781822976107368 0
1108 0.3184961825183212 0.6973676445642301 0
1109 0.3056450509202758 0.7163171372917074 0
1110 0.2926677607905703 0.7350264904058367 0
1111 0.2795722897134559 0.7534916790821804 0
1112 0.2663667435051286 0.7717089434263218 0
1113 0.2530593474185344 0.7896747925535279 0
1114 0.239658437218578 0.8073860083765265 0
1115 0.2261724501374215 0.8248396490972834 0
1116 0.5769929127057645 0.02215593194534826 0
1117 0.5704717489337365 0.0443059077769597 0
1118 0.5637701362428308 0.06644397784376443 0
1119 0.5568885646542823 0.08856420541301302 0
1120 0.5498277194532839 0.1106606731119133 0
1121 0.5425884804454189 0.132727489348263 0
1122 0.5351719210020299 0.1547587947031049 0
1123 0.5275793068955607 0.1767487682884772 0
1124 0.5198120949261323 0.1986916340633515 0
1125 0.511871931340846 0.2205816671009138 0
1126 0.5037606500475266 0.2424131998003801 0
1127 0.4954802706248456 0.2641806280366147 0
1128 0.4870329961309822 0.2858784172408715 0
1129 0.4784212107132005 0.3075011084060635 0
1130 0.4696474770209366 0.3290433240100459 0
1131 0.4607145334252015 0.3504997738504828 0
1132 0.4516252910473191 0.3718652607849685 0
1133 0.4423828306002211 0.3931346863701734 0
1134 0.4329903990457268 0.414303056393898 0
1135 0.4234514060714349 0.4353654862940304 0
1136 0.4137694203910514 0.4563172064585277 0
1137 0.4039481658721643 0.4771535674006729 0
1138 0.3939915174956714 0.4978700448039881 0
1139 0.3839034971512413 0.5184622444313329 0
1140 0.3736882692733721 0.5389259068928612 0
1141 0.3633501363227817 0.5592569122676614 0
1142 0.3528935341180338 0.5794512845740662 0
1143 0.3423230270224638 0.5995051960837814 0
1144 0.3316433029916278 0.619414971475154 0
1145 0.3208591684866476 0.63917709182107 0
1146 0.3099755432589724 0.6587881984071579 0
1147 0.2989974550122142 0.6782450963761533 0
1148 0.2879300339468506 0.6975447581944716 0
1149 0.2767785071937136 0.7166843269372244 0
1150 0.2655481931423039 0.7356611193881203 0
1151 0.2542444956700857 0.7544726289508812 0
1152 0.2428728982790229 0.7731165283690186 0
1153 0.2314389581457187 0.7915906722510176 0
1154 0.2199483000916143 0.809893099398189 0
1155 0.5347464563528823 0.02107796597267414 0
1156 0.5277358744668683 0.04215295388847989 0
1157 0.5206350681214154 0.0632219889218823 0
1158 0.5134442823271412 0.0842821027065066 0
1159 0.506163859726642 0.1053303365559566 0
1160 0.4987942402227095 0.1263637446741314 0
1161 0.491335960501015 0.1473793973515524 0
1162 0.4837896534477805 0.1683743841442386 0
1163 0.4761560474630663 0.1893458170316756 0
1164 0.4684359656704231 0.2102908335504568 0
1165 0.4606303250237634 0.2312065999001899 0
1166 0.4527401353124229 0.2520903140183072 0
1167 0.4447664980654912 0.2729392086204355 0
1168 0.4367106053566004 0.2937505542030316 0
1169 0.4285737385104684 0.3145216620050228 0
1170 0.4203572667126009 0.3352498869252411 0
1171 0.4120626455236597 0.355932630392484 0
1172 0.4036914153001107 0.3765673431850864 0
1173 0.3952451995228635 0.3971515281969488 0
1174 0.3867257030357176 0.417682743147015 0
1175 0.3781347101955259 0.4381586032292636 0
1176 0.3694740829360823 0.4585767837003363 0
1177 0.3607457587478358 0.4789350224019939 0
1178 0.3519517485756208 0.4992311222156662 0
1179 0.3430941346366861 0.5194629534464305 0
1180 0.3341750681613909 0.5396284561338306 0
1181 0.325196767059017 0.5597256422870329 0
1182 0.316161513511232 0.5797525980418906 0
1183 0.3070716514958139 0.5997074857375769 0
1184 0.2979295842433239 0.6195885459105348 0
1185 0.2887377716294863 0.6393940992035789 0
1186 0.2794987275061071 0.6591225481880766 0
1187 0.2702150169734254 0.6787723790972358 0
1188 0.2608892535968569 0.6983421634686122 0
1189 0.251524096571152 0.71783055969406 0
1190 0.2421222478350429 0.7372363144754406 0
1191 0.2326864491395115 0.7565582641845092 0
1192 0.2232194790728593 0.7757953361255089 0
1193 0.2137241500458072 0.7949465496990945 0
1194 0.1875 1.125 0
1195 0.1875 1.25 0
1196 0.1875 1.375 0
1197 0.375 1.125 0
1198 0.375 1.25 0
1199 0.375 1.375 0
1200 0.5625 1.125 0
1201 0.5625 1.25 0
1202 0.5625 1.375 0
1203 0.75 1.125 0
1204 0.75 1.25 0
1205 0.75 1.375 0
1206 0.9375 1.125 0
1207 0.9375 1.25 0
1208 0.9375 1.375 0
1209 1.125 1.125 0
1210 1.125 1.25 0
1211 1.125 1.375 0
1212 1.3125 1.125 0
1213 1.3125 1.25 0
1214 1.3125 1.375 0
$EndNodes
$Elements
1288
1 1 2 5 7 2 62
2 1 2 5 7 62 63
3 1 2 5 7 63 64
4 1 2 5 7 64 65
5 1 2 5 7 65 66
6 1 2 5 7 66 67
7 1 2 5 7 67 68
8 1 2 5 7 68 69
9 1 2 5 7 69 70
10 1 2 5 7 70 71
11 1 2 5 7 71 72
12 1 2 5 7 72 3
13 1 2 4 8 3 73
14 1 2 4 8 73 74
15 1 2 4 8 74 75
16 1 2 4 8 75 76
17 1 2 4 8 76 77
18 1 2 4 8 77 78
19 1 2 4 8 78 79
20 1 2 4 8 79 80
21 1 2 4 8 80 81
22 1 2 4 8 81 82
23 1 2 4 8 82 83
24 1 2 4 8 83 84
25 1 2 4 8 84 85
26 1 2 4 8 85 86
27 1 2 4 8 86 87
28 1 2 4 8 87 88
29 1 2 4 8 88 89
30 1 2 4 8 89 90
31 1 2 4 8 90 91
32 1 2 4 8 91 92
33 1 2 4 8 92 93
34 1 2 4 8 93 94
35 1 2 4 8 94 95
36 1 2 4 8 95 96
37 1 2 4 8 96 97
38 1 2 4 8 97 98
39 1 2 4 8 98 99
40 1 2 4 8 99 100
41 1 2 4 8 100 101
42 1 2 4 8 101 102
43 1 2 4 8 102 103
44 1 2 4 8 103 104
45 1 2 4 8 104 105
46 1 2 4 8 105 106
47 1 2 4 8 106 107
48 1 2 4 8 107 108
49 1 2 4 8 108 109
50 1 2 4 8 109 110
51 1 2 4 8 110 111
52 1 2 4 8 111 4
53 1 2 3 10 6 123
54 1 2 3 10 123 124
55 1 2 3 10 124 125
56 1 2 3 10 125 126
57 1 2 3 10 126 127
58 1 2 3 10 127 128
59 1 2 3 10 128 129
60 1 2 3 10 129 130
61 1 2 3 10 130 131
62 1 2 3 10 131 132
63 1 2 3 10 132 133
64 1 2 3 10 133 5
65 1 2 4 11 4 134
66 1 2 4 11 134 135
67 1 2 4 11 135 136
68 1 2 4 11 136 137
69 1 2 4 11 137 138
70 1 2 4 11 138 139
71 1 2 4 11 139 140
72 1 2 4 11 140 141
73 1 2 4 11 141 142
74 1 2 4 11 142 143
75 1 2 4 11 143 144
76 1 2 4 11 144 6
77 1 2 5 12 7 145
78 1 2 5 12 145 146
79 1 2 5 12 146 147
80 1 2 5 12 147 148
81 1 2 5 12 148 149
82 1 2 5 12 149 150
83 1 2 5 12 150 151
84 1 2 5 12 151 152
85 1 2 5 12 152 153
86 1 2 5 12 153 154
87 1 2 5 12 154 155
88 1 2 5 12 155 2
89 1 2 3 13 5 156
90 1 2 3 13 156 157
91 1 2 3 13 157 158
92 1 2 3 13 158 159
93 1 2 3 13 159 160
94 1 2 3 13 160 161
95 1 2 3 13 161 162
96 1 2 3 13 162 163
97 1 2 3 13 163 164
98 1 2 3 13 164 165
99 1 2 3 13 165 166
100 1 2 3 13 166 167
101 1 2 3 13 167 168
102 1 2 3 13 168 169
103 1 2 3 13 169 170
104 1 2 3 13 170 171
105 1 2 3 13 171 172
106 1 2 3 13 172 173
107 1 2 3 13 173 174
108 1 2 3 13 174 175
109 1 2 3 13 175 176
110 1 2 3 13 176 177
111 1 2 3 13 177 178
112 1 2 3 13 178 179
113 1 2 3 13 179 180
114 1 2 3 13 180 181
115 1 2 3 13 181 182
116 1 2 3 13 182 183
117 1 2 3 13 183 184
118 1 2 3 13 184 185
119 1 2 3 13 185 186
120 1 2 3 13 186 187
121 1 2 3 13 187 188
122 1 2 3 13 188 189
123 1 2 3 13 189 190
124 1 2 3 13 190 191
125 1 2 3 13 191 192
126 1 2 3 13 192 193
127 1 2 3 13 193 194
128 1 2 3 13 194 7
129 1 2 8 15 8 195
130 1 2 8 15 195 196
131 1 2 8 15 196 197
132 1 2 8 15 197 198
133 1 2 8 15 198 199
134 1 2 8 15 199 200
135 1 2 8 15 200 201
136 1 2 8 15 201 9
137 1 2 9 16 9 202
138 1 2 9 16 202 203
139 1 2 9 16 203 204
140 1 2 9 16 204 10
141 1 2 6 17 10 205
142 1 2 6 17 205 206
143 1 2 6 17 206 207
144 1 2 6 17 207 208
145 1 2 6 17 208 209
146 1 2 6 17 209 210
147 1 2 6 17 210 211
148 1 2 6 17 211 11
149 1 2 7 18 11 212
150 1 2 7 18 212 213
151 1 2 7 18 213 214
152 1 2 7 18 214 8
153 3 2 1 1 2 62 215 61
154 3 2 1 1 61 215 216 60
155 3 2 1 1 60 216 217 59
156 3 2 1 1 59 217 218 58
157 3 2 1 1 58 218 219 57
158 3 2 1 1 57 219 220 56
159 3 2 1 1 56 220 221 55
160 3 2 1 1 55 221 222 54
161 3 2 1 1 54 222 223 53
162 3 2 1 1 53 223 224 52
163 3 2 1 1 52 224 225 51
164 3 2 1 1 51 225 226 50
165 3 2 1 1 50 226 227 49
166 3 2 1 1 49 227 228 48
167 3 2 1 1 48 228 229 47
168 3 2 1 1 47 229 230 46
169 3 2 1 1 46 230 231 45
170 3 2 1 1 45 231 232 44
171 3 2 1 1 44 232 233 43
172 3 2 1 1 43 233 234 42
173 3 2 1 1 42 234 235 41
174 3 2 1 1 41 235 236 40
175 3 2 1 1 40 236 237 39
176 3 2 1 1 39 237 238 38
177 3 2 1 1 38 238 239 37
178 3 2 1 1 37 239 240 36
179 3 2 1 1 36 240 241 35
180 3 2 1 1 35 241 242 34
181 3 2 1 1 34 242 243 33
182 3 2 1 1 33 243 244 32
183 3 2 1 1 32 244 245 31
184 3 2 1 1 31 245 246 30
185 3 2 1 1 30 246 247 29
186 3 2 1 1 29 247 248 28
187 3 2 1 1 28 248 249 27
188 3 2 1 1 27 249 250 26
189 3 2 1 1 26 250 251 25
190 3 2 1 1 25 251 252 24
191 3 2 1 1 24 252 253 23
192 3 2 1 1 23 253 22 1
193 3 2 1 1 62 63 254 215
194 3 2 1 1 215 254 255 216
195 3 2 1 1 216 255 256 217
196 3 2 1 1 217 256 257 218
197 3 2 1 1 218 257 258 219
198 3 2 1 1 219 258 259 220
199 3 2 1 1 220 259 260 221
200 3 2 1 1 221 260 261 222
201 3 2 1 1 222 261 262 223
202 3 2 1 1 223 262 263 224
203 3 2 1 1 224 263 264 225
204 3 2 1 1 225 264 265 226
205 3 2 1 1 226 265 266 227
206 3 2 1 1 227 266 267 228
207 3 2 1 1 228 267 268 229
208 3 2 1 1 229 268 269 230
209 3 2 1 1 230 269 270 231
210 3 2 1 1 231 270 271 232
211 3 2 1 1 232 271 272 233
212 3 2 1 1 233 272 273 234
213 3 2 1 1 234 273 274 235
214 3 2 1 1 235 274 275 236
215 3 2 1 1 236 275 276 237
216 3 2 1 1 237 276 277 238
217 3 2 1 1 238 277 278 239
218 3 2 1 1 239 278 279 240
219 3 2 1 1 240 279 280 241
220 3 2 1 1 241 280 281 242
221 3 2 1 1 242 281 282 243
222 3 2 1 1 243 282 283 244
223 3 2 1 1 244 283 284 245
224 3 2 1 1 245 284 285 246
225 3 2 1 1 246 285 286 247
226 3 2 1 1 247 286 287 248
227 3 2 1 1 248 287 288 249
228 3 2 1 1 249 288 289 250
229 3 2 1 1 250 289 290 251
230 3 2 1 1 251 290 291 252
231 3 2 1 1 252 291 292 253
232 3 2 1 1 253 292 21 22
233 3 2 1 1 63 64 293 254
234 3 2 1 1 254 293 294 255
235 3 2 1 1 255 294 295 256
236 3 2 1 1 256 295 296 257
237 3 2 1 1 257 296 297 258
238 3 2 1 1 258 297 298 259
239 3 2 1 1 259 298 299 260
240 3 2 1 1 260 299 300 261
241 3 2 1 1 261 300 301 262
242 3 2 1 1 262 301 302 263
243 3 2 1 1 263 302 303 264
244 3 2 1 1 264 303 304 265
245 3 2 1 1 265 304 305 266
246 3 2 1 1 266 305 306 267
247 3 2 1 1 267 306 307 268
248 3 2 1 1 268 307 308 269
249 3 2 1 1 269 308 309 270
250 3 2 1 1 270 309 310 271
251 3 2 1 1 271 310 311 272
252 3 2 1 1 272 311 312 273
253 3 2 1 1 273 312 313 274
254 3 2 1 1 274 313 314 275
255 3 2 1 1 275 314 315 276
256 3 2 1 1 276 315 316 277
257 3 2 1 1 277 316 317 278
258 3 2 1 1 278 317 318 279
259 3 2 1 1 279 318 319 280
260 3 2 1 1 280 319 320 281
261 3 2 1 1 281 320 321 282
262 3 2 1 1 282 321 322 283
263 3 2 1 1 283 322 323 284
264 3 2 1 1 284 323 324 285
265 3 2 1 1 285 324 325 286
266 3 2 1 1 286 325 326 287
267 3 2 1 1 287 326 327 288
268 3 2 1 1 288 327 328 289
269 3 2 1 1 289 328 329 290
270 3 2 1 1 290 329 330 291
271 3 2 1 1 291 330 331 292
272 3 2 1 1 292 331 20 21
273 3 2 1 1 64 65 332 293
274 3 2 1 1 293 332 333 294
275 3 2 1 1 294 333 334 295
276 3 2 1 1 295 334 335 296
277 3 2 1 1 296 335 336 297
278 3 2 1 1 297 336 337 298
279 3 2 1 1 298 337 338 299
280 3 2 1 1 299 338 339 300
281 3 2 1 1 300 339 340 301
282 3 2 1 1 301 340 341 302
283 3 2 1 1 302 341 342 303
284 3 2 1 1 303 342 343 304
285 3 2 1 1 304 343 344 305
286 3 2 1 1 305 344 345 306
287 3 2 1 1 306 345 346 307
288 3 2 1 1 307 346 347 308
289 3 2 1 1 308 347 348 309
290 3 2 1 1 309 348 349 310
291 3 2 1 1 310 349 350 311
292 3 2 1 1 311 350 351 312
293 3 2 1 1 312 351 352 313
294 3 2 1 1 313 352 353 314
295 3 2 1 1 314 353 354 315
296 3 2 1 1 315 354 355 316
297 3 2 1 1 316 355 356 317
298 3 2 1 1 317 356 357 318
299 3 2 1 1 318 357 358 319
300 3 2 1 1 319 358 359 320
301 3 2 1 1 320 359 360 321
302 3 2 1 1 321 360 361 322
303 3 2 1 1 322 361 362 323
304 3 2 1 1 323 362 363 324
305 3 2 1 1 324 363 364 325
306 3 2 1 1 325 364 365 326
307 3 2 1 1 326 365 366 327
308 3 2 1 1 327 366 367 328
309 3 2 1 1 328 367 368 329
310 3 2 1 1 329 368 369 330
311 3 2 1 1 330 369 370 331
312 3 2 1 1 331 370 19 20
313 3 2 1 1 65 66 371 332
314 3 2 1 1 332 371 372 333
315 3 2 1 1 333 372 373 334
316 3 2 1 1 334 373 374 335
317 3 2 1 1 335 374 375 336
318 3 2 1 1 336 375 376 337
319 3 2 1 1 337 376 377 338
320 3 2 1 1 338 377 378 339
321 3 2 1 1 339 378 379 340
322 3 2 1 1 340 379 380 341
323 3 2 1 1 341 380 381 342
324 3 2 1 1 342 381 382 343
325 3 2 1 1 343 382 383 344
326 3 2 1 1 344 383 384 345
327 3 2 1 1 345 384 385 346
328 3 2 1 1 346 385 386 347
329 3 2 1 1 347 386 387 348
330 3 2 1 1 348 387 388 349
331 3 2 1 1 349 388 389 350
332 3 2 1 1 350 389 390 351
333 3 2 1 1 351 390 391 352
334 3 2 1 1 352 391 392 353
335 3 2 1 1 353 392 393 354
336 3 2 1 1 354 393 394 355
337 3 2 1 1 355 394 395 356
338 3 2 1 1 356 395 396 357
339 3 2 1 1 357 396 397 358
340 3 2 1 1 358 397 398 359
341 3 2 1 1 359 398 399 360
342 3 2 1 1 360 399 400 361
343 3 2 1 1 361 400 401 362
344 3 2 1 1 362 401 402 363
345 3 2 1 1 363 402 403 364
346 3 2 1 1 364 403 404 365
347 3 2 1 1 365 404 405 366
348 3 2 1 1 366 405 406 367
349 3 2 1 1 367 406 407 368
350 3 2 1 1 368 407 408 369
351 3 2 1 1 369 408 409 370
352 3 2 1 1 370 409 18 19
353 3 2 1 1 66 67 410 371
354 3 2 1 1 371 410 411 372
355 3 2 1 1 372 411 412 373
356 3 2 1 1 373 412 413 374
357 3 2 1 1 374 413 414 375
358 3 2 1 1 375 414 415 376
359 3 2 1 1 376 415 416 377
360 3 2 1 1 377 416 417 378
361 3 2 1 1 378 417 418 379
362 3 2 1 1 379 418 419 380
363 3 2 1 1 380 419 420 381
364 3 2 1 1 381 420 421 382
365 3 2 1 1 382 421 422 383
366 3 2 1 1 383 422 423 384
367 3 2 1 1 384 423 424 385
368 3 2 1 1 385 424 425 386
369 3 2 1 1 386 425 426 387
370 3 2 1 1 387 426 427 388
371 3 2 1 1 388 427 428 389
372 3 2 1 1 389 428 429 390
373 3 2 1 1 390 429 430 391
374 3 2 1 1 391 430 431 392
375 3 2 1 1 392 431 432 393
376 3 2 1 1 393 432 433 394
377 3 2 1 1 394 433 434 395
378 3 2 1 1 395 434 435 396
379 3 2 1 1 396 435 436 397
380 3 2 1 1 397 436 437 398
381 3 2 1 1 398 437 438 399
382 3 2 1 1 399 438 439 400
383 3 2 1 1 400 439 440 401
384 3 2 1 1 401 440 441 402
385 3 2 1 1 402 441 442 403
386 3 2 1 1 403 442 443 404
387 3 2 1 1 404 443 444 405
388 3 2 1 1 405 444 445 406
389 3 2 1 1 406 445 446 407
390 3 2 1 1 407 446 447 408
391 3 2 1 1 408 447 448 409
392 3 2 1 1 409 448 17 18
393 3 2 1 1 67 68 449 410
394 3 2 1 1 410 449 450 411
395 3 2 1 1 411 450 451 412
396 3 2 1 1 412 451 452 413
397 3 2 1 1 413 452 453 414
398 3 2 1 1 414 453 454 415
399 3 2 1 1 415 454 455 416
400 3 2 1 1 416 455 456 417
401 3 2 1 1 417 456 457 418
402 3 2 1 1 418 457 458 419
403 3 2 1 1 419 458 459 420
404 3 2 1 1 420 459 460 421
405 3 2 1 1 421 460 461 422
406 3 2 1 1 422 461 462 423
407 3 2 1 1 423 462 463 424
408 3 2 1 1 424 463 464 425
409 3 2 1 1 425 464 465 426
410 3 2 1 1 426 465 466 427
411 3 2 1 1 427 466 467 428
412 3 2 1 1 428 467 468 429
413 3 2 1 1 429 468 469 430
414 3 2 1 1 430 469 470 431
415 3 2 1 1 431 470 471 432
416 3 2 1 1 432 471 472 433
417 3 2 1 1 433 472 473 434
418 3 2 1 1 434 473 474 435
419 3 2 1 1 435 474 475 436
420 3 2 1 1 436 475 476 437
421 3 2 1 1 437 476 477 438
422 3 2 1 1 438 477 478 439
423 3 2 1 1 439 478 479 440
424 3 2 1 1 440 479 480 441
425 3 2 1 1 441 480 481 442
426 3 2 1 1 442 481 482 443
427 3 2 1 1 443 482 483 444
428 3 2 1 1 444 483 484 445
429 3 2 1 1 445 484 485 446
430 3 2 1 1 446 485 486 447
431 3 2 1 1 447 486 487 448
432 3 2 1 1 448 487 16 17
433 3 2 1 1 68 69 488 449
434 3 2 1 1 449 488 489 450
435 3 2 1 1 450 489 490 451
436 3 2 1 1 451 490 491 452
437 3 2 1 1 452 491 492 453
438 3 2 1 1 453 492 493 454
439 3 2 1 1 454 493 494 455
440 3 2 1 1 455 494 495 456
441 3 2 1 1 456 495 496 457
442 3 2 1 1 457 496 497 458
443 3 2 1 1 458 497 498 459
444 3 2 1 1 459 498 499 460
445 3 2 1 1 460 499 500 461
446 3 2 1 1 461 500 501 462
447 3 2 1 1 462 501 502 463
448 3 2 1 1 463 502 503 464
449 3 2 1 1 464 503 504 465
450 3 2 1 1 465 504 505 466
451 3 2 1 1 466 505 506 467
452 3 2 1 1 467 506 507 468
453 3 2 1 1 468 507 508 469
454 3 2 1 1 469 508 509 470
455 3 2 1 1 470 509 510 471
456 3 2 1 1 471 510 511 472
457 3 2 1 1 472 511 512 473
458 3 2 1 1 473 512 513 474
459 3 2 1 1 474 513 514 475
460 3 2 1 1 475 514 515 476
461 3 2 1 1 476 515 516 477
462 3 2 1 1 477 516 517 478
463 3 2 1 1 478 517 518 479
464 3 2 1 1 479 518 519 480
465 3 2 1 1 480 519 520 481
466 3 2 1 1 481 520 521 482
467 3 2 1 1 482 521 522 483
468 3 2 1 1 483 522 523 484
469 3 2 1 1 484 523 524 485
470 3 2 1 1 485 524 525 486
471 3 2 1 1 486 525 526 487
472 3 2 1 1 487 526 15 16
473 3 2 1 1 69 70 527 488
474 3 2 1 1 488 527 528 489
475 3 2 1 1 489 528 529 490
476 3 2 1 1 490 529 530 491
477 3 2 1 1 491 530 531 492
478 3 2 1 1 492 531 532 493
479 3 2 1 1 493 532 533 494
480 3 2 1 1 494 533 534 495
481 3 2 1 1 495 534 535 496
482 3 2 1 1 496 535 536 497
483 3 2 1 1 497 536 537 498
484 3 2 1 1 498 537 538 499
485 3 2 1 1 499 538 539 500
486 3 2 1 1 500 539 540 501
487 3 2 1 1 501 540 541 502
488 3 2 1 1 502 541 542 503
489 3 2 1 1 503 542 543 504
490 3 2 1 1 504 543 544 505
491 3 2 1 1 505 544 545 506
492 3 2 1 1 506 545 546 507
493 3 2 1 1 507 546 547 508
494 3 2 1 1 508 547 548 509
495 3 2 1 1 509 548 549 510
496 3 2 1 1 510 549 550 511
497 3 2 1 1 511 550 551 512
498 3 2 1 1 512 551 552 513
499 3 2 1 1 513 552 553 514
500 3 2 1 1 514 553 554 515
501 3 2 1 1 515 554 555 516
502 3 2 1 1 516 555 556 517
503 3 2 1 1 517 556 557 518
504 3 2 1 1 518 557 558 519
505 3 2 1 1 519 558 559 520
506 3 2 1 1 520 559 560 521
507 3 2 1 1 521 560 561 522
508 3 2 1 1 522 561 562 523
509 3 2 1 1 523 562 563 524
510 3 2 1 1 524 563 564 525
511 3 2 1 1 525 564 565 526
512 3 2 1 1 526 565 14 15
513 3 2 1 1 70 71 566 527
514 3 2 1 1 527 566 567 528
515 3 2 1 1 528 567 568 529
516 3 2 1 1 529 568 569 530
517 3 2 1 1 530 569 570 531
518 3 2 1 1 531 570 571 532
519 3 2 1 1 532 571 572 533
520 3 2 1 1 533 572 573 534
521 3 2 1 1 534 573 574 535
522 3 2 1 1 535 574 575 536
523 3 2 1 1 536 575 576 537
524 3 2 1 1 537 576 577 538
525 3 2 1 1 538 577 578 539
526 3 2 1 1 539 578 579 540
527 3 2 1 1 540 579 580 541
528 3 2 1 1 541 580 581 542
529 3 2 1 1 542 581 582 543
530 3 2 1 1 543 582 583 544
531 3 2 1 1 544 583 584 545
532 3 2 1 1 545 584 585 546
533 3 2 1 1 546 585 586 547
534 3 2 1 1 547 586 587 548
535 3 2 1 1 548 587 588 549
536 3 2 1 1 549 588 589 550
537 3 2 1 1 550 589 590 551
538 3 2 1 1 551 590 591 552
539 3 2 1 1 552 591 592 553
540 3 2 1 1 553 592 593 554
541 3 2 1 1 554 593 594 555
542 3 2 1 1 555 594 595 556
543 3 2 1 1 556 595 596 557
544 3 2 1 1 557 596 597 558
545 3 2 1 1 558 597 598 559
546 3 2 1 1 559 598 599 560
547 3 2 1 1 560 599 600 561
548 3 2 1 1 561 600 601 562
549 3 2 1 1 562 601 602 563
550 3 2 1 1 563 602 603 564
551 3 2 1 1 564 603 604 565
552 3 2 1 1 565 604 13 14
553 3 2 1 1 71 72 605 566
554 3 2 1 1 566 605 606 567
555 3 2 1 1 567 606 607 568
556 3 2 1 1 568 607 608 569
557 3 2 1 1 569 608 609 570
558 3 2 1 1 570 609 610 571
559 3 2 1 1 571 610 611 572
560 3 2 1 1 572 611 612 573
561 3 2 1 1 573 612 613 574
562 3 2 1 1 574 613 614 575
563 3 2 1 1 575 614 615 576
564 3 2 1 1 576 615 616 577
565 3 2 1 1 577 616 617 578
566 3 2 1 1 578 617 618 579
567 3 2 1 1 579 618 619 580
568 3 2 1 1 580 619 620 581
569 3 2 1 1 581 620 621 582
570 3 2 1 1 582 621 622 583
571 3 2 1 1 583 622 623 584
572 3 2 1 1 584 623 624 585
573 3 2 1 1 585 624 625 586
574 3 2 1 1 586 625 626 587
575 3 2 1 1 587 626 627 588
576 3 2 1 1 588 627 628 589
577 3 2 1 1 589 628 629 590
578 3 2 1 1 590 629 630 591
579 3 2 1 1 591 630 631 592
580 3 2 1 1 592 631 632 593
581 3 2 1 1 593 632 633 594
582 3 2 1 1 594 633 634 595
583 3 2 1 1 595 634 635 596
584 3 2 1 1 596 635 636 597
585 3 2 1 1 597 636 637 598
586 3 2 1 1 598 637 638 599
587 3 2 1 1 599 638 639 600
588 3 2 1 1 600 639 640 601
589 3 2 1 1 601 640 641 602
590 3 2 1 1 602 641 642 603
591 3 2 1 1 603 642 643 604
592 3 2 1 1 604 643 12 13
593 3 2 1 1 72 3 73 605
594 3 2 1 1 605 73 74 606
595 3 2 1 1 606 74 75 607
596 3 2 1 1 607 75 76 608
597 3 2 1 1 608 76 77 609
598 3 2 1 1 609 77 78 610
599 3 2 1 1 610 78 79 611
600 3 2 1 1 611 79 80 612
601 3 2 1 1 612 80 81 613
602 3 2 1 1 613 81 82 614
603 3 2 1 1 614 82 83 615
604 3 2 1 1 615 83 84 616
605 3 2 1 1 616 84 85 617
606 3 2 1 1 617 85 86 618
607 3 2 1 1 618 86 87 619
608 3 2 1 1 619 87 88 620
609 3 2 1 1 620 88 89 621
610 3 2 1 1 621 89 90 622
611 3 2 1 1 622 90 91 623
612 3 2 1 1 623 91 92 624
613 3 2 1 1 624 92 93 625
614 3 2 1 1 625 93 94 626
615 3 2 1 1 626 94 95 627
616 3 2 1 1 627 95 96 628
617 3 2 1 1 628 96 97 629
618 3 2 1 1 629 97 98 630
619 3 2 1 1 630 98 99 631
620 3 2 1 1 631 99 100 632
621 3 2 1 1 632 100 101 633
622 3 2 1 1 633 101 102 634
623 3 2 1 1 634 102 103 635
624 3 2 1 1 635 103 104 636
625 3 2 1 1 636 104 105 637
626 3 2 1 1 637 105 106 638
627 3 2 1 1 638 106 107 639
628 3 2 1 1 639 107 108 640
629 3 2 1 1 640 108 109 641
630 3 2 1 1 641 109 110 642
631 3 2 1 1 642 110 111 643
632 3 2 1 1 643 111 4 12
633 3 2 1 2 4 134 644 12
634 3 2 1 2 134 135 645 644
635 3 2 1 2 135 136 646 645
636 3 2 1 2 136 137 647 646
637 3 2 1 2 137 138 648 647
638 3 2 1 2 138 139 649 648
639 3 2 1 2 139 140 650 649
640 3 2 1 2 140 141 651 650
641 3 2 1 2 141 142 652 651
642 3 2 1 2 142 143 653 652
643 3 2 1 2 143 144 654 653
644 3 2 1 2 144 6 123 654
645 3 2 1 2 12 644 655 13
646 3 2 1 2 644 645 656 655
647 3 2 1 2 645 646 657 656
648 3 2 1 2 646 647 658 657
649 3 2 1 2 647 648 659 658
650 3 2 1 2 648 649 660 659
651 3 2 1 2 649 650 661 660
652 3 2 1 2 650 651 662 661
653 3 2 1 2 651 652 663 662
654 3 2 1 2 652 653 664 663
655 3 2 1 2 653 654 665 664
656 3 2 1 2 654 123 124 665
657 3 2 1 2 13 655 666 14
658 3 2 1 2 655 656 667 666
659 3 2 1 2 656 657 668 667
660 3 2 1 2 657 658 669 668
661 3 2 1 2 658 659 670 669
662 3 2 1 2 659 660 671 670
663 3 2 1 2 660 661 672 671
664 3 2 1 2 661 662 673 672
665 3 2 1 2 662 663 674 673
666 3 2 1 2 663 664 675 674
667 3 2 1 2 664 665 676 675
668 3 2 1 2 665 124 125 676
669 3 2 1 2 14 666 677 15
670 3 2 1 2 666 667 678 677
671 3 2 1 2 667 668 679 678
672 3 2 1 2 668 669 680 679
673 3 2 1 2 669 670 681 680
674 3 2 1 2 670 671 682 681
675 3 2 1 2 671 672 683 682
676 3 2 1 2 672 673 684 683
677 3 2 1 2 673 674 685 684
678 3 2 1 2 674 675 686 685
679 3 2 1 2 675 676 687 686
680 3 2 1 2 676 125 126 687
681 3 2 1 2 15 677 688 16
682 3 2 1 2 677 678 689 688
683 3 2 1 2 678 679 690 689
684 3 2 1 2 679 680 691 690
685 3 2 1 2 680 681 692 691
686 3 2 1 2 681 682 693 692
687 3 2 1 2 682 683 694 693
688 3 2 1 2 683 684 695 694
689 3 2 1 2 684 685 696 695
690 3 2 1 2 685 686 697 696
691 3 2 1 2 686 687 698 697
692 3 2 1 2 687 126 127 698
693 3 2 1 2 16 688 699 17
694 3 2 1 2 688 689 700 699
695 3 2 1 2 689 690 701 700
696 3 2 1 2 690 691 702 701
697 3 2 1 2 691 692 703 702
698 3 2 1 2 692 693 704 703
699 3 2 1 2 693 694 705 704
700 3 2 1 2 694 695 706 705
701 3 2 1 2 695 696 707 706
702 3 2 1 2 696 697 708 707
703 3 2 1 2 697 698 709 708
704 3 2 1 2 698 127 128 709
705 3 2 1 2 17 699 710 18
706 3 2 1 2 699 700 711 710
707 3 2 1 2 700 701 712 711
708 3 2 1 2 701 702 713 712
709 3 2 1 2 702 703 714 713
710 3 2 1 2 703 704 715 714
711 3 2 1 2 704 705 716 715
712 3 2 1 2 705 706 717 716
713 3 2 1 2 706 707 718 717
714 3 2 1 2 707 708 719 718
715 3 2 1 2 708 709 720 719
716 3 2 1 2 709 128 129 720
717 3 2 1 2 18 710 721 19
718 3 2 1 2 710 711 722 721
719 3 2 1 2 711 712 723 722
720 3 2 1 2 712 713 724 723
721 3 2 1 2 713 714 725 724
722 3 2 1 2 714 715 726 725
723 3 2 1 2 715 716 727 726
724 3 2 1 2 716 717 728 727
725 3 2 1 2 717 718 729 728
726 3 2 1 2 718 719 730 729
727 3 2 1 2 719 720 731 730
728 3 2 1 2 720 129 130 731
729 3 2 1 2 19 721 732 20
730 3 2 1 2 721 722 733 732
731 3 2 1 2 722 723 734 733
732 3 2 1 2 723 724 735 734
733 3 2 1 2 724 725 736 735
734 3 2 1 2 725 726 737 736
735 3 2 1 2 726 727 738 737
736 3 2 1 2 727 728 739 738
737 3 2 1 2 728 729 740 739
738 3 2 1 2 729 730 741 740
739 3 2 1 2 730 731 742 741
740 3 2 1 2 731 130 131 742
741 3 2 1 2 20 732 743 21
742 3 2 1 2 732 733 744 743
743 3 2 1 2 733 734 745 744
744 3 2 1 2 734 735 746 745
745 3 2 1 2 735 736 747 746
746 3 2 1 2 736 737 748 747
747 3 2 1 2 737 738 749 748
748 3 2 1 2 738 739 750 749
749 3 2 1 2 739 740 751 750
750 3 2 1 2 740 741 752 751
751 3 2 1 2 741 742 753 752
752 3 2 1 2 742 131 132 753
753 3 2 1 2 21 743 754 22
754 3 2 1 2 743 744 755 754
755 3 2 1 2 744 745 756 755
756 3 2 1 2 745 746 757 756
757 3 2 1 2 746 747 758 757
758 3 2 1 2 747 748 759 758
759 3 2 1 2 748 749 760 759
760 3 2 1 2 749 750 761 760
761 3 2 1 2 750 751 762 761
762 3 2 1 2 751 752 763 762
763 3 2 1 2 752 753 764 763
764 3 2 1 2 753 132 133 764
765 3 2 1 2 22 754 112 1
766 3 2 1 2 754 755 113 112
767 3 2 1 2 755 756 114 113
768 3 2 1 2 756 757 115 114
769 3 2 1 2 757 758 116 115
770 3 2 1 2 758 759 117 116
771 3 2 1 2 759 760 118 117
772 3 2 1 2 760 761 119 118
773 3 2 1 2 761 762 120 119
774 3 2 1 2 762 763 121 120
775 3 2 1 2 763 764 122 121
776 3 2 1 2 764 133 5 122
777 3 2 1 3 7 145 765 194
778 3 2 1 3 194 765 766 193
779 3 2 1 3 193 766 767 192
780 3 2 1 3 192 767 768 191
781 3 2 1 3 191 768 769 190
782 3 2 1 3 190 769 770 189
783 3 2 1 3 189 770 771 188
784 3 2 1 3 188 771 772 187
785 3 2 1 3 187 772 773 186
786 3 2 1 3 186 773 774 185
787 3 2 1 3 185 774 775 184
788 3 2 1 3 184 775 776 183
789 3 2 1 3 183 776 777 182
790 3 2 1 3 182 777 778 181
791 3 2 1 3 181 778 779 180
792 3 2 1 3 180 779 780 179
793 3 2 1 3 179 780 781 178
794 3 2 1 3 178 781 782 177
795 3 2 1 3 177 782 783 176
796 3 2 1 3 176 783 784 175
797 3 2 1 3 175 784 785 174
798 3 2 1 3 174 785 786 173
799 3 2 1 3 173 786 787 172
800 3 2 1 3 172 787 788 171
801 3 2 1 3 171 788 789 170
802 3 2 1 3 170 789 790 169
803 3 2 1 3 169 790 791 168
804 3 2 1 3 168 791 792 167
805 3 2 1 3 167 792 793 166
806 3 2 1 3 166 793 794 165
807 3 2 1 3 165 794 795 164
808 3 2 1 3 164 795 796 163
809 3 2 1 3 163 796 797 162
810 3 2 1 3 162 797 798 161
811 3 2 1 3 161 798 799 160
812 3 2 1 3 160 799 800 159
813 3 2 1 3 159 800 801 158
814 3 2 1 3 158 801 802 157
815 3 2 1 3 157 802 803 156
816 3 2 1 3 156 803 122 5
817 3 2 1 3 145 146 804 765
818 3 2 1 3 765 804 805 766
819 3 2 1 3 766 805 806 767
820 3 2 1 3 767 806 807 768
821 3 2 1 3 768 807 808 769
822 3 2 1 3 769 808 809 770
823 3 2 1 3 770 809 810 771
824 3 2 1 3 771 810 811 772
825 3 2 1 3 772 811 812 773
826 3 2 1 3 773 812 813 774
827 3 2 1 3 774 813 814 775
828 3 2 1 3 775 814 815 776
829 3 2 1 3 776 815 816 777
830 3 2 1 3 777 816 817 778
831 3 2 1 3 778 817 818 779
832 3 2 1 3 779 818 819 780
833 3 2 1 3 780 819 820 781
834 3 2 1 3 781 820 821 782
835 3 2 1 3 782 821 822 783
836 3 2 1 3 783 822 823 784
837 3 2 1 3 784 823 824 785
838 3 2 1 3 785 824 825 786
839 3 2 1 3 786 825 826 787
840 3 2 1 3 787 826 827 788
841 3 2 1 3 788 827 828 789
842 3 2 1 3 789 828 829 790
843 3 2 1 3 790 829 830 791
844 3 2 1 3 791 830 831 792
845 3 2 1 3 792 831 832 793
846 3 2 1 3 793 832 833 794
847 3 2 1 3 794 833 834 795
848 3 2 1 3 795 834 835 796
849 3 2 1 3 796 835 836 797
850 3 2 1 3 797 836 837 798
851 3 2 1 3 798 837 838 799
852 3 2 1 3 799 838 839 800
853 3 2 1 3 800 839 840 801
854 3 2 1 3 801 840 841 802
855 3 2 1 3 802 841 842 803
856 3 2 1 3 803 842 121 122
857 3 2 1 3 146 147 843 804
858 3 2 1 3 804 843 844 805
859 3 2 1 3 805 844 845 806
860 3 2 1 3 806 845 846 807
861 3 2 1 3 807 846 847 808
862 3 2 1 3 808 847 848 809
863 3 2 1 3 809 848 849 810
864 3 2 1 3 810 849 850 811
865 3 2 1 3 811 850 851 812
866 3 2 1 3 812 851 852 813
867 3 2 1 3 813 852 853 814
868 3 2 1 3 814 853 854 815
869 3 2 1 3 815 854 855 816
870 3 2 1 3 816 855 856 817
871 3 2 1 3 817 856 857 818
872 3 2 1 3 818 857 858 819
873 3 2 1 3 819 858 859 820
874 3 2 1 3 820 859 860 821
875 3 2 1 3 821 860 861 822
876 3 2 1 3 822 861 862 823
877 3 2 1 3 823 862 863 824
878 3 2 1 3 824 863 864 825
879 3 2 1 3 825 864 865 826
880 3 2 1 3 826 865 866 827
881 3 2 1 3 827 866 867 828
882 3 2 1 3 828 867 868 829
883 3 2 1 3 829 868 869 830
884 3 2 1 3 830 869 870 831
885 3 2 1 3 831 870 871 832
886 3 2 1 3 832 871 872 833
887 3 2 1 3 833 872 873 834
888 3 2 1 3 834 873 874 835
889 3 2 1 3 835 874 875 836
890 3 2 1 3 836 875 876 837
891 3 2 1 3 837 876 877 838
892 3 2 1 3 838 877 878 839
893 3 2 1 3 839 878 879 840
894 3 2 1 3 840 879 880 841
895 3 2 1 3 841 880 881 842
896 3 2 1 3 842 881 120 121
897 3 2 1 3 147 148 882 843
898 3 2 1 3 843 882 883 844
899 3 2 1 3 844 883 884 845
900 3 2 1 3 845 884 885 846
901 3 2 1 3 846 885 886 847
902 3 2 1 3 847 886 887 848
903 3 2 1 3 848 887 888 849
904 3 2 1 3 849 888 889 850
905 3 2 1 3 850 889 890 851
906 3 2 1 3 851 890 891 852
907 3 2 1 3 852 891 892 853
908 3 2 1 3 853 892 893 854
909 3 2 1 3 854 893 894 855
910 3 2 1 3 855 894 895 856
911 3 2 1 3 856 895 896 857
912 3 2 1 3 857 896 897 858
913 3 2 1 3 858 897 898 859
914 3 2 1 3 859 898 899 860
915 3 2 1 3 860 899 900 861
916 3 2 1 3 861 900 901 862
917 3 2 1 3 862 901 902 863
918 3 2 1 3 863 902 903 864
919 3 2 1 3 864 903 904 865
920 3 2 1 3 865 904 905 866
921 3 2 1 3 866 905 906 867
922 3 2 1 3 867 906 907 868
923 3 2 1 3 868 907 908 869
924 3 2 1 3 869 908 909 870
925 3 2 1 3 870 909 910 871
926 3 2 1 3 871 910 911 872
927 3 2 1 3 872 911 912 873
928 3 2 1 3 873 912 913 874
929 3 2 1 3 874 913 914 875
930 3 2 1 3 875 914 915 876
931 3 2 1 3 876 915 916 877
932 3 2 1 3 877 916 917 878
933 3 2 1 3 878 917 918 879
934 3 2 1 3 879 918 919 880
935 3 2 1 3 880 919 920 881
936 3 2 1 3 881 920 119 120
937 3 2 1 3 148 149 921 882
938 3 2 1 3 882 921 922 883
939 3 2 1 3 883 922 923 884
940 3 2 1 3 884 923 924 885
941 3 2 1 3 885 924 925 886
942 3 2 1 3 886 925 926 887
943 3 2 1 3 887 926 927 888
944 3 2 1 3 888 927 928 889
945 3 2 1 3 889 928 929 890
946 3 2 1 3 890 929 930 891
947 3 2 1 3 891 930 931 892
948 3 2 1 3 892 931 932 893
949 3 2 1 3 893 932 933 894
950 3 2 1 3 894 933 934 895
951 3 2 1 3 895 934 935 896
952 3 2 1 3 896 935 936 897
953 3 2 1 3 897 936 937 898
954 3 2 1 3 898 937 938 899
955 3 2 1 3 899 938 939 900
956 3 2 1 3 900 939 940 901
957 3 2 1 3 901 940 941 902
958 3 2 1 3 902 941 942 903
959 3 2 1 3 903 942 943 904
960 3 2 1 3 904 943 944 905
961 3 2 1 3 905 944 945 906
962 3 2 1 3 906 945 946 907
963 3 2 1 3 907 946 947 908
964 3 2 1 3 908 947 948 909
965 3 2 1 3 909 948 949 910
966 3 2 1 3 910 949 950 911
967 3 2 1 3 911 950 951 912
968 3 2 1 3 912 951 952 913
969 3 2 1 3 913 952 953 914
970 3 2 1 3 914 953 954 915
971 3 2 1 3 915 954 955 916
972 3 2 1 3 916 955 956 917
973 3 2 1 3 917 956 957 918
974 3 2 1 3 918 957 958 919
975 3 2 1 3 919 958 959 920
976 3 2 1 3 920 959 118 119
977 3 2 1 3 149 150 960 921
978 3 2 1 3 921 960 961 922
979 3 2 1 3 922 961 962 923
980 3 2 1 3 923 962 963 924
981 3 2 1 3 924 963 964 925
982 3 2 1 3 925 964 965 926
983 3 2 1 3 926 965 966 927
984 3 2 1 3 927 966 967 928
985 3 2 1 3 928 967 968 929
986 3 2 1 3 929 968 969 930
987 3 2 1 3 930 969 970 931
988 3 2 1 3 931 970 971 932
989 3 2 1 3 932 971 972 933
990 3 2 1 3 933 972 973 934
991 3 2 1 3 934 973 974 935
992 3 2 1 3 935 974 975 936
993 3 2 1 3 936 975 976 937
994 3 2 1 3 937 976 977 938
995 3 2 1 3 938 977 978 939
996 3 2 1 3 939 978 979 940
997 3 2 1 3 940 979 980 941
998 3 2 1 3 941 980 981 942
999 3 2 1 3 942 981 982 943
1000 3 2 1 3 943 982 983 944
1001 3 2 1 3 944 983 984 945
1002 3 2 1 3 945 984 985 946
1003 3 2 1 3 946 985 986 947
1004 3 2 1 3 947 986 987 948
1005 3 2 1 3 948 987 988 949
1006 3 2 1 3 949 988 989 950
1007 3 2 1 3 950 989 990 951
1008 3 2 1 3 951 990 991 952
1009 3 2 1 3 952 991 992 953
1010 3 2 1 3 953 992 993 954
1011 3 2 1 3 954 993 994 955
1012 3 2 1 3 955 994 995 956
1013 3 2 1 3 956 995 996 957
1014 3 2 1 3 957 996 997 958
1015 3 2 1 3 958 997 998 959
1016 3 2 1 3 959 998 117 118
1017 3 2 1 3 150 151 999 960
1018 3 2 1 3 960 999 1000 961
1019 3 2 1 3 961 1000 1001 962
1020 3 2 1 3 962 1001 1002 963
1021 3 2 1 3 963 1002 1003 964
1022 3 2 1 3 964 1003 1004 965
1023 3 2 1 3 965 1004 1005 966
1024 3 2 1 3 966 1005 1006 967
1025 3 2 1 3 967 1006 1007 968
1026 3 2 1 3 968 1007 1008 969
1027 3 2 1 3 969 1008 1009 970
1028 3 2 1 3 970 1009 1010 971
1029 3 2 1 3 971 1010 1011 972
1030 3 2 1 3 972 1011 1012 973
1031 3 2 1 3 973 1012 1013 974
1032 3 2 1 3 974 1013 1014 975
1033 3 2 1 3 975 1014 1015 976
1034 3 2 1 3 976 1015 1016 977
1035 3 2 1 3 977 1016 1017 978
1036 3 2 1 3 978 1017 1018 979
1037 3 2 1 3 979 1018 1019 980
1038 3 2 1 3 980 1019 1020 981
1039 3 2 1 3 981 1020 1021 982
1040 3 2 1 3 982 1021 1022 983
1041 3 2 1 3 983 1022 1023 984
1042 3 2 1 3 984 1023 1024 985
1043 3 2 1 3 985 1024 1025 986
1044 3 2 1 3 986 1025 1026 987
1045 3 2 1 3 987 1026 1027 988
1046 3 2 1 3 988 1027 1028 989
1047 3 2 1 3 989 1028 1029 990
1048 3 2 1 3 990 1029 1030 991
1049 3 2 1 3 991 1030 1031 992
1050 3 2 1 3 992 1031 1032 993
1051 3 2 1 3 993 1032 1033 994
1052 3 2 1 3 994 1033 1034 995
1053 3 2 1 3 995 1034 1035 996
1054 3 2 1 3 996 1035 1036 997
1055 3 2 1 3 997 1036 1037 998
1056 3 2 1 3 998 1037 116 117
1057 3 2 1 3 151 152 1038 999
1058 3 2 1 3 999 1038 1039 1000
1059 3 2 1 3 1000 1039 1040 1001
1060 3 2 1 3 1001 1040 1041 1002
1061 3 2 1 3 1002 1041 1042 1003
1062 3 2 1 3 1003 1042 1043 1004
1063 3 2 1 3 1004 1043 1044 1005
1064 3 2 1 3 1005 1044 1045 1006
1065 3 2 1 3 1006 1045 1046 1007
1066 3 2 1 3 1007 1046 1047 1008
1067 3 2 1 3 1008 1047 1048 1009
1068 3 2 1 3 1009 1048 1049 1010
1069 3 2 1 3 1010 1049 1050 1011
1070 3 2 1 3 1011 1050 1051 1012
1071 3 2 1 3 1012 1051 1052 1013
1072 3 2 1 3 1013 1052 1053 1014
1073 3 2 1 3 1014 1053 1054 1015
1074 3 2 1 3 1015 1054 1055 1016
1075 3 2 1 3 1016 1055 1056 1017
1076 3 2 1 3 1017 1056 1057 1018
1077 3 2 1 3 1018 1057 1058 1019
1078 3 2 1 3 1019 1058 1059 1020
1079 3 2 1 3 1020 1059 1060 1021
1080 3 2 1 3 1021 1060 1061 1022
1081 3 2 1 3 1022 1061 1062 1023
1082 3 2 1 3 1023 1062 1063 1024
1083 3 2 1 3 1024 1063 1064 1025
1084 3 2 1 3 1025 1064 1065 1026
1085 3 2 1 3 1026 1065 1066 1027
1086 3 2 1 3 1027 1066 1067 1028
1087 3 2 1 3 1028 1067 1068 1029
1088 3 2 1 3 1029 1068 1069 1030
1089 3 2 1 3 1030 1069 1070 1031
1090 3 2 1 3 1031 1070 1071 1032
1091 3 2 1 3 1032 1071 1072 1033
1092 3 2 1 3 1033 1072 1073 1034
1093 3 2 1 3 1034 1073 1074 1035
1094 3 2 1 3 1035 1074 1075 1036
1095 3 2 1 3 1036 1075 1076 1037
1096 3 2 1 3 1037 1076 115 116
1097 3 2 1 3 152 153 1077 1038
1098 3 2 1 3 1038 1077 1078 1039
1099 3 2 1 3 1039 1078 1079 1040
1100 3 2 1 3 1040 1079 1080 1041
1101 3 2 1 3 1041 1080 1081 1042
1102 3 2 1 3 1042 1081 1082 1043
1103 3 2 1 3 1043 1082 1083 1044
1104 3 2 1 3 1044 1083 1084 1045
1105 3 2 1 3 1045 1084 1085 1046
1106 3 2 1 3 1046 1085 1086 1047
1107 3 2 1 3 1047 1086 1087 1048
1108 3 2 1 3 1048 1087 1088 1049
1109 3 2 1 3 1049 1088 1089 1050
1110 3 2 1 3 1050 1089 1090 1051
1111 3 2 1 3 1051 1090 1091 1052
1112 3 2 1 3 1052 1091 1092 1053
1113 3 2 1 3 1053 1092 1093 1054
1114 3 2 1 3 1054 1093 1094 1055
1115 3 2 1 3 1055 1094 1095 1056
1116 3 2 1 3 1056 1095 1096 1057
1117 3 2 1 3 1057 1096 1097 1058
1118 3 2 1 3 1058 1097 1098 1059
1119 3 2 1 3 1059 1098 1099 1060
1120 3 2 1 3 1060 1099 1100 1061
1121 3 2 1 3 1061 1100 1101 1062
1122 3 2 1 3 1062 1101 1102 1063
1123 3 2 1 3 1063 1102 1103 1064
1124 3 2 1 3 1064 1103 1104 1065
1125 3 2 1 3 1065 1104 1105 1066
1126 3 2 1 3 1066 1105 1106 1067
1127 3 2 1 3 1067 1106 1107 1068
1128 3 2 1 3 1068 1107 1108 1069
1129 3 2 1 3 1069 1108 1109 1070
1130 3 2 1 3 1070 1109 1110 1071
1131 3 2 1 3 1071 1110 1111 1072
1132 3 2 1 3 1072 1111 1112 1073
1133 3 2 1 3 1073 1112 1113 1074
1134 3 2 1 3 1074 1113 1114 1075
1135 3 2 1 3 1075 1114 1115 1076
1136 3 2 1 3 1076 1115 114 115
1137 3 2 1 3 153 154 1116 1077
1138 3 2 1 3 1077 1116 1117 1078
1139 3 2 1 3 1078 1117 1118 1079
1140 3 2 1 3 1079 1118 1119 1080
1141 3 2 1 3 1080 1119 1120 1081
1142 3 2 1 3 1081 1120 1121 1082
1143 3 2 1 3 1082 1121 1122 1083
1144 3 2 1 3 1083 1122 1123 1084
1145 3 2 1 3 1084 1123 1124 1085
1146 3 2 1 3 1085 1124 1125 1086
1147 3 2 1 3 1086 1125 1126 1087
1148 3 2 1 3 1087 1126 1127 1088
1149 3 2 1 3 1088 1127 1128 1089
1150 3 2 1 3 1089 1128 1129 1090
1151 3 2 1 3 1090 1129 1130 1091
1152 3 2 1 3 1091 1130 1131 1092
1153 3 2 1 3 1092 1131 1132 1093
1154 3 2 1 3 1093 1132 1133 1094
1155 3 2 1 3 1094 1133 1134 1095
1156 3 2 1 3 1095 1134 1135 1096
1157 3 2 1 3 1096 1135 1136 1097
1158 3 2 1 3 1097 1136 1137 1098
1159 3 2 1 3 1098 1137 1138 1099
1160 3 2 1 3 1099 1138 1139 1100
1161 3 2 1 3 1100 1139 1140 1101
1162 3 2 1 3 1101 1140 1141 1102
1163 3 2 1 3 1102 1141 1142 1103
1164 3 2 1 3 1103 1142 1143 1104
1165 3 2 1 3 1104 1143 1144 1105
1166 3 2 1 3 1105 1144 1145 1106
1167 3 2 1 3 1106 1145 1146 1107
1168 3 2 1 3 1107 1146 1147 1108
1169 3 2 1 3 1108 1147 1148 1109
1170 3 2 1 3 1109 1148 1149 1110
1171 3 2 1 3 1110 1149 1150 1111
1172 3 2 1 3 1111 1150 1151 1112
1173 3 2 1 3 1112 1151 1152 1113
1174 3 2 1 3 1113 1152 1153 1114
1175 3 2 1 3 1114 1153 1154 1115
1176 3 2 1 3 1115 1154 113 114
1177 3 2 1 3 154 155 1155 1116
1178 3 2 1 3 1116 1155 1156 1117
1179 3 2 1 3 1117 1156 1157 1118
1180 3 2 1 3 1118 1157 1158 1119
1181 3 2 1 3 1119 1158 1159 1120
1182 3 2 1 3 1120 1159 1160 1121
1183 3 2 1 3 1121 1160 1161 1122
1184 3 2 1 3 1122 1161 1162 1123
1185 3 2 1 3 1123 1162 1163 1124
1186 3 2 1 3 1124 1163 1164 1125
1187 3 2 1 3 1125 1164 1165 1126
1188 3 2 1 3 1126 1165 1166 1127
1189 3 2 1 3 1127 1166 1167 1128
1190 3 2 1 3 1128 1167 1168 1129
1191 3 2 1 3 1129 1168 1169 1130
1192 3 2 1 3 1130 1169 1170 1131
1193 3 2 1 3 1131 1170 1171 1132
1194 3 2 1 3 1132 1171 1172 1133
1195 3 2 1 3 1133 1172 1173 1134
1196 3 2 1 3 1134 1173 1174 1135
1197 3 2 1 3 1135 1174 1175 1136
1198 3 2 1 3 1136 1175 1176 1137
1199 3 2 1 3 1137 1176 1177 1138
1200 3 2 1 3 1138 1177 1178 1139
1201 3 2 1 3 1139 1178 1179 1140
1202 3 2 1 3 1140 1179 1180 1141
1203 3 2 1 3 1141 1180 1181 1142
1204 3 2 1 3 1142 1181 1182 1143
1205 3 2 1 3 1143 1182 1183 1144
1206 3 2 1 3 1144 1183 1184 1145
1207 3 2 1 3 1145 1184 1185 1146
1208 3 2 1 3 1146 1185 1186 1147
1209 3 2 1 3 1147 1186 1187 1148
1210 3 2 1 3 1148 1187 1188 1149
1211 3 2 1 3 1149 1188 1189 1150
1212 3 2 1 3 1150 1189 1190 1151
1213 3 2 1 3 1151 1190 1191 1152
1214 3 2 1 3 1152 1191 1192 1153
1215 3 2 1 3 1153 1192 1193 1154
1216 3 2 1 3 1154 1193 112 113
1217 3 2 1 3 155 2 61 1155
1218 3 2 1 3 1155 61 60 1156
1219 3 2 1 3 1156 60 59 1157
1220 3 2 1 3 1157 59 58 1158
1221 3 2 1 3 1158 58 57 1159
1222 3 2 1 3 1159 57 56 1160
1223 3 2 1 3 1160 56 55 1161
1224 3 2 1 3 1161 55 54 1162
1225 3 2 1 3 1162 54 53 1163
1226 3 2 1 3 1163 53 52 1164
1227 3 2 1 3 1164 52 51 1165
1228 3 2 1 3 1165 51 50 1166
1229 3 2 1 3 1166 50 49 1167
1230 3 2 1 3 1167 49 48 1168
1231 3 2 1 3 1168 48 47 1169
1232 3 2 1 3 1169 47 46 1170
1233 3 2 1 3 1170 46 45 1171
1234 3 2 1 3 1171 45 44 1172
1235 3 2 1 3 1172 44 43 1173
1236 3 2 1 3 1173 43 42 1174
1237 3 2 1 3 1174 42 41 1175
1238 3 2 1 3 1175 41 40 1176
1239 3 2 1 3 1176 40 39 1177
1240 3 2 1 3 1177 39 38 1178
1241 3 2 1 3 1178 38 37 1179
1242 3 2 1 3 1179 37 36 1180
1243 3 2 1 3 1180 36 35 1181
1244 3 2 1 3 1181 35 34 1182
1245 3 2 1 3 1182 34 33 1183
1246 3 2 1 3 1183 33 32 1184
1247 3 2 1 3 1184 32 31 1185
1248 3 2 1 3 1185 31 30 1186
1249 3 2 1 3 1186 30 29 1187
1250 3 2 1 3 1187 29 28 1188
1251 3 2 1 3 1188 28 27 1189
1252 3 2 1 3 1189 27 26 1190
1253 3 2 1 3 1190 26 25 1191
1254 3 2 1 3 1191 25 24 1192
1255 3 2 1 3 1192 24 23 1193
1256 3 2 1 3 1193 23 1 112
1257 3 2 2 4 8 195 1194 214
1258 3 2 2 4 214 1194 1195 213
1259 3 2 2 4 213 1195 1196 212
1260 3 2 2 4 212 1196 211 11
1261 3 2 2 4 195 196 1197 1194
1262 3 2 2 4 1194 1197 1198 1195
1263 3 2 2 4 1195 1198 1199 1196
1264 3 2 2 4 1196 1199 210 211
1265 3 2 2 4 196 197 1200 1197
1266 3 2 2 4 1197 1200 1201 1198
1267 3 2 2 4 1198 1201 1202 1199
1268 3 2 2 4 1199 1202 209 210
1269 3 2 2 4 197 198 1203 1200
1270 3 2 2 4 1200 1203 1204 1201
1271 3 2 2 4 1201 1204 1205 1202
1272 3 2 2 4 1202 1205 208 209
1273 3 2 2 4 198 199 1206 1203
1274 3 2 2 4 1203 1206 1207 1204
1275 3 2 2 4 1204 1207 1208 1205
1276 3 2 2 4 1205 1208 207 208
1277 3 2 2 4 199 200 1209 1206
1278 3 2 2 4 1206 1209 1210 1207
1279 3 2 2 4 1207 1210 1211 1208
1280 3 2 2 4 1208 1211 206 207
1281 3 2 2 4 200 201 1212 1209
1282 3 2 2 4 1209 1212 1213 1210
1283 3 2 2 4 1210 1213 1214 1211
1284 3 2 2 4 1211 1214 205 206
1285 3 2 2 4 201 9 202 1212
1286 3 2 2 4 1212 202 203 1213
1287 3 2 2 4 1213 203 204 1214
1288 3 2 2 4 1214 204 10 205
$EndElements
