$MeshFormat
2.2 0 8
$EndMeshFormat
$PhysicalNames
9
1 3 "Specimen_Top_Edge"
1 4 "Specimen_Left_Edge"
1 5 "Specimen_Bottom_Edge"
1 6 "Indenter_Top_Edge"
1 7 "Indenter_Left_Edge"
1 8 "Indenter_Bottom_Edge"
1 9 "Indenter_Right_Edge"
2 1 "Specimen_Body"
2 2 "Indenter_Body"
$EndPhysicalNames
$Nodes
324
1 0.0027485 0.010994 0
2 0.00687125 0 0
3 0 0 0
4 0 0.010994 0
5 0.003441667067111746 0.0133045568903725 0
6 0 0.0137425 0
7 0.0137425 0 0
8 0 0.0137425 0
9 0.02061375 0.0137425 0
10 0.02061375 0.02061375 0
11 0 0.02061375 0
12 0.0004580833333333338 0.010994 0
13 0.0009161666666666676 0.010994 0
14 0.001374250000000001 0.010994 0
15 0.001832333333333335 0.010994 0
16 0.002290416666666668 0.010994 0
17 0.0029546375 0.0104443 0
18 0.003160775 0.009894600000000002 0
19 0.0033669125 0.009344900000000001 0
20 0.003573049999999999 0.008795200000000001 0
21 0.0037791875 0.008245500000000001 0
22 0.003985325 0.007695800000000003 0
23 0.0041914625 0.007146100000000001 0
24 0.0043976 0.006596400000000001 0
25 0.0046037375 0.006046700000000001 0
26 0.004809875 0.005497000000000001 0
27 0.005016012499999999 0.004947300000000002 0
28 0.005222149999999999 0.004397600000000002 0
29 0.0054282875 0.0038479 0
30 0.005634425 0.0032982 0
31 0.0058405625 0.002748500000000001 0
32 0.0060467 0.002198800000000001 0
33 0.0062528375 0.001649100000000001 0
34 0.006458975 0.001099399999999999 0
35 0.0066651125 0.0005497000000000002 0
36 0.005726041666666666 0 0
37 0.004580833333333333 0 0
38 0.003435624999999999 0 0
39 0.002290416666666666 0 0
40 0.001145208333333333 0 0
41 0 0.0005497000000000003 0
42 0 0.001099400000000001 0
43 0 0.001649100000000001 0
44 0 0.002198800000000002 0
45 0 0.002748500000000003 0
46 0 0.003298200000000003 0
47 0 0.003847900000000003 0
48 0 0.004397600000000004 0
49 0 0.004947300000000005 0
50 0 0.005497000000000005 0
51 0 0.006046700000000007 0
52 0 0.006596400000000006 0
53 0 0.007146100000000006 0
54 0 0.007695800000000006 0
55 0 0.008245500000000006 0
56 0 0.008795200000000005 0
57 0 0.009344900000000003 0
58 0 0.009894600000000002 0
59 0 0.0104443 0
60 0.002864027844518625 0.01137909281506208 0
61 0.00297955568903725 0.01176418563012417 0
62 0.003095083533555875 0.01214927844518625 0
63 0.0032106113780745 0.01253437126024833 0
64 0.003326139222593125 0.01291946407531042 0
65 0.0005796111864099947 0.01373027156040944 0
66 0.001158190866124846 0.01369360800401505 0
67 0.001734709368173225 0.01363257457921914 0
68 0.002308140689764488 0.01354727990432963 0
69 0.002877464322217501 0.01343787577425708 0
70 0 0.01145208333333333 0
71 0 0.01191016666666667 0
72 0 0.01236825 0
73 0 0.01282633333333333 0
74 0 0.01328441666666667 0
75 0.01259729166666667 0 0
76 0.01145208333333333 0 0
77 0.010306875 0 0
78 0.009161666666666667 0 0
79 0.008016458333333334 0 0
80 0.004310111793905727 0.0130491088804575 0
81 0.005159854890477377 0.01273704062014472 0
82 0.005987209310658066 0.01236970617760864 0
83 0.006788585153032494 0.01194869942169552 0
84 0.007560505237566867 0.01147584710610611 0
85 0.008299620193137545 0.01095320094308798 0
86 0.009002722990495215 0.01038302870102981 0
87 0.009666762857605826 0.009767804364585343 0
88 0.01028885851698948 0.009110197400022292 0
89 0.01086631068762031 0.008413061172374094 0
90 0.01139661379714135 0.00767942056465248 0
91 0.01187746685357507 0.006912458852841409 0
92 0.01230678342935701 0.006115503893621826 0
93 0.01268270071437168 0.005292013684758944 0
94 0.01300358759870948 0.004445561360805729 0
95 0.01326805175007347 0.003579819689226299 0
96 0.01347494565512702 0.002698545134210944 0
97 0.01362337159856885 0.001805561557329924 0
98 0.01371268555833124 0.0009047436257491976 0
99 0.005153437500000004 0.0137425 0
100 0.01030687500000001 0.0137425 0
101 0.01546031250000001 0.0137425 0
102 0.02061375 0.017178125 0
103 0.0154603125 0.02061375 0
104 0.01030687499999999 0.02061375 0
105 0.005153437499999988 0.02061375 0
106 0 0.017178125 0
107 0.005554260416666666 0.0005496999999999976 0
108 0.005382479166666666 0.001099399999999996 0
109 0.005210697916666666 0.001649100000000001 0
110 0.005038916666666666 0.002198799999999999 0
111 0.004867135416666666 0.0027485 0
112 0.004695354166666666 0.003298200000000001 0
113 0.004523572916666666 0.0038479 0
114 0.004351791666666666 0.004397600000000002 0
115 0.004180010416666666 0.004947300000000002 0
116 0.004008229166666667 0.005497000000000002 0
117 0.003836447916666666 0.006046700000000002 0
118 0.003664666666666667 0.006596400000000001 0
119 0.003492885416666667 0.007146100000000002 0
120 0.003321104166666666 0.007695800000000002 0
121 0.003149322916666667 0.008245500000000001 0
122 0.002977541666666667 0.008795200000000001 0
123 0.002805760416666666 0.009344900000000003 0
124 0.002633979166666666 0.009894600000000002 0
125 0.002462197916666667 0.0104443 0
126 0.004443408333333333 0.0005497000000000002 0
127 0.004305983333333333 0.001099399999999999 0
128 0.004168558333333332 0.0016491 0
129 0.004031133333333332 0.002198800000000001 0
130 0.003893708333333333 0.002748500000000001 0
131 0.003756283333333333 0.0032982 0
132 0.003618858333333333 0.003847900000000001 0
133 0.003481433333333333 0.004397600000000003 0
134 0.003344008333333333 0.004947300000000003 0
135 0.003206583333333334 0.005497000000000002 0
136 0.003069158333333334 0.006046700000000002 0
137 0.002931733333333334 0.006596400000000002 0
138 0.002794308333333334 0.007146100000000002 0
139 0.002656883333333334 0.007695800000000003 0
140 0.002519458333333334 0.008245500000000003 0
141 0.002382033333333334 0.008795200000000003 0
142 0.002244608333333334 0.009344900000000003 0
143 0.002107183333333334 0.0098946 0
144 0.001969758333333335 0.0104443 0
145 0.003332556249999999 0.0005497000000000011 0
146 0.003229487499999999 0.001099399999999999 0
147 0.003126418749999999 0.0016491 0
148 0.00302335 0.0021988 0
149 0.00292028125 0.002748500000000002 0
150 0.0028172125 0.003298200000000001 0
151 0.00271414375 0.003847900000000001 0
152 0.002611074999999999 0.004397600000000003 0
153 0.00250800625 0.004947300000000003 0
154 0.0024049375 0.005497000000000003 0
155 0.00230186875 0.006046700000000004 0
156 0.0021988 0.006596400000000003 0
157 0.00209573125 0.007146100000000003 0
158 0.0019926625 0.007695800000000004 0
159 0.001889593750000001 0.008245500000000003 0
160 0.001786524999999999 0.008795200000000003 0
161 0.001683456250000001 0.009344900000000003 0
162 0.001580387500000001 0.009894600000000002 0
163 0.001477318750000002 0.0104443 0
164 0.002221704166666667 0.0005497000000000002 0
165 0.002152991666666666 0.0010994 0
166 0.002084279166666668 0.001649099999999999 0
167 0.002015566666666667 0.002198800000000001 0
168 0.001946854166666667 0.002748500000000002 0
169 0.001878141666666666 0.003298200000000002 0
170 0.001809429166666667 0.003847900000000002 0
171 0.001740716666666668 0.004397600000000003 0
172 0.001672004166666667 0.004947300000000004 0
173 0.001603291666666666 0.005497000000000004 0
174 0.001534579166666667 0.006046700000000005 0
175 0.001465866666666667 0.006596400000000004 0
176 0.001397154166666668 0.007146100000000004 0
177 0.001328441666666667 0.007695800000000004 0
178 0.001259729166666668 0.008245500000000003 0
179 0.001191016666666667 0.008795200000000003 0
180 0.001122304166666667 0.009344900000000003 0
181 0.001053591666666667 0.0098946 0
182 0.0009848791666666684 0.0104443 0
183 0.001110852083333332 0.0005496999999999993 0
184 0.001076495833333332 0.001099399999999998 0
185 0.001042139583333334 0.001649100000000002 0
186 0.001007783333333332 0.002198800000000001 0
187 0.0009734270833333331 0.002748500000000003 0
188 0.0009390708333333331 0.003298200000000002 0
189 0.0009047145833333331 0.003847900000000003 0
190 0.0008703583333333331 0.004397600000000003 0
191 0.000836002083333333 0.004947300000000003 0
192 0.000801645833333333 0.005497000000000004 0
193 0.000767289583333333 0.006046700000000006 0
194 0.0007329333333333339 0.006596400000000005 0
195 0.000698577083333333 0.007146100000000006 0
196 0.000664220833333333 0.007695800000000004 0
197 0.000629864583333333 0.008245500000000005 0
198 0.000595508333333333 0.008795200000000003 0
199 0.0005611520833333321 0.009344900000000003 0
200 0.0005267958333333329 0.009894600000000002 0
201 0.0004924395833333338 0.0104443 0
202 0.000478337975512777 0.01145004526006824 0
203 0.0004985926176922211 0.01190609052013648 0
204 0.0005188472598716643 0.01236213578020472 0
205 0.0005391019020511093 0.01281818104027296 0
206 0.0005593565442305534 0.0132742263003412 0
207 0.0009565040332430294 0.01144393466733584 0
208 0.0009968413998193947 0.01189386933467168 0
209 0.001037178766395757 0.01234380400200753 0
210 0.00107751613297212 0.01279373866934336 0
211 0.001117853499548484 0.01324367333667921 0
212 0.001434326561362206 0.01143376242986986 0
213 0.001494403122724411 0.01187352485973972 0
214 0.001554479684086615 0.01231328728960957 0
215 0.001614556245448818 0.01275304971947943 0
216 0.001674632806811023 0.01319281214934929 0
217 0.001911634559405194 0.0114195466507216 0
218 0.001990935785477052 0.01184509330144321 0
219 0.002070237011548912 0.01227063995216482 0
220 0.002149538237620772 0.01269618660288642 0
221 0.002228839463692631 0.01312173325360803 0
222 0.002388257942591808 0.01140131262904285 0
223 0.002486099218516947 0.01180862525808569 0
224 0.002583940494442083 0.01221593788712854 0
225 0.002681781770367224 0.01262325051617139 0
226 0.002779623046292362 0.01303056314521423 0
227 0.01253809004860937 0.0008455696881243318 0
228 0.01242930549880738 0.0016878679644416 0
229 0.01227126096260585 0.002523637611842454 0
230 0.01206449312506123 0.003349649741021915 0
231 0.0118097500822579 0.00416271780067144 0
232 0.01150798809530974 0.004959711403965786 0
233 0.01116036744113084 0.005737569911351522 0
234 0.01076824737797923 0.006493315710701174 0
235 0.01033318024761779 0.007224067137210401 0
236 0.009856904739683595 0.007927050976978411 0
237 0.009341338347491237 0.008599614500018577 0
238 0.008788569048004855 0.009239236970487785 0
239 0.008200846242079346 0.009843540584191512 0
240 0.007580570994281288 0.01041030078590665 0
241 0.006930285614639056 0.01093745592175509 0
242 0.006252662627527078 0.01142311618474627 0
243 0.005550493175548388 0.01186557181467386 0
244 0.004826674908731147 0.01226330051678727 0
245 0.004084199411588106 0.01261497406704792 0
246 0.0113634945388875 0.000786395750499466 0
247 0.0112352393990459 0.001570174371553281 0
248 0.01106757627008468 0.002348730089473962 0
249 0.01086093450004898 0.003119479792817534 0
250 0.01061591256580632 0.003879874240537152 0
251 0.01033327547624779 0.004627409123172629 0
252 0.01001395145290467 0.005359635929081216 0
253 0.009659027902383379 0.006074172568560939 0
254 0.009269746698094232 0.006768713709768321 0
255 0.008847498791746875 0.00744104078158273 0
256 0.008393818177992989 0.008089031600014861 0
257 0.007910375238403882 0.00871066957639023 0
258 0.007398969493663476 0.009304052467353208 0
259 0.00686152179542503 0.009867400628725324 0
260 0.006300065991711245 0.01039906473740407 0
261 0.005716740102021662 0.01089753294779701 0
262 0.00511377704043871 0.01136143745173909 0
263 0.004493494926984918 0.01178956041342982 0
264 0.003858287029270485 0.01218083925363833 0
265 0.01018889902916562 0.0007272218128745993 0
266 0.01004117329928443 0.001452480778664961 0
267 0.009863891577563509 0.002173822567105472 0
268 0.009657375875036737 0.002889309844613149 0
269 0.009422075049354743 0.003597030680402864 0
270 0.009158562857185843 0.004295106842379473 0
271 0.008867535464678505 0.004981701946810913 0
272 0.008549808426787533 0.005655029426420706 0
273 0.008206313148570675 0.006313360282326241 0
274 0.007838092843810157 0.006955030586187049 0
275 0.007446298008494743 0.007578448700011147 0
276 0.007032181428802914 0.008182102182292672 0
277 0.006597092745247608 0.008764564350514908 0
278 0.006142472596568773 0.009324500471543991 0
279 0.005669846368783434 0.009860673553053055 0
280 0.005180817576516247 0.01037194971084776 0
281 0.004677060905329033 0.01085730308880432 0
282 0.004160314945238689 0.01131582031007236 0
283 0.003632374646952864 0.01174670444022875 0
284 0.009014303519443746 0.0006680478752497353 0
285 0.008847107199522948 0.001334787185776638 0
286 0.008660206885042338 0.001998915044736981 0
287 0.008453817250024491 0.002659139896408766 0
288 0.008228237532903162 0.003314187120268576 0
289 0.007983850238123896 0.003962804561586314 0
290 0.007721119476452336 0.004603767964540609 0
291 0.00744058895119169 0.005235886284280471 0
292 0.007142879599047117 0.005858006854884162 0
293 0.006828686895873438 0.006469020390791366 0
294 0.006498777838996495 0.007067865800007431 0
295 0.006153987619201943 0.007653534788195116 0
296 0.005795215996831739 0.008225076233676607 0
297 0.005423423397712516 0.008781600314362663 0
298 0.005039626745855622 0.009322282368702039 0
299 0.004644895051010831 0.009846366473898509 0
300 0.004240344770219355 0.01035316872586955 0
301 0.00382713496349246 0.01084208020671491 0
302 0.003406462264635243 0.01131256962681917 0
303 0.007839708009721873 0.0006088739376248677 0
304 0.007653041099761475 0.001217093592888317 0
305 0.007456522192521169 0.00182400752236849 0
306 0.007250258625012246 0.002428969948204383 0
307 0.007034400016451581 0.003031343560134287 0
308 0.006809137619061947 0.003630502280793157 0
309 0.006574703488226168 0.004225833982270303 0
310 0.006331369475595845 0.004816743142140236 0
311 0.006079446049523558 0.005402653427442082 0
312 0.005819280947936719 0.005983010195395684 0
313 0.005551257669498247 0.006557282900003715 0
314 0.005275793809600971 0.007124967394097558 0
315 0.00499333924841587 0.007685588116838303 0
316 0.004704374198856257 0.008238700157181332 0
317 0.004409407122927811 0.008783891184351019 0
318 0.004108972525505416 0.009320783236949255 0
319 0.003803628635109677 0.009849034362934776 0
320 0.00349395498174623 0.01036834010335745 0
321 0.003180549882317621 0.01087843481340959 0
322 0.005153437499999997 0.017178125 0
323 0.010306875 0.017178125 0
324 0.0154603125 0.017178125 0
$EndNodes
$Elements
360
1 1 2 5 7 2 36
2 1 2 5 7 36 37
3 1 2 5 7 37 38
4 1 2 5 7 38 39
5 1 2 5 7 39 40
6 1 2 5 7 40 3
7 1 2 4 8 3 41
8 1 2 4 8 41 42
9 1 2 4 8 42 43
10 1 2 4 8 43 44
11 1 2 4 8 44 45
12 1 2 4 8 45 46
13 1 2 4 8 46 47
14 1 2 4 8 47 48
15 1 2 4 8 48 49
16 1 2 4 8 49 50
17 1 2 4 8 50 51
18 1 2 4 8 51 52
19 1 2 4 8 52 53
20 1 2 4 8 53 54
21 1 2 4 8 54 55
22 1 2 4 8 55 56
23 1 2 4 8 56 57
24 1 2 4 8 57 58
25 1 2 4 8 58 59
26 1 2 4 8 59 4
27 1 2 3 10 6 65
28 1 2 3 10 65 66
29 1 2 3 10 66 67
30 1 2 3 10 67 68
31 1 2 3 10 68 69
32 1 2 3 10 69 5
33 1 2 4 11 4 70
34 1 2 4 11 70 71
35 1 2 4 11 71 72
36 1 2 4 11 72 73
37 1 2 4 11 73 74
38 1 2 4 11 74 6
39 1 2 5 12 7 75
40 1 2 5 12 75 76
41 1 2 5 12 76 77
42 1 2 5 12 77 78
43 1 2 5 12 78 79
44 1 2 5 12 79 2
45 1 2 3 13 5 80
46 1 2 3 13 80 81
47 1 2 3 13 81 82
48 1 2 3 13 82 83
49 1 2 3 13 83 84
50 1 2 3 13 84 85
51 1 2 3 13 85 86
52 1 2 3 13 86 87
53 1 2 3 13 87 88
54 1 2 3 13 88 89
55 1 2 3 13 89 90
56 1 2 3 13 90 91
57 1 2 3 13 91 92
58 1 2 3 13 92 93
59 1 2 3 13 93 94
60 1 2 3 13 94 95
61 1 2 3 13 95 96
62 1 2 3 13 96 97
63 1 2 3 13 97 98
64 1 2 3 13 98 7
65 1 2 8 15 8 99
66 1 2 8 15 99 100
67 1 2 8 15 100 101
68 1 2 8 15 101 9
69 1 2 9 16 9 102
70 1 2 9 16 102 10
71 1 2 6 17 10 103
72 1 2 6 17 103 104
73 1 2 6 17 104 105
74 1 2 6 17 105 11
75 1 2 7 18 11 106
76 1 2 7 18 106 8
77 3 2 1 1 2 36 107 35
78 3 2 1 1 35 107 108 34
79 3 2 1 1 34 108 109 33
80 3 2 1 1 33 109 110 32
81 3 2 1 1 32 110 111 31
82 3 2 1 1 31 111 112 30
83 3 2 1 1 30 112 113 29
84 3 2 1 1 29 113 114 28
85 3 2 1 1 28 114 115 27
86 3 2 1 1 27 115 116 26
87 3 2 1 1 26 116 117 25
88 3 2 1 1 25 117 118 24
89 3 2 1 1 24 118 119 23
90 3 2 1 1 23 119 120 22
91 3 2 1 1 22 120 121 21
92 3 2 1 1 21 121 122 20
93 3 2 1 1 20 122 123 19
94 3 2 1 1 19 123 124 18
95 3 2 1 1 18 124 125 17
96 3 2 1 1 17 125 16 1
97 3 2 1 1 36 37 126 107
98 3 2 1 1 107 126 127 108
99 3 2 1 1 108 127 128 109
100 3 2 1 1 109 128 129 110
101 3 2 1 1 110 129 130 111
102 3 2 1 1 111 130 131 112
103 3 2 1 1 112 131 132 113
104 3 2 1 1 113 132 133 114
105 3 2 1 1 114 133 134 115
106 3 2 1 1 115 134 135 116
107 3 2 1 1 116 135 136 117
108 3 2 1 1 117 136 137 118
109 3 2 1 1 118 137 138 119
110 3 2 1 1 119 138 139 120
111 3 2 1 1 120 139 140 121
112 3 2 1 1 121 140 141 122
113 3 2 1 1 122 141 142 123
114 3 2 1 1 123 142 143 124
115 3 2 1 1 124 143 144 125
116 3 2 1 1 125 144 15 16
117 3 2 1 1 37 38 145 126
118 3 2 1 1 126 145 146 127
119 3 2 1 1 127 146 147 128
120 3 2 1 1 128 147 148 129
121 3 2 1 1 129 148 149 130
122 3 2 1 1 130 149 150 131
123 3 2 1 1 131 150 151 132
124 3 2 1 1 132 151 152 133
125 3 2 1 1 133 152 153 134
126 3 2 1 1 134 153 154 135
127 3 2 1 1 135 154 155 136
128 3 2 1 1 136 155 156 137
129 3 2 1 1 137 156 157 138
130 3 2 1 1 138 157 158 139
131 3 2 1 1 139 158 159 140
132 3 2 1 1 140 159 160 141
133 3 2 1 1 141 160 161 142
134 3 2 1 1 142 161 162 143
135 3 2 1 1 143 162 163 144
136 3 2 1 1 144 163 14 15
137 3 2 1 1 38 39 164 145
138 3 2 1 1 145 164 165 146
139 3 2 1 1 146 165 166 147
140 3 2 1 1 147 166 167 148
141 3 2 1 1 148 167 168 149
142 3 2 1 1 149 168 169 150
143 3 2 1 1 150 169 170 151
144 3 2 1 1 151 170 171 152
145 3 2 1 1 152 171 172 153
146 3 2 1 1 153 172 173 154
147 3 2 1 1 154 173 174 155
148 3 2 1 1 155 174 175 156
149 3 2 1 1 156 175 176 157
150 3 2 1 1 157 176 177 158
151 3 2 1 1 158 177 178 159
152 3 2 1 1 159 178 179 160
153 3 2 1 1 160 179 180 161
154 3 2 1 1 161 180 181 162
155 3 2 1 1 162 181 182 163
156 3 2 1 1 163 182 13 14
157 3 2 1 1 39 40 183 164
158 3 2 1 1 164 183 184 165
159 3 2 1 1 165 184 185 166
160 3 2 1 1 166 185 186 167
161 3 2 1 1 167 186 187 168
162 3 2 1 1 168 187 188 169
163 3 2 1 1 169 188 189 170
164 3 2 1 1 170 189 190 171
165 3 2 1 1 171 190 191 172
166 3 2 1 1 172 191 192 173
167 3 2 1 1 173 192 193 174
168 3 2 1 1 174 193 194 175
169 3 2 1 1 175 194 195 176
170 3 2 1 1 176 195 196 177
171 3 2 1 1 177 196 197 178
172 3 2 1 1 178 197 198 179
173 3 2 1 1 179 198 199 180
174 3 2 1 1 180 199 200 181
175 3 2 1 1 181 200 201 182
176 3 2 1 1 182 201 12 13
177 3 2 1 1 40 3 41 183
178 3 2 1 1 183 41 42 184
179 3 2 1 1 184 42 43 185
180 3 2 1 1 185 43 44 186
181 3 2 1 1 186 44 45 187
182 3 2 1 1 187 45 46 188
183 3 2 1 1 188 46 47 189
184 3 2 1 1 189 47 48 190
185 3 2 1 1 190 48 49 191
186 3 2 1 1 191 49 50 192
187 3 2 1 1 192 50 51 193
188 3 2 1 1 193 51 52 194
189 3 2 1 1 194 52 53 195
190 3 2 1 1 195 53 54 196
191 3 2 1 1 196 54 55 197
192 3 2 1 1 197 55 56 198
193 3 2 1 1 198 56 57 199
194 3 2 1 1 199 57 58 200
195 3 2 1 1 200 58 59 201
196 3 2 1 1 201 59 4 12
197 3 2 1 2 4 70 202 12
198 3 2 1 2 70 71 203 202
199 3 2 1 2 71 72 204 203
200 3 2 1 2 72 73 205 204
201 3 2 1 2 73 74 206 205
202 3 2 1 2 74 6 65 206
203 3 2 1 2 12 202 207 13
204 3 2 1 2 202 203 208 207
205 3 2 1 2 203 204 209 208
206 3 2 1 2 204 205 210 209
207 3 2 1 2 205 206 211 210
208 3 2 1 2 206 65 66 211
209 3 2 1 2 13 207 212 14
210 3 2 1 2 207 208 213 212
211 3 2 1 2 208 209 214 213
212 3 2 1 2 209 210 215 214
213 3 2 1 2 210 211 216 215
214 3 2 1 2 211 66 67 216
215 3 2 1 2 14 212 217 15
216 3 2 1 2 212 213 218 217
217 3 2 1 2 213 214 219 218
218 3 2 1 2 214 215 220 219
219 3 2 1 2 215 216 221 220
220 3 2 1 2 216 67 68 221
221 3 2 1 2 15 217 222 16
222 3 2 1 2 217 218 223 222
223 3 2 1 2 218 219 224 223
224 3 2 1 2 219 220 225 224
225 3 2 1 2 220 221 226 225
226 3 2 1 2 221 68 69 226
227 3 2 1 2 16 222 60 1
228 3 2 1 2 222 223 61 60
229 3 2 1 2 223 224 62 61
230 3 2 1 2 224 225 63 62
231 3 2 1 2 225 226 64 63
232 3 2 1 2 226 69 5 64
233 3 2 1 3 7 75 227 98
234 3 2 1 3 98 227 228 97
235 3 2 1 3 97 228 229 96
236 3 2 1 3 96 229 230 95
237 3 2 1 3 95 230 231 94
238 3 2 1 3 94 231 232 93
239 3 2 1 3 93 232 233 92
240 3 2 1 3 92 233 234 91
241 3 2 1 3 91 234 235 90
242 3 2 1 3 90 235 236 89
243 3 2 1 3 89 236 237 88
244 3 2 1 3 88 237 238 87
245 3 2 1 3 87 238 239 86
246 3 2 1 3 86 239 240 85
247 3 2 1 3 85 240 241 84
248 3 2 1 3 84 241 242 83
249 3 2 1 3 83 242 243 82
250 3 2 1 3 82 243 244 81
251 3 2 1 3 81 244 245 80
252 3 2 1 3 80 245 64 5
253 3 2 1 3 75 76 246 227
254 3 2 1 3 227 246 247 228
255 3 2 1 3 228 247 248 229
256 3 2 1 3 229 248 249 230
257 3 2 1 3 230 249 250 231
258 3 2 1 3 231 250 251 232
259 3 2 1 3 232 251 252 233
260 3 2 1 3 233 252 253 234
261 3 2 1 3 234 253 254 235
262 3 2 1 3 235 254 255 236
263 3 2 1 3 236 255 256 237
264 3 2 1 3 237 256 257 238
265 3 2 1 3 238 257 258 239
266 3 2 1 3 239 258 259 240
267 3 2 1 3 240 259 260 241
268 3 2 1 3 241 260 261 242
269 3 2 1 3 242 261 262 243
270 3 2 1 3 243 262 263 244
271 3 2 1 3 244 263 264 245
272 3 2 1 3 245 264 63 64
273 3 2 1 3 76 77 265 246
274 3 2 1 3 246 265 266 247
275 3 2 1 3 247 266 267 248
276 3 2 1 3 248 267 268 249
277 3 2 1 3 249 268 269 250
278 3 2 1 3 250 269 270 251
279 3 2 1 3 251 270 271 252
280 3 2 1 3 252 271 272 253
281 3 2 1 3 253 272 273 254
282 3 2 1 3 254 273 274 255
283 3 2 1 3 255 274 275 256
284 3 2 1 3 256 275 276 257
285 3 2 1 3 257 276 277 258
286 3 2 1 3 258 277 278 259
287 3 2 1 3 259 278 279 260
288 3 2 1 3 260 279 280 261
289 3 2 1 3 261 280 281 262
290 3 2 1 3 262 281 282 263
291 3 2 1 3 263 282 283 264
292 3 2 1 3 264 283 62 63
293 3 2 1 3 77 78 284 265
294 3 2 1 3 265 284 285 266
295 3 2 1 3 266 285 286 267
296 3 2 1 3 267 286 287 268
297 3 2 1 3 268 287 288 269
298 3 2 1 3 269 288 289 270
299 3 2 1 3 270 289 290 271
300 3 2 1 3 271 290 291 272
301 3 2 1 3 272 291 292 273
302 3 2 1 3 273 292 293 274
303 3 2 1 3 274 293 294 275
304 3 2 1 3 275 294 295 276
305 3 2 1 3 276 295 296 277
306 3 2 1 3 277 296 297 278
307 3 2 1 3 278 297 298 279
308 3 2 1 3 279 298 299 280
309 3 2 1 3 280 299 300 281
310 3 2 1 3 281 300 301 282
311 3 2 1 3 282 301 302 283
312 3 2 1 3 283 302 61 62
313 3 2 1 3 78 79 303 284
314 3 2 1 3 284 303 304 285
315 3 2 1 3 285 304 305 286
316 3 2 1 3 286 305 306 287
317 3 2 1 3 287 306 307 288
318 3 2 1 3 288 307 308 289
319 3 2 1 3 289 308 309 290
320 3 2 1 3 290 309 310 291
321 3 2 1 3 291 310 311 292
322 3 2 1 3 292 311 312 293
323 3 2 1 3 293 312 313 294
324 3 2 1 3 294 313 314 295
325 3 2 1 3 295 314 315 296
326 3 2 1 3 296 315 316 297
327 3 2 1 3 297 316 317 298
328 3 2 1 3 298 317 318 299
329 3 2 1 3 299 318 319 300
330 3 2 1 3 300 319 320 301
331 3 2 1 3 301 320 321 302
332 3 2 1 3 302 321 60 61
333 3 2 1 3 79 2 35 303
334 3 2 1 3 303 35 34 304
335 3 2 1 3 304 34 33 305
336 3 2 1 3 305 33 32 306
337 3 2 1 3 306 32 31 307
338 3 2 1 3 307 31 30 308
339 3 2 1 3 308 30 29 309
340 3 2 1 3 309 29 28 310
341 3 2 1 3 310 28 27 311
342 3 2 1 3 311 27 26 312
343 3 2 1 3 312 26 25 313
344 3 2 1 3 313 25 24 314
345 3 2 1 3 314 24 23 315
346 3 2 1 3 315 23 22 316
347 3 2 1 3 316 22 21 317
348 3 2 1 3 317 21 20 318
349 3 2 1 3 318 20 19 319
350 3 2 1 3 319 19 18 320
351 3 2 1 3 320 18 17 321
352 3 2 1 3 321 17 1 60
353 3 2 2 4 8 99 322 106
354 3 2 2 4 106 322 105 11
355 3 2 2 4 99 100 323 322
356 3 2 2 4 322 323 104 105
357 3 2 2 4 100 101 324 323
358 3 2 2 4 323 324 103 104
359 3 2 2 4 101 9 102 324
360 3 2 2 4 324 102 10 103
$EndElements
